<?xml version="1.0" encoding="UTF-8" standalone="no"?>
<svg
   xmlns:dc="http://purl.org/dc/elements/1.1/"
   xmlns:cc="http://creativecommons.org/ns#"
   xmlns:rdf="http://www.w3.org/1999/02/22-rdf-syntax-ns#"
   xmlns:svg="http://www.w3.org/2000/svg"
   xmlns="http://www.w3.org/2000/svg"
   xmlns:xlink="http://www.w3.org/1999/xlink"
   xmlns:sodipodi="http://sodipodi.sourceforge.net/DTD/sodipodi-0.dtd"
   xmlns:inkscape="http://www.inkscape.org/namespaces/inkscape"
   width="48"
   viewBox="0 0 13.546667 13.546667"
   height="48"
   id="svg2"
   version="1.1"
   inkscape:version="0.48.4 r9939"
   sodipodi:docname="arista.svg">
  <metadata
     id="metadata22">
    <rdf:RDF>
      <cc:Work
         rdf:about="">
        <dc:format>image/svg+xml</dc:format>
        <dc:type
           rdf:resource="http://purl.org/dc/dcmitype/StillImage" />
        <dc:title />
      </cc:Work>
    </rdf:RDF>
  </metadata>
  <sodipodi:namedview
     pagecolor="#333333"
     bordercolor="#666666"
     borderopacity="1"
     objecttolerance="10"
     gridtolerance="10"
     guidetolerance="10"
     inkscape:pageopacity="1"
     inkscape:pageshadow="2"
     inkscape:window-width="1920"
     inkscape:window-height="1143"
     id="namedview20"
     showgrid="false"
     inkscape:zoom="11.753906"
     inkscape:cx="14.197408"
     inkscape:cy="23.829844"
     inkscape:window-x="0"
     inkscape:window-y="29"
     inkscape:window-maximized="1"
     inkscape:current-layer="svg2" />
  <defs
     id="defs4">
    <linearGradient
       id="linearGradient4460">
      <stop
         offset="0"
         style="stop-color:#859900;stop-opacity:1;"
         id="stop7" />
      <stop
         offset="1"
         style="stop-color:#b5ce0c;stop-opacity:1;"
         id="stop9" />
    </linearGradient>
    <linearGradient
       gradientTransform="matrix(1.10525,0,0,1.10525,-134.27888,-295.76214)"
       xlink:href="#linearGradient4460"
       id="linearGradient3018"
       y1="279.096"
       y2="268.33"
       gradientUnits="userSpaceOnUse"
       x2="0" />
    <linearGradient
       gradientUnits="userSpaceOnUse"
       x2="0"
       y2="1003.362"
       y1="1052.362"
       id="linearGradient3969"
       xlink:href="#linearGradient3963" />
    <linearGradient
       id="linearGradient3963">
      <stop
         id="stop3004"
         style="stop-color:#888a85"
         offset="0" />
      <stop
         id="stop3006"
         style="stop-color:#a7a9a3"
         offset="1" />
    </linearGradient>
    <linearGradient
       inkscape:collect="always"
       xlink:href="#linearGradient4460"
       id="linearGradient3046"
       gradientUnits="userSpaceOnUse"
       gradientTransform="matrix(1.10525,0,0,1.10525,-134.27888,-295.76214)"
       y1="279.096"
       x2="0"
       y2="268.33" />
    <linearGradient
       inkscape:collect="always"
       xlink:href="#linearGradient4460"
       id="linearGradient3777"
       gradientUnits="userSpaceOnUse"
       gradientTransform="matrix(3.9162401,0,0,3.9162401,-475.7913,-1047.9761)"
       y1="279.096"
       x2="0"
       y2="268.33" />
    <linearGradient
       inkscape:collect="always"
       xlink:href="#linearGradient4460"
       id="linearGradient3783"
       gradientUnits="userSpaceOnUse"
       gradientTransform="matrix(3.9162401,0,0,3.9162401,-475.7913,-1047.9761)"
       y1="279.096"
       x2="0"
       y2="268.33" />
    <linearGradient
       inkscape:collect="always"
       xlink:href="#linearGradient4460-6"
       id="linearGradient3006"
       gradientUnits="userSpaceOnUse"
       gradientTransform="matrix(1.09524,0,0,1.09524,-133.00183,-293.02198)"
       y1="279.09601"
       x2="0"
       y2="268.32999" />
    <linearGradient
       id="linearGradient4460-6">
      <stop
         offset="0"
         style="stop-color:#d7d7d7;stop-opacity:1;"
         id="stop7-4" />
      <stop
         offset="1"
         style="stop-color:#f1f1f1;stop-opacity:1;"
         id="stop9-9" />
    </linearGradient>
    <linearGradient
       y2="268.32999"
       x2="0"
       y1="279.09601"
       gradientTransform="matrix(1.09524,0,0,1.09524,-133.00182,-293.02204)"
       gradientUnits="userSpaceOnUse"
       id="linearGradient3258"
       xlink:href="#linearGradient4460-6"
       inkscape:collect="always" />
    <linearGradient
       inkscape:collect="always"
       xlink:href="#linearGradient4460-6"
       id="linearGradient3296"
       gradientUnits="userSpaceOnUse"
       gradientTransform="matrix(1.09524,0,0,1.09524,-149.93514,-293.02204)"
       y1="279.09601"
       x2="0"
       y2="268.32999" />
  </defs>
  <rect
     id="rect14"
     style="opacity:0.5;fill:#ffffff;fill-rule:evenodd"
     height="12.982"
     rx="0.2"
     y="0.28299999"
     x="0.28200042"
     width="12.982" />
  <g
     id="g3298"
     transform="matrix(0.99987988,0,0,0.99987985,5.3132677e-4,0.00137808)">
    <path
       inkscape:connector-curvature="0"
       id="rect3769"
       d="m 4.5155557,0.89958336 0,11.74750064 4.5155557,0 0,-11.74750064 -4.5155557,0 z"
       style="fill:#3faf27;fill-opacity:1;fill-rule:evenodd" />
    <path
       inkscape:connector-curvature="0"
       id="rect3771"
       d="m 1.1024306,0.89958336 c -0.11079998,0 -0.20284718,0.0920472 -0.20284718,0.20284724 l 0,5.6709029 0,5.6709025 c 0,0.1108 0.092047,0.202848 0.20284718,0.202848 l 3.4660418,0 0,-5.8737505 0,-5.87375014 -3.4660418,0 z"
       style="fill:#d51d3b;fill-opacity:1;fill-rule:evenodd" />
    <path
       id="rect2999"
       transform="scale(0.28222223,0.28222223)"
       d="m 31.8125,3.1875 0,20.8125 0,20.8125 12.28125,0 c 0.392598,0 0.71875,-0.326152 0.71875,-0.71875 l 0,-40.1875 c 0,-0.3925985 -0.326152,-0.71875 -0.71875,-0.71875 l -12.28125,0 z"
       style="fill:#337dd6;fill-opacity:1;stroke:none"
       inkscape:connector-curvature="0" />
  </g>
  <g
     style="fill:#f9f9f9;fill-opacity:1"
     id="g4016"
     transform="matrix(0.2620635,0,0,0.25870371,0.48380952,0.56444446)">
    <path
       inkscape:connector-curvature="0"
       d="M 35.367188,19.214844 C 33.398438,14.824219 28.992188,12 24.027344,12 c -5.078125,0 -9.726563,3.089844 -11.554688,7.675781 l 3.851563,1.445313 c 1.21875,-3.066406 4.316406,-5.117188 7.703125,-5.117188 3.265625,0 6.15625,1.832032 7.496094,4.695313 l -2.808594,1.089843 7.183594,4.019532 L 38,18.199219 z"
       id="path4018"
       style="fill:#f9f9f9;fill-opacity:1" />
    <path
       inkscape:connector-curvature="0"
       d="m 24.027344,32.003906 c -3.242188,0 -6.191406,-1.894531 -7.511719,-4.738281 L 19.28125,26.230469 12.175781,22.296875 10,29.707031 12.652344,28.710938 C 14.582031,33.089844 19.09375,36 24.027344,36 c 5.097656,0 9.609375,-2.964844 11.5,-7.554688 l -3.832032,-1.480468 c -1.257812,3.0625 -4.269531,5.039062 -7.667968,5.039062 z"
       id="path4020"
       style="fill:#f9f9f9;fill-opacity:1" />
  </g>
</svg>
