<?xml version="1.0" encoding="UTF-8" standalone="no"?>
<svg
   xmlns:dc="http://purl.org/dc/elements/1.1/"
   xmlns:cc="http://creativecommons.org/ns#"
   xmlns:rdf="http://www.w3.org/1999/02/22-rdf-syntax-ns#"
   xmlns:svg="http://www.w3.org/2000/svg"
   xmlns="http://www.w3.org/2000/svg"
   xmlns:sodipodi="http://sodipodi.sourceforge.net/DTD/sodipodi-0.dtd"
   xmlns:inkscape="http://www.inkscape.org/namespaces/inkscape"
   width="48"
   viewBox="0 0 13.546667 13.546667"
   height="48"
   id="svg2"
   version="1.1"
   inkscape:version="0.48.4 r9939"
   sodipodi:docname="clipgrab.svg">
  <metadata
     id="metadata20">
    <rdf:RDF>
      <cc:Work
         rdf:about="">
        <dc:format>image/svg+xml</dc:format>
        <dc:type
           rdf:resource="http://purl.org/dc/dcmitype/StillImage" />
      </cc:Work>
    </rdf:RDF>
  </metadata>
  <sodipodi:namedview
     pagecolor="#ffffff"
     bordercolor="#666666"
     borderopacity="1"
     objecttolerance="10"
     gridtolerance="10"
     guidetolerance="10"
     inkscape:pageopacity="0"
     inkscape:pageshadow="2"
     inkscape:window-width="1920"
     inkscape:window-height="1143"
     id="namedview18"
     showgrid="false"
     inkscape:zoom="8"
     inkscape:cx="12.04541"
     inkscape:cy="15.698139"
     inkscape:window-x="0"
     inkscape:window-y="29"
     inkscape:window-maximized="1"
     inkscape:current-layer="svg2" />
  <defs
     id="defs4" />
  <rect
     id="rect8"
     style="opacity:0.5;fill:#ffffff;fill-rule:evenodd"
     height="12.982"
     rx="0.2"
     y="0.28199875"
     x="0.28199875"
     width="12.982" />
  <path
     style="fill:#26aed0;fill-rule:evenodd"
     d="m 0.89972447,2.7516669 0,9.7278471 c 0,0.1108 0.0912253,0.202847 0.20103613,0.202847 l 11.3454284,0 c 0.109811,0 0.201036,-0.09205 0.201036,-0.202847 l 0,-4.5949304 C 8.2511979,7.5610344 3.5724907,6.2128119 0.89972447,2.7516669 z"
     id="rect10"
     inkscape:connector-curvature="0" />
  <path
     style="fill:#74d5ec;fill-opacity:1;fill-rule:evenodd"
     d="m 0.89958336,2.2754167 0,0.555625 C 3.5937809,6.2308541 8.2545066,7.5650761 12.647084,7.893403 l 0,-0.555625 C 8.256314,7.0096198 3.5944543,5.6720468 0.89958336,2.2754167 z"
     id="rect42"
     inkscape:connector-curvature="0" />
  <path
     d="m 17.591647,1.9612053 c 2.697851,3.692806 7.634344,5.089567 12.226432,5.3957065 l 3.673672,-11.5950287 -15.15389,-0.2870056 z"
     id="path3793"
     inkscape:connector-curvature="0" />
  <path
     inkscape:connector-curvature="0"
     style="fill:#5bccea;fill-opacity:1"
     id="path3813"
     d="m 1.1024306,0.89958318 c -0.11080004,0 -0.20284724,0.09205 -0.20284724,0.20284702 l 0,1.1729866 C 3.5944543,5.6720468 8.2563143,7.0096199 12.647084,7.337778 l 0,-6.2353478 c 0,-0.11080002 -0.09205,-0.20284702 -0.202848,-0.20284702 l -11.3418054,0 z" />
</svg>
