<?xml version="1.0" encoding="UTF-8" standalone="no"?>
<svg
   xmlns:dc="http://purl.org/dc/elements/1.1/"
   xmlns:cc="http://creativecommons.org/ns#"
   xmlns:rdf="http://www.w3.org/1999/02/22-rdf-syntax-ns#"
   xmlns:svg="http://www.w3.org/2000/svg"
   xmlns="http://www.w3.org/2000/svg"
   xmlns:xlink="http://www.w3.org/1999/xlink"
   xmlns:sodipodi="http://sodipodi.sourceforge.net/DTD/sodipodi-0.dtd"
   xmlns:inkscape="http://www.inkscape.org/namespaces/inkscape"
   width="48"
   viewBox="0 0 13.546667 13.546667"
   height="48"
   id="svg2"
   version="1.1"
   inkscape:version="0.48.4 r9939"
   sodipodi:docname="etherape.svg">
  <metadata
     id="metadata26">
    <rdf:RDF>
      <cc:Work
         rdf:about="">
        <dc:format>image/svg+xml</dc:format>
        <dc:type
           rdf:resource="http://purl.org/dc/dcmitype/StillImage" />
      </cc:Work>
    </rdf:RDF>
  </metadata>
  <sodipodi:namedview
     pagecolor="#ffffff"
     bordercolor="#666666"
     borderopacity="1"
     objecttolerance="10"
     gridtolerance="10"
     guidetolerance="10"
     inkscape:pageopacity="0"
     inkscape:pageshadow="2"
     inkscape:window-width="1920"
     inkscape:window-height="1143"
     id="namedview24"
     showgrid="false"
     inkscape:zoom="4.9166667"
     inkscape:cx="-57.969703"
     inkscape:cy="-5.6545571"
     inkscape:window-x="0"
     inkscape:window-y="29"
     inkscape:window-maximized="1"
     inkscape:current-layer="svg2" />
  <defs
     id="defs4">
    <linearGradient
       id="linearGradient4460">
      <stop
         offset="0"
         style="stop-color:#2d2d2d"
         id="stop7" />
      <stop
         offset="1"
         style="stop-color:#4b4b4b"
         id="stop9" />
    </linearGradient>
    <linearGradient
       gradientTransform="matrix(1.09524,0,0,1.09524,-133.0015,-293.02234)"
       xlink:href="#linearGradient4460"
       id="linearGradient4956"
       y1="279.096"
       y2="268.33"
       gradientUnits="userSpaceOnUse"
       x2="0" />
  </defs>
  <rect
     id="rect14"
     style="opacity:0.5;fill:#ffffff;fill-rule:evenodd"
     height="12.982"
     rx="0.2"
     y="0.28200001"
     x="0.28200001"
     width="12.982" />
  <rect
     id="rect42"
     style="fill:#37c1dd;fill-opacity:0.39215686;fill-rule:evenodd"
     height="11.746"
     rx="0.20000002"
     y="0.90094227"
     x="0.90000665"
     width="11.746" />
  <path
     style="fill:#ffffff;fill-opacity:1;fill-rule:evenodd"
     d="M 4.9477084,3.3249306 C 4.881875,3.3276406 4.8179971,3.3358836 4.7536807,3.3425696 4.5485226,3.3638996 4.3550875,3.3907286 4.1715973,3.4660419 3.9402877,3.5609829 3.7075393,3.6851321 3.5400576,3.8707869 3.3677957,4.0617405 3.1848008,4.3026008 3.192639,4.559653 3.195119,4.641297 3.280451,4.7014192 3.3161112,4.7713197 3.3844612,4.9052835 3.4365323,5.0816939 3.4572223,5.2299308 3.4810563,5.4006552 3.3533679,5.514073 3.3690283,5.6797225 3.3823213,5.8202974 3.4324453,6.116132 3.5454171,6.2088892 3.8048813,6.4219478 4.3097204,6.1554012 4.533195,5.9972225 4.581496,6.1617403 4.7175326,6.3255601 4.7272227,6.4999308 4.7500093,6.9096503 4.4509791,7.3188746 4.2862505,7.672917 4.2216065,7.8118612 4.1946995,7.9979441 4.1098616,8.1227087 c -0.10631,0.1563626 -0.3485732,-0.00351 -0.5027083,-0.017639 -0.110078,-0.010087 -0.206379,0.0036 -0.1763889,0.1322916 -0.04438,0.03914 -0.045701,0.085311 0.017639,0.1058334 0.177382,0.057462 0.3705134,0.073957 0.5468055,0.1499305 -0.07201,0.03871 -0.1638613,0.1247877 -0.026458,0.1499306 C 4.1034008,8.6677018 4.1376338,8.5755208 4.2421537,8.528403 4.3708493,8.470397 4.4912128,8.462086 4.6037509,8.3608336 4.7172398,8.2587205 4.751477,8.0943633 4.824237,7.9639586 4.919599,7.7930084 5.0665163,7.6437379 5.1505565,7.4700697 l 0.017639,0 c 0,0.5147315 0.083486,1.1474673 -0.1322917,1.6315972 -0.067818,0.1521726 -0.4304112,0.050132 -0.4586111,0.2028472 -0.01765,0.095589 0.1702367,0.053937 0.2116666,0.044097 l 0,0.026458 c -0.219509,0.092077 -0.3367509,0.402533 0,0.3175 0.015359,0.091966 0.073412,0.1340883 0.1322917,0.044097 C 5.06631,9.7693751 5.0922542,9.6257404 5.2034731,9.5602772 5.3269682,9.4875842 5.4473115,9.4633172 5.5474315,9.3486106 5.8009915,9.0581745 5.8230833,8.5270845 5.9795835,8.1756252 6.0558704,8.0043118 6.2186246,7.8677208 6.2794446,7.6993752 6.3236547,7.577035 6.1629091,7.3634551 6.208889,7.3025002 c 0.06922,-0.091807 0.3395328,0.022056 0.4321528,0.035278 0.27372,0.039052 0.6796191,-0.10246 0.9525001,-0.15875 l 0,0.017639 c -0.707155,0.3504638 -0.7398899,1.0950205 -0.4762501,1.74625 0.091852,0.2268765 0.3043852,0.3996679 0.3175001,0.6526389 -0.2283492,0 -0.4637273,-0.1373423 -0.6790973,-0.1058333 -0.2461991,0.036018 -0.1890587,0.5020824 -0.035278,0.6173614 0.122318,0.09166 0.2112276,-0.03272 0.3263195,-0.05292 0.2684199,-0.04711 0.6974437,0.05953 0.9260417,-0.1499305 0.09796,-0.089766 0.061665,-0.2101619 0.079375,-0.3263195 0.03266,-0.214192 0.091412,-0.4443216 0.1322917,-0.6614583 l 0.044097,0 C 8.3269635,9.1225795 8.6867197,9.3651399 8.9076387,9.419164 9.0774337,9.460687 9.3360219,9.446621 9.427986,9.6220113 9.2196373,9.5323812 8.8234734,9.4232044 8.6165974,9.5690975 8.3561515,9.7527773 8.9036669,9.8889368 9.0222919,9.8954169 8.9954988,10.042041 9.0347932,10.199973 9.2251391,10.124723 9.3478187,10.076213 9.4803661,9.9951478 9.6043752,9.9042364 L 9.877778,9.6572919 10.080625,9.4103475 C 10.069157,9.2959927 9.9369274,9.2059226 9.8601391,9.1369447 9.6282551,8.928665 9.197403,8.8141623 9.163403,8.4666669 9.112709,7.9486274 9.5339839,7.6666563 9.7366669,7.2407641 c 0.171747,-0.3609055 0.1088278,-0.8907701 0.035278,-1.27 0.2654071,0.1421372 0.3489341,0.4896372 0.3615971,0.7761111 0.02667,0.603502 -0.3437073,1.0963783 -0.1675693,1.7197917 0.03796,0.1343858 0.036744,0.4080866 0.1940273,0.47625 0.05748,0.024912 0.134868,-0.019578 0.175492,-0.067267 0.04747,-0.055727 0.0381,-0.1420755 0.04499,-0.2149554 0.03099,-0.3278503 -0.105347,-0.6171854 -0.01764,-0.9877776 0.0873,-0.3688566 0.194547,-0.7061285 0.220487,-1.0847917 0.0082,-0.1201886 0.0488,-0.2448967 0,-0.3615973 C 10.497495,6.0210117 10.293148,5.7325273 10.089445,5.6356252 9.9278251,5.5587422 9.7357215,5.5589369 9.5690975,5.494514 9.4325555,5.4417328 9.3307828,5.3253664 9.1986808,5.2652085 8.9401598,5.1474896 8.6751932,5.0941036 8.4137502,4.9918057 7.9566213,4.8129423 7.4609877,4.5954977 7.0731946,4.2862501 6.8554235,4.1125895 6.7241419,3.8414699 6.4822918,3.6865279 6.0682518,3.4212793 5.4940625,3.3025276 4.9477084,3.3249306 z"
     id="rect16"
     inkscape:connector-curvature="0"
     sodipodi:nodetypes="ssaaaccccccccccccccccccccccccccccccccccscsccccscccccccccccccaaasccsccsscs" />
  <path
     style="fill:none;stroke:#000;stroke-linejoin:round;stroke-linecap:round;stroke-width:1.799"
     d="m 59.974268,10.223075 18.99469,0 3.979537,-14.4296605 0,24.7301035 5.317016,-19.2790883 2.497842,9.0568343 19.341027,0"
     id="path20" />
  <path
     style="fill:#2dbbd8;line-height:normal;color:#000"
     d="m 6.3828721,4.5163753 a 0.14979478,0.15032401 0 0 0 -0.031236,0.031347 0.14979478,0.15032401 0 0 0 -0.031236,0.031347 0.14979478,0.15032401 0 0 0 -0.031236,0.062693 l 0,0.031347 -0.5934895,2.3196518 -2.9986836,0 a 0.14979478,0.15032401 0 0 0 -0.031236,0 0.14979478,0.15032401 0 0 0 -0.031236,0 0.14979478,0.15032401 0 0 0 -0.031236,0.031347 0.14979478,0.15032401 0 0 0 -0.031236,0.031347 0.14979478,0.15032401 0 0 0 -0.031236,0.062693 0.14979478,0.15032401 0 0 0 0,0.031347 0.14979478,0.15032401 0 0 0 0.031236,0.062693 0.14979478,0.15032401 0 0 0 0.031236,0.031347 0.14979478,0.15032401 0 0 0 0.031236,0.031347 0.14979478,0.15032401 0 0 0 0.031236,0 0.14979478,0.15032401 0 0 0 0.031236,0 l 3.0923924,0 a 0.14979478,0.15032401 0 0 0 0.031236,0 0.14979478,0.15032401 0 0 0 0.031236,0 0.14979478,0.15032401 0 0 0 0.031236,-0.031348 0.14979478,0.15032401 0 0 0 0.031236,-0.031347 0.14979478,0.15032401 0 0 0 0.031236,-0.031347 l 0.3435992,-1.2852125 0,2.9465847 0,0.062693 a 0.14979478,0.15032401 0 0 0 0,0.031347 0.14979478,0.15032401 0 0 0 0.031236,0.031347 0.14979478,0.15032401 0 0 0 0.031236,0.031347 0.14979478,0.15032401 0 0 0 0.031236,0.031347 0.14979478,0.15032401 0 0 0 0.031236,0 0.14979478,0.15032401 0 0 0 0.031236,0 0.14979478,0.15032401 0 0 0 0.031236,0 0.14979478,0.15032401 0 0 0 0.031236,0 0.14979478,0.15032401 0 0 0 0.031236,-0.031348 0.14979478,0.15032401 0 0 0 0.031236,-0.031347 0.14979478,0.15032401 0 0 0 0.031236,-0.031347 l 0,-0.031347 0.7184381,-2.7271571 0.2498903,1.0030927 a 0.14979478,0.15032401 0 0 0 0,0.031347 0.14979478,0.15032401 0 0 0 0.031236,0.031347 0.14979478,0.15032401 0 0 0 0.031236,0.031347 0.14979478,0.15032401 0 0 0 0.031236,0 0.14979478,0.15032401 0 0 0 0.031236,0.031347 0.14979478,0.15032401 0 0 0 0.031236,0 l 3.1548649,0 a 0.14979478,0.15032401 0 0 0 0.03124,-0.031348 0.14979478,0.15032401 0 0 0 0.03124,0 0.14979478,0.15032401 0 0 0 0.03124,-0.031347 0.14979478,0.15032401 0 0 0 0.03124,-0.031347 0.14979478,0.15032401 0 0 0 0,-0.031347 0.14979478,0.15032401 0 0 0 0,-0.031347 0.14979478,0.15032401 0 0 0 0,-0.031347 0.14979478,0.15032401 0 0 0 0,-0.031347 0.14979478,0.15032401 0 0 0 -0.03124,-0.062693 0.14979478,0.15032401 0 0 0 -0.03124,0 0.14979478,0.15032401 0 0 0 -0.03124,-0.031347 0.14979478,0.15032401 0 0 0 -0.03124,0 l -3.061156,0 -0.3748355,-1.4419457 a 0.14979478,0.15032401 0 0 0 0,-0.031347 0.14979478,0.15032401 0 0 0 -0.031236,-0.031344 0.14979478,0.15032401 0 0 0 -0.031236,-0.031347 0.14979478,0.15032401 0 0 0 -0.031236,0 0.14979478,0.15032401 0 0 0 -0.031236,0 0.14979478,0.15032401 0 0 0 -0.031236,0 0.14979478,0.15032401 0 0 0 -0.031236,0 0.14979478,0.15032401 0 0 0 -0.031236,0 0.14979478,0.15032401 0 0 0 -0.031236,0.031347 0.14979478,0.15032401 0 0 0 -0.031236,0.062693 l -0.5622531,2.1002252 0,-2.9465847 0,-0.031347 a 0.14979478,0.15032401 0 0 0 0,-0.031347 0.14979478,0.15032401 0 0 0 -0.031236,-0.062693 0.14979478,0.15032401 0 0 0 -0.031236,-0.031347 0.14979478,0.15032401 0 0 0 -0.031236,-0.031347 0.14979478,0.15032401 0 0 0 -0.031236,0 0.14979478,0.15032401 0 0 0 -0.031236,0 0.14979478,0.15032401 0 0 0 -0.031236,0 0.14979478,0.15032401 0 0 0 -0.031236,0 z"
     id="path22" />
</svg>
