<?xml version="1.0" encoding="UTF-8" standalone="no"?>
<svg
   xmlns:dc="http://purl.org/dc/elements/1.1/"
   xmlns:cc="http://creativecommons.org/ns#"
   xmlns:rdf="http://www.w3.org/1999/02/22-rdf-syntax-ns#"
   xmlns:svg="http://www.w3.org/2000/svg"
   xmlns="http://www.w3.org/2000/svg"
   xmlns:xlink="http://www.w3.org/1999/xlink"
   xmlns:sodipodi="http://sodipodi.sourceforge.net/DTD/sodipodi-0.dtd"
   xmlns:inkscape="http://www.inkscape.org/namespaces/inkscape"
   width="48"
   viewBox="0 0 13.546667 13.546667"
   height="48"
   id="svg2"
   version="1.1"
   inkscape:version="0.48.4 r9939"
   sodipodi:docname="freeciv-client.svg">
  <metadata
     id="metadata22">
    <rdf:RDF>
      <cc:Work
         rdf:about="">
        <dc:format>image/svg+xml</dc:format>
        <dc:type
           rdf:resource="http://purl.org/dc/dcmitype/StillImage" />
        <dc:title />
      </cc:Work>
    </rdf:RDF>
  </metadata>
  <sodipodi:namedview
     pagecolor="#ffffff"
     bordercolor="#666666"
     borderopacity="1"
     objecttolerance="10"
     gridtolerance="10"
     guidetolerance="10"
     inkscape:pageopacity="0"
     inkscape:pageshadow="2"
     inkscape:window-width="1920"
     inkscape:window-height="1143"
     id="namedview20"
     showgrid="false"
     inkscape:zoom="5.6568543"
     inkscape:cx="1.2292277"
     inkscape:cy="8.0627319"
     inkscape:window-x="0"
     inkscape:window-y="29"
     inkscape:window-maximized="1"
     inkscape:current-layer="svg2" />
  <defs
     id="defs4">
    <linearGradient
       id="linearGradient4460">
      <stop
         offset="0"
         style="stop-color:#108fc9"
         id="stop7" />
      <stop
         offset="1"
         style="stop-color:#26afee"
         id="stop9" />
    </linearGradient>
    <linearGradient
       gradientTransform="matrix(1.10525,0,0,1.10525,-134.25208,-295.76214)"
       xlink:href="#linearGradient4460"
       id="linearGradient3001"
       y1="279.096"
       y2="268.33"
       gradientUnits="userSpaceOnUse"
       x2="0" />
  </defs>
  <rect
     id="rect14"
     style="opacity:0.5;fill:#ffffff;fill-rule:evenodd"
     height="12.982"
     rx="0.2"
     y="0.28233331"
     x="0.28233331"
     width="12.982" />
  <rect
     id="rect42"
     style="fill:#b48c0e;fill-opacity:1;fill-rule:evenodd"
     height="11.746"
     rx="0.20000002"
     y="0.90033334"
     x="0.92879391"
     width="11.746" />
  <path
     style="fill:#eeeeec;fill-opacity:1;fill-rule:evenodd;stroke:none"
     d="m 6.7777431,1.411111 c -2.957197,0 -5.3445834,2.3785667 -5.3445834,5.3357641 l 0,0.052917 c 0,2.9571973 2.3873864,5.3357639 5.3445834,5.3357639 2.9571974,0 5.3357639,-2.3785666 5.3357639,-5.3357639 l 0,-0.052917 c 0,-2.9571974 -2.3785665,-5.3357641 -5.3357639,-5.3357641 z"
     id="path3789"
     inkscape:connector-curvature="0" />
  <path
     style="fill:#b48c0e;fill-opacity:1;fill-rule:evenodd"
     d="M 22.0625 17.84375 C 12.366865 18.121894 4.6580944 20.379672 3.28125 23.25 L 3.28125 23.59375 L 5.1875 23.59375 C 6.110596 20.696869 14.201074 18.4375 24.09375 18.4375 C 33.986426 18.4375 42.048936 20.696869 42.96875 23.59375 L 44.90625 23.59375 L 44.90625 23.1875 C 43.331774 20.154166 34.644837 17.84375 24.09375 17.84375 C 23.405418 17.84375 22.733522 17.8245 22.0625 17.84375 z "
     transform="scale(0.28222223,0.28222223)"
     id="use3065-7" />
  <rect
     id="rect16"
     style="fill:#ae9220;fill-opacity:1;fill-rule:evenodd"
     height="9.5955563"
     rx="4.7760167"
     y="1.9755553"
     x="1.9969143"
     width="9.5528383" />
  <path
     style="fill:#c2b059;fill-opacity:1"
     d="m 2.249103,7.0382056 0.05068,-0.2545368 0.555119,0.2326206 0.382852,0.3555367 0.329044,0.048185 C 3.449295,7.6862816 3.2114,8.1154556 3.254707,8.4127026 c 0.02519,0.1728808 0.201912,0.4192469 0.302892,0.5599548 0.14107,0.1965277 0.406713,0.3125957 0.477742,0.5600052 l 0.01186,0.4072584 0.07734,0.305444 c -0.01544,0.129405 -0.136483,0.353831 -0.05668,0.473971 0.08775,0.13213 0.412389,0.298291 0.563113,0.339833 0.143907,0.03965 0.159618,-0.110826 0.101485,-0.202919 L 4.920432,10.597082 5.158328,10.420791 5.325852,9.8395821 5.686191,9.6056377 C 5.833824,9.3841146 5.726811,9.2002125 5.782061,8.9726826 L 6.024821,8.2854347 C 5.750202,8.1824279 5.356971,8.0559702 5.163244,7.827269 L 5.112564,7.852727 5.061884,7.6236447 4.7578,7.4709227 4.70712,7.5218297 4.6311,7.1654785 4.225654,7.1332055 3.921571,6.9662288 C 3.79041,6.9474908 3.61617,7.1631643 3.566807,7.2672945 L 3.389425,7.2418365 3.440105,7.1909295 3.288063,7.089116 3.313413,7.1909295 C 3.204118,7.0774309 3.185443,6.9344827 3.212051,6.7836699 L 3.034669,6.7073159 3.009319,6.7836699 C 2.977629,6.6577001 2.990669,6.4949757 3.085349,6.4018655 2.946464,6.3067205 2.852679,6.3960055 2.755924,6.5036788 L 2.553194,6.096421 c -0.05583,0.1249271 -0.03564,0.2495988 -0.02535,0.3818045 l -0.05068,0 C 2.465974,6.3357872 2.430944,6.1801381 2.502834,6.0458954 2.637173,5.7950246 3.040304,5.6887558 3.288052,5.7400708 l -0.02534,0.050906 0.228064,0.2036287 C 3.491776,5.6053946 3.644059,5.564262 3.858235,5.2809118 L 4.008174,5.0076423 C 4.174381,4.8240191 4.432396,4.6989401 4.655416,4.6163693 L 4.935173,4.441935 C 4.844703,4.2846571 4.606382,4.3299141 4.453707,4.3401216 4.728244,4.1831996 5.101887,4.2679126 5.289937,3.9837705 5.084782,3.8338235 5.084706,3.4425253 4.757791,3.601966 L 4.808471,3.4492448 4.529728,3.321977 4.326422,3.7476881 4.048262,4.085585 4.022922,3.9074105 C 3.915733,3.8573935 3.620442,3.7699089 3.614689,3.6273439 3.608489,3.4724076 4.084956,3.2378192 4.200304,3.1438014 l -0.05068,0.1272678 0.196388,-0.018382 c 0.04163,-0.026411 0.437094,-0.5859725 0.4878,-0.2361537 0.274765,0.1046085 0.305731,0.224 0.582828,0.050907 L 5.239257,2.9910745 C 5.211307,2.7396897 4.99039,2.7366761 4.783131,2.7365379 L 5.441979,2.4310945 c 0.07336,0.1807236 0.303476,0.2177326 0.377926,0.3841818 0.05289,0.1182652 -0.104301,0.1895837 -0.100318,0.303066 0.0049,0.1399145 0.140258,0.3112732 0.203862,0.4327123 L 6.304644,3.1325435 C 6.514994,3.0198885 6.853186,3.0076891 7.0207101,2.8256674 7.214665,2.6149065 7.1080321,2.2796559 7.4692084,2.2783736 c -0.073284,-0.030964 -0.191319,-0.054475 -0.2534033,0 l -0.076014,-0.076366 0.1013602,0 C 7.1881673,2.1290136 7.1523793,2.0897195 7.0637679,2.0747406 6.9619492,1.9482914 6.727629,2.0078906 6.582302,1.9940516 6.07618,1.9458666 5.529513,2.1093259 5.061883,2.269801 3.466456,2.817281 2.038149,4.5794226 1.975779,6.3254913 1.968679,6.5237239 2.136465,6.6117675 2.219601,6.7635225 l 0.0295,0.27467 M 8.9642871,2.7619828 C 8.8752131,2.8352398 8.7235028,2.8716726 8.6095223,2.8892506 L 8.4030737,3.1753499 8.1614291,3.3775532 c -0.038851,0.092706 0.02349,0.232901 0.042645,0.3262132 l 0.253402,-0.1272678 c 0.036445,0.1264796 0.1350138,0.1589832 0.228064,0.2290833 0.1502172,-0.2863285 0.020882,-0.5599215 0.3801044,-0.7127024 l -0.2280633,0.2799901 0.076025,-0.050906 0.025348,0.1527211 0.025348,-0.2036289 c 0.066926,0.2296171 -0.00306,0.5455224 -0.2534038,0.6321915 l -0.2534037,-0.021302 0,-0.1527213 C 8.3133546,3.759434 8.3181442,3.8315493 8.3561298,3.9583052 8.2583128,3.9303862 8.2001607,3.9352962 8.1280675,4.0092122 8.0506565,3.9293082 7.9875045,3.8679955 7.9760252,3.7546755 7.9268142,3.7054435 7.9050752,3.6719035 7.9000102,3.6019532 L 7.7226279,3.5765052 7.7986539,3.9837629 C 7.7310444,3.8563677 7.6609,3.8257984 7.5199067,3.8564953 L 7.5959327,4.1619387 7.697293,4.1364817 7.621278,4.1110327 7.7226383,3.9328574 7.7733173,4.2128473 8.0013807,4.1619413 c -0.063884,0.061321 -0.1146143,0.07623 -0.2027234,0.076366 l 0.025346,0.076365 -0.1267023,0 0.1773823,0.3054434 C 7.4594829,4.6235757 7.454567,4.8369042 7.4692386,5.1800959 7.5502776,5.1859559 7.590011,5.1980189 7.646621,5.2564619 7.9819246,5.0789972 8.0594402,4.7490677 8.457511,4.6455732 8.522108,4.8473439 8.7215321,4.8348722 8.660233,5.0782854 8.8558102,5.0381924 8.9105458,4.872925 8.7869351,4.7219342 8.9535734,4.8216332 9.0015924,5.0264103 9.1163595,5.1800999 9.1971475,5.0735507 9.1656185,4.9517293 9.2937418,4.8746564 l 0,0.076366 C 9.5083997,5.1423572 9.6564366,5.1853228 9.927249,5.2819199 9.834175,5.4146335 9.7219421,5.5448533 9.5471453,5.5339591 9.3331711,5.5206441 9.0601291,5.3098408 8.913636,5.5619091 L 8.5059112,5.2373495 C 8.2797484,5.1415445 8.0571083,5.2316995 7.8240028,5.2055575 l -0.1013602,0.050907 0.050681,0.025458 C 7.3090626,5.4917374 7.0517073,6.0443102 7.0034085,6.5036964 l -0.088617,0.3054445 c 0.049368,0.2982654 0.3007078,0.6072973 0.5119957,0.8102647 0.148773,0.1428967 0.2557089,-0.1369144 0.3972099,0.0043 0.18729,-0.071216 0.4699867,-0.1949999 0.6417686,0.00378 0.11284,0.1306018 -0.0046,0.2382964 0.034567,0.3780369 0.067732,0.2417845 0.2291271,0.5249558 0.2287468,0.7890624 l -0.06353,0.6363388 c 0.055513,0.3876832 0.270077,0.7137203 0.2734218,1.1199613 0.3106981,-0.03215 0.6598371,-0.189173 0.8323801,-0.458166 L 9.8454444,9.8659232 9.9734641,9.7086184 9.9252511,9.4586634 C 9.9977781,9.2838158 10.290958,9.2652085 10.335126,9.0741792 10.395276,8.8141195 10.238096,8.5055713 10.331826,8.2345911 10.476368,7.816796 10.879102,7.5111997 10.890174,7.0382709 l -0.304084,0.025458 c 0.2735,-0.3371325 0.853183,-0.5067557 0.557487,-1.0181446 l -0.126701,0.1527211 -0.05068,0 c -0.09785,-0.2062307 -0.253237,-0.2275356 -0.253439,-0.4836245 0.23721,0.2050798 0.483009,0.2116213 0.709529,0.4581654 0.245401,-0.1334282 -0.0017,-0.7150176 -0.06769,-0.9163301 C 11.135287,4.58734 10.775708,3.9529846 10.281902,3.4493086 10.105356,3.2692289 9.9643119,3.0511779 9.6991514,3.0165964 l 0.025348,-0.076366 C 9.518531,2.9128465 9.1739281,2.9111084 9.014968,2.7620553 l -0.050678,0 z"
     id="path18"
     inkscape:connector-curvature="0" />
  <path
     sodipodi:type="arc"
     style="opacity:0;fill:#8f6b32;fill-opacity:1;fill-rule:evenodd;stroke:none"
     id="path2991"
     sodipodi:cx="-37.89613"
     sodipodi:cy="21.537428"
     sodipodi:rx="17.473927"
     sodipodi:ry="17.545835"
     d="m -20.422203,21.537428 a 17.473927,17.545835 0 1 1 -34.947853,0 17.473927,17.545835 0 1 1 34.947853,0 z"
     transform="matrix(0.28222223,0,0,0.28222223,16.933334,0)" />
  <path
     style="fill:#b48c0e;fill-opacity:1;fill-rule:evenodd"
     d="M 3.28125 23.25 L 3.28125 24.5625 C 4.4454441 27.729114 13.297897 30.15625 24.09375 30.15625 C 34.962052 30.15625 43.840596 27.6977 44.90625 24.5 L 44.90625 23.25 L 42.84375 23.25 C 42.90147 23.432537 42.9375 23.625218 42.9375 23.8125 L 42.9375 23.875 C 42.9375 27.033709 34.536126 29.5625 24.09375 29.5625 C 13.65137 29.5625 5.21875 27.033709 5.21875 23.875 L 5.21875 23.8125 C 5.21875 23.625219 5.2545705 23.432536 5.3125 23.25 L 3.28125 23.25 z "
     transform="scale(0.28222223,0.28222223)"
     id="use3065-7-7" />
  <path
     sodipodi:type="arc"
     style="opacity:0;fill:#8f6b32;fill-opacity:1;fill-rule:evenodd;stroke:none"
     id="path2993"
     sodipodi:cx="-72.484436"
     sodipodi:cy="20.386881"
     sodipodi:rx="19.127838"
     sodipodi:ry="28.619848"
     d="m -53.356598,20.386881 a 19.127838,28.619848 0 1 1 -38.255676,0 19.127838,28.619848 0 1 1 38.255676,0 z"
     transform="scale(0.28222223,0.28222223)" />
</svg>
