<?xml version="1.0" encoding="UTF-8" standalone="no"?>
<svg
   xmlns:dc="http://purl.org/dc/elements/1.1/"
   xmlns:cc="http://creativecommons.org/ns#"
   xmlns:rdf="http://www.w3.org/1999/02/22-rdf-syntax-ns#"
   xmlns:svg="http://www.w3.org/2000/svg"
   xmlns="http://www.w3.org/2000/svg"
   xmlns:xlink="http://www.w3.org/1999/xlink"
   xmlns:sodipodi="http://sodipodi.sourceforge.net/DTD/sodipodi-0.dtd"
   xmlns:inkscape="http://www.inkscape.org/namespaces/inkscape"
   width="48"
   viewBox="0 0 13.546667 13.546667"
   height="48"
   id="svg2"
   version="1.1"
   inkscape:version="0.48.4 r9939"
   sodipodi:docname="gnome-sudoku.svg">
  <metadata
     id="metadata30">
    <rdf:RDF>
      <cc:Work
         rdf:about="">
        <dc:format>image/svg+xml</dc:format>
        <dc:type
           rdf:resource="http://purl.org/dc/dcmitype/StillImage" />
        <dc:title />
      </cc:Work>
    </rdf:RDF>
  </metadata>
  <sodipodi:namedview
     pagecolor="#333333"
     bordercolor="#666666"
     borderopacity="1"
     objecttolerance="10"
     gridtolerance="10"
     guidetolerance="10"
     inkscape:pageopacity="1"
     inkscape:pageshadow="2"
     inkscape:window-width="1920"
     inkscape:window-height="1143"
     id="namedview28"
     showgrid="false"
     inkscape:zoom="10.551073"
     inkscape:cx="14.142573"
     inkscape:cy="33.870544"
     inkscape:window-x="0"
     inkscape:window-y="29"
     inkscape:window-maximized="1"
     inkscape:current-layer="svg2" />
  <defs
     id="defs4">
    <linearGradient
       id="linearGradient4460-5">
      <stop
         offset="0"
         style="stop-color:#dedede;stop-opacity:1;"
         id="stop7" />
      <stop
         offset="1"
         style="stop-color:#f9f9f9;stop-opacity:1;"
         id="stop9" />
    </linearGradient>
    <linearGradient
       gradientTransform="matrix(1.10525 0 0 1.10525 -134.27874 -295.76183)"
       xlink:href="#linearGradient4460-5"
       id="linearGradient2994"
       y1="279.096"
       y2="268.33"
       gradientUnits="userSpaceOnUse"
       x2="0" />
    <linearGradient
       inkscape:collect="always"
       xlink:href="#linearGradient4460-5"
       id="linearGradient3024"
       gradientUnits="userSpaceOnUse"
       gradientTransform="matrix(1.0789649,0,0,1.0789649,-125.27996,-288.56709)"
       y1="279.096"
       x2="0"
       y2="268.33" />
    <linearGradient
       inkscape:collect="always"
       xlink:href="#linearGradient4460-5"
       id="linearGradient3781"
       x1="0.90000671"
       y1="6.7739425"
       x2="12.646007"
       y2="6.7739425"
       gradientUnits="userSpaceOnUse"
       gradientTransform="translate(-13.546949,-9.355545e-4)" />
    <linearGradient
       inkscape:collect="always"
       xlink:href="#linearGradient4460-5"
       id="linearGradient3790"
       gradientUnits="userSpaceOnUse"
       gradientTransform="matrix(0,-3.543307,3.543307,0,-0.00331496,48.000999)"
       x1="0.90000671"
       y1="6.7739425"
       x2="12.646007"
       y2="6.7739425" />
    <linearGradient
       inkscape:collect="always"
       xlink:href="#linearGradient4460-5"
       id="linearGradient3799"
       gradientUnits="userSpaceOnUse"
       gradientTransform="matrix(0,-3.543307,3.543307,0,-0.00331482,48.000999)"
       x1="0.90000671"
       y1="6.7739425"
       x2="12.646007"
       y2="6.7739425" />
    <linearGradient
       inkscape:collect="always"
       xlink:href="#linearGradient4460-5"
       id="linearGradient3801"
       gradientUnits="userSpaceOnUse"
       gradientTransform="translate(-13.546949,-9.3558333e-4)"
       x1="0.90000671"
       y1="6.7739425"
       x2="12.646007"
       y2="6.7739425" />
    <linearGradient
       inkscape:collect="always"
       xlink:href="#linearGradient4460-5"
       id="linearGradient3804"
       gradientUnits="userSpaceOnUse"
       gradientTransform="matrix(0,-3.543307,3.543307,0,-0.00331496,48.000999)"
       x1="0.90000671"
       y1="6.7739425"
       x2="12.646007"
       y2="6.7739425" />
    <linearGradient
       inkscape:collect="always"
       xlink:href="#linearGradient4460-5"
       id="linearGradient3807"
       gradientUnits="userSpaceOnUse"
       gradientTransform="matrix(0,-3.543307,3.543307,0,-0.00331496,48.000999)"
       x1="0.90000671"
       y1="6.7739425"
       x2="12.646007"
       y2="6.7739425" />
  </defs>
  <rect
     id="rect3793"
     style="fill:url(#linearGradient3801);fill-opacity:1;fill-rule:evenodd"
     height="11.746"
     rx="0.20000002"
     y="0.90000665"
     x="-12.646942"
     width="11.746"
     transform="matrix(0,-1,1,0,0,0)" />
  <rect
     id="rect14"
     style="opacity:0.5;fill:#ffffff;fill-rule:evenodd"
     height="12.982"
     rx="0.2"
     y="0.28299999"
     x="0.28200001"
     width="12.982" />
  <rect
     style="fill:#7facdd;fill-opacity:1;stroke:none"
     id="rect3840"
     width="4.4715614"
     height="4.4482722"
     x="4.5372195"
     y="4.5498638" />
  <g
     id="g3810"
     transform="translate(-0.14144445,0)">
    <path
       id="rect42"
       transform="scale(0.28222223,0.28222223)"
       d="m 16,3.1875 0,41.625 1,0 0,-41.625 -1,0 z"
       style="fill:#382509;fill-opacity:1;fill-rule:evenodd"
       inkscape:connector-curvature="0" />
    <path
       id="rect3795"
       transform="scale(0.28222223,0.28222223)"
       d="m 32,3.1875 0,41.625 1,0 0,-41.625 -1,0 z"
       style="fill:#382509;fill-opacity:1;fill-rule:evenodd"
       inkscape:connector-curvature="0" />
  </g>
  <g
     id="g3814"
     transform="translate(0,0.14177776)">
    <path
       id="rect3783"
       transform="scale(0.28222223,0.28222223)"
       d="m 3.1875,31 0,1 41.625,0 0,-1 -41.625,0 z"
       style="fill:#382509;fill-opacity:1;fill-rule:evenodd"
       inkscape:connector-curvature="0" />
    <path
       id="rect3797"
       transform="scale(0.28222223,0.28222223)"
       d="m 3.1875,15 0,1 41.625,0 0,-1 -41.625,0 z"
       style="fill:#382509;fill-opacity:1;fill-rule:evenodd"
       inkscape:connector-curvature="0" />
  </g>
  <g
     transform="matrix(1.0142926,0,0,0.98590879,-0.28255531,-0.45745166)"
     style="font-size:3.55783486px;font-style:normal;font-variant:normal;font-weight:normal;font-stretch:normal;line-height:125%;letter-spacing:0px;word-spacing:0px;fill:#2d2d2d;fill-opacity:1;stroke:none;font-family:Open Sans;-inkscape-font-specification:Sans"
     id="text3809">
    <path
       d="m 7.7908704,4.0075827 -1.6694723,0 0,-0.2484231 0.6688313,-0.6723057 C 6.9940626,2.8807045 7.1284078,2.7336196 7.1932654,2.645599 7.2581204,2.5575811 7.3067626,2.4718781 7.3391922,2.3884898 7.3716189,2.3051048 7.387833,2.2153483 7.3878344,2.1192201 7.387833,1.9837187 7.3467187,1.87659 7.2644915,1.7978337 7.1822617,1.7179237 7.0681841,1.6779675 6.9222584,1.6779652 6.8168659,1.6779675 6.7166861,1.6953398 6.6217186,1.7300819 6.527908,1.7648287 6.4230955,1.8279477 6.3072811,1.9194394 L 6.1544054,1.723133 C 6.3883511,1.5285664 6.6431437,1.431282 6.918784,1.4312794 c 0.2385775,2.6e-6 0.4256184,0.061384 0.5611233,0.1841457 0.1355018,0.121608 0.2032535,0.285486 0.2032552,0.4916344 -1.7e-6,0.1609846 -0.04517,0.3202299 -0.1355034,0.4777367 -0.090337,0.1575095 -0.2594268,0.356711 -0.5072695,0.597605 l -0.5559117,0.5437512 0,0.013898 1.3063925,0 0,0.2675325"
       id="path3898"
       inkscape:connector-curvature="0" />
  </g>
  <g
     transform="matrix(1.0362978,0,0,0.96497359,-0.28255582,0)"
     style="font-size:3.63747525px;font-style:normal;font-variant:normal;font-weight:normal;font-stretch:normal;line-height:125%;letter-spacing:0px;word-spacing:0px;fill:#2d2d2d;fill-opacity:1;stroke:none;font-family:Open Sans;-inkscape-font-specification:Sans"
     id="text3813">
    <path
       d="m 6.7444851,6.5674659 c 0.2735199,1.6e-6 0.4884291,0.068086 0.6447283,0.2042528 0.1574801,0.1349856 0.2362209,0.320293 0.2362228,0.5559227 -1.9e-6,0.2687853 -0.085847,0.4795503 -0.2575361,0.6322955 -0.1705081,0.1527456 -0.4061386,0.2291183 -0.7068922,0.2291183 -0.2924669,0 -0.5156646,-0.046771 -0.6695938,-0.1403128 l 0,-0.2841777 c 0.082885,0.053284 0.1858992,0.095318 0.3090433,0.1261039 0.123143,0.029602 0.2445105,0.044403 0.3641027,0.044403 0.2083959,3e-7 0.3700219,-0.049139 0.4848783,-0.1474172 0.1160378,-0.098278 0.1740573,-0.2403664 0.1740589,-0.4262666 -1.6e-6,-0.3623255 -0.2220152,-0.5434886 -0.6660416,-0.54349 -0.1124878,1.4e-6 -0.2628651,0.01717 -0.4511322,0.051507 L 6.053578,6.7717188 6.151264,5.5568589 l 1.2912326,0 0,0.2717449 -1.0390249,0 -0.065716,0.7797127 c 0.1361678,-0.027232 0.2717441,-0.040849 0.4067294,-0.04085"
       id="path3895"
       inkscape:connector-curvature="0" />
  </g>
  <g
     transform="matrix(1.025585,0,0,0.97505325,-0.14144415,0.56444446)"
     style="font-size:3.62925935px;font-style:normal;font-variant:normal;font-weight:normal;font-stretch:normal;line-height:125%;letter-spacing:0px;word-spacing:0px;fill:#2d2d2d;fill-opacity:1;stroke:none;font-family:Open Sans;-inkscape-font-specification:Sans"
     id="text3817">
    <path
       d="m 7.7050875,11.561176 -0.3845456,0 0,0.595425 -0.2817638,0 0,-0.595425 -1.2599626,0 0,-0.256955 1.2298369,-1.752606 0.3118895,0 0,1.741974 0.3845456,0 0,0.267587 m -0.6663094,-0.267587 0,-0.861241 c -1.3e-6,-0.168938 0.00591,-0.359734 0.017721,-0.5723877 l -0.014177,0 C 6.9856139,9.9733768 6.9324509,10.067298 6.8828334,10.141724 l -0.8098494,1.151865 0.9657941,0"
       id="path3892"
       inkscape:connector-curvature="0" />
  </g>
</svg>
