<?xml version="1.0" encoding="UTF-8" standalone="no"?>
<svg
   xmlns:dc="http://purl.org/dc/elements/1.1/"
   xmlns:cc="http://creativecommons.org/ns#"
   xmlns:rdf="http://www.w3.org/1999/02/22-rdf-syntax-ns#"
   xmlns:svg="http://www.w3.org/2000/svg"
   xmlns="http://www.w3.org/2000/svg"
   xmlns:xlink="http://www.w3.org/1999/xlink"
   xmlns:sodipodi="http://sodipodi.sourceforge.net/DTD/sodipodi-0.dtd"
   xmlns:inkscape="http://www.inkscape.org/namespaces/inkscape"
   width="48"
   viewBox="0 0 13.546667 13.546667"
   height="48"
   id="svg2"
   version="1.1"
   inkscape:version="0.48.4 r9939"
   sodipodi:docname="nvidia-current-updates-settings.svg">
  <metadata
     id="metadata34">
    <rdf:RDF>
      <cc:Work
         rdf:about="">
        <dc:format>image/svg+xml</dc:format>
        <dc:type
           rdf:resource="http://purl.org/dc/dcmitype/StillImage" />
      </cc:Work>
    </rdf:RDF>
  </metadata>
  <sodipodi:namedview
     pagecolor="#ffffff"
     bordercolor="#666666"
     borderopacity="1"
     objecttolerance="10"
     gridtolerance="10"
     guidetolerance="10"
     inkscape:pageopacity="0"
     inkscape:pageshadow="2"
     inkscape:window-width="1920"
     inkscape:window-height="1143"
     id="namedview32"
     showgrid="false"
     inkscape:zoom="4.9166667"
     inkscape:cx="-10.983051"
     inkscape:cy="23.59322"
     inkscape:window-x="0"
     inkscape:window-y="29"
     inkscape:window-maximized="1"
     inkscape:current-layer="svg2" />
  <defs
     id="defs4">
    <linearGradient
       xlink:href="#linearGradient4460"
       id="linearGradient5454"
       y1="42"
       y2="19"
       x2="0"
       gradientUnits="userSpaceOnUse" />
    <linearGradient
       gradientTransform="matrix(.67324 0 0 .67324 2.21393 2.09317)"
       xlink:href="#linearGradient3799"
       id="linearGradient5456"
       y1="14.078"
       y2=".245"
       gradientUnits="userSpaceOnUse"
       x2="0" />
    <linearGradient
       gradientTransform="matrix(1.09547,0,0,1.10525,-132.97763,-295.7623)"
       xlink:href="#linearGradient3799"
       id="linearGradient5406"
       y1="279.096"
       y2="268.33"
       gradientUnits="userSpaceOnUse"
       x2="0" />
    <linearGradient
       id="linearGradient4460">
      <stop
         offset="0"
         style="stop-color:#2d2d2d"
         id="stop10" />
      <stop
         offset="1"
         style="stop-color:#4b4b4b"
         id="stop12" />
    </linearGradient>
    <linearGradient
       id="linearGradient3799">
      <stop
         offset="0"
         style="stop-color:#619603"
         id="stop15" />
      <stop
         offset="1"
         style="stop-color:#ddfda4"
         id="stop17" />
    </linearGradient>
    <linearGradient
       gradientTransform="matrix(1.10525,0,0,1.10525,-134.27874,-295.76214)"
       xlink:href="#linearGradient4460"
       id="linearGradient3790"
       y1="279.096"
       y2="268.33"
       gradientUnits="userSpaceOnUse"
       x2="0" />
    <linearGradient
       inkscape:collect="always"
       xlink:href="#linearGradient3799"
       id="linearGradient3012"
       gradientUnits="userSpaceOnUse"
       gradientTransform="matrix(3.1325663,0,0,1.10525,-392.85348,-295.7623)"
       y1="279.096"
       x2="0"
       y2="268.33" />
    <linearGradient
       inkscape:collect="always"
       xlink:href="#linearGradient4460"
       id="linearGradient3015"
       gradientUnits="userSpaceOnUse"
       gradientTransform="matrix(1.10525,0,0,1.10525,-134.27874,-295.76214)"
       y1="279.096"
       x2="0"
       y2="268.33" />
    <linearGradient
       inkscape:collect="always"
       xlink:href="#linearGradient3799"
       id="linearGradient3802"
       gradientUnits="userSpaceOnUse"
       gradientTransform="matrix(3.1325663,0,0,1.8331546,-392.85348,-495.00865)"
       y1="279.096"
       x2="0"
       y2="268.33" />
    <linearGradient
       inkscape:collect="always"
       xlink:href="#linearGradient4460"
       id="linearGradient3804"
       gradientUnits="userSpaceOnUse"
       gradientTransform="matrix(3.9162401,0,0,3.9162401,-475.7908,-1047.9761)"
       y1="279.096"
       x2="0"
       y2="268.33" />
    <linearGradient
       inkscape:collect="always"
       xlink:href="#linearGradient3799"
       id="linearGradient3807"
       gradientUnits="userSpaceOnUse"
       gradientTransform="matrix(3.9162401,0,0,3.9162401,-475.7908,-1047.9761)"
       y1="279.09601"
       x2="0"
       y2="268.32999" />
  </defs>
  <rect
     id="rect22"
     style="opacity:0.5;fill:#ffffff;fill-rule:evenodd"
     height="12.982"
     rx="0.2"
     y="0.28200001"
     x="0.28200001"
     width="12.982" />
  <rect
     id="rect24"
     style="fill:url(#linearGradient3015);fill-rule:evenodd"
     height="11.853"
     rx="0.2"
     y="0.847"
     x="0.847"
     width="11.853" />
  <path
     style="fill:url(#linearGradient5456)"
     d="m 6.7740312,4.0347751 0,0.7125163 c 0.011792,-9.088e-4 0.02383,-0.00512 0.035626,-0.00594 l 0,-0.7065786 -0.035626,0 z m 0,0.7125163 C 5.1783453,4.8754427 3.7992757,6.2257627 3.7992757,6.2257627 c 0,0 0.7798972,2.2629055 2.9747555,2.4700566 l 0,-0.4096969 C 5.1633401,8.0834915 4.6127318,6.3088896 4.6127318,6.3088896 c 0,0 0.7206639,-1.0655193 2.1612994,-1.1756518 l 0,-0.3859464 z m 0,0.3859464 0,0.4750108 c 0.011585,-0.00123 0.023978,0.00112 0.035626,0 l 0,-0.4750108 c -0.011564,7.001e-4 -0.024116,-8.012e-4 -0.035626,0 z m 0,0.4750108 C 5.8032948,5.7132511 5.2183707,6.3623283 5.2183707,6.3623283 c 0,0 0.338336,1.2614448 1.5556605,1.4784714 l 0,-0.3740711 C 6.0877475,7.2361395 5.865573,6.43358 5.865573,6.43358 c 0,0 0.3989637,-0.4767766 0.9084582,-0.4156345 l 0,-0.4096969 z m 0,1.85848 c 0.011342,0.00381 0.024034,0.00838 0.035626,0.011875 l 0,-1.4487832 c -0.01259,-0.0018 -0.022504,-0.00435 -0.035626,-0.00594 l 0,1.4428455 z m 0,0.3740711 0,0.4453227 c 0.011623,0.00148 0.023901,-0.00133 0.035626,0 l 0,-0.4393851 c -0.011597,-0.00186 -0.024178,-0.00391 -0.035626,-0.00594 z m 0,0.8550196 0,0.6175143 0.035626,0 0,-0.6175143 c -0.011506,-0.00102 -0.024167,0.0011 -0.035626,0 z"
     id="path28" />
  <path
     style="fill:url(#linearGradient3807);fill-rule:evenodd;fill-opacity:1"
     d="M 24 3 L 24 45 L 44.28125 45 C 44.673848 45 45 44.673848 45 44.28125 L 45 3.71875 C 45 3.3261516 44.673848 3 44.28125 3 L 24 3 z "
     transform="scale(0.28222223,0.28222223)"
     id="rect3018" />
  <path
     style="fill:url(#linearGradient5454);fill-rule:evenodd"
     d="m 39.46875,26.15625 c -26.3125,14.5625 -13.15625,7.28125 0,0 z m 0,0 C 39.013081,25.694445 36.791439,24.65238 36.25,24.21875 32.98431,27.037631 29.601099,29.4375 24.9375,29.4375 24.608405,29.4375 24.306889,29.409724 24,29.375 l 0,1.4375 c 0.334057,0.02963 0.678804,0.0625 1.03125,0.0625 4.10262,0 11.33245,-2.119129 14.4375,-4.71875 z M 24.375,16.78125 c -0.124875,0.0043 -0.250761,0.0226 -0.375,0.03125 l 0,1.375 c 0.12406,-0.0076 0.247926,-0.02721 0.375,-0.03125 4.622361,-0.145188 7.65625,3.96875 7.65625,3.96875 0,0 -3.269267,4.53125 -6.78125,4.53125 -0.455626,0 -0.87423,-0.07404 -1.25,-0.1875 l 0,1.3125 c 0.368055,0.05902 0.743076,0.125 1.15625,0.125 5.011573,0 9.8125,-5.84375 9.8125,-5.84375 0,0 -4.165755,-5.497895 -10.59375,-5.28125 z m 0.4375,3.03125 C 24.534341,19.812401 24.262811,19.849524 24,19.875 l 0,1.4375 c 1.68205,0.241172 2.071091,1.086869 3.125,2.84375 L 29.53125,22.125 c 0,0 -1.757864,-2.3125 -4.71875,-2.3125 z"
     transform="scale(.28222)"
     id="path30" />
</svg>
