<?xml version="1.0" encoding="UTF-8" standalone="no"?>
<svg
   xmlns:dc="http://purl.org/dc/elements/1.1/"
   xmlns:cc="http://creativecommons.org/ns#"
   xmlns:rdf="http://www.w3.org/1999/02/22-rdf-syntax-ns#"
   xmlns:svg="http://www.w3.org/2000/svg"
   xmlns="http://www.w3.org/2000/svg"
   xmlns:sodipodi="http://sodipodi.sourceforge.net/DTD/sodipodi-0.dtd"
   xmlns:inkscape="http://www.inkscape.org/namespaces/inkscape"
   width="48"
   height="48"
   viewBox="0 0 48 48"
   id="svg2"
   version="1.1"
   inkscape:version="0.48.4 r9939"
   sodipodi:docname="preferences-calendar-and-tasks.svg">
  <metadata
     id="metadata14">
    <rdf:RDF>
      <cc:Work
         rdf:about="">
        <dc:format>image/svg+xml</dc:format>
        <dc:type
           rdf:resource="http://purl.org/dc/dcmitype/StillImage" />
      </cc:Work>
    </rdf:RDF>
  </metadata>
  <defs
     id="defs12" />
  <sodipodi:namedview
     pagecolor="#ffffff"
     bordercolor="#666666"
     borderopacity="1"
     objecttolerance="10"
     gridtolerance="10"
     guidetolerance="10"
     inkscape:pageopacity="0"
     inkscape:pageshadow="2"
     inkscape:window-width="1920"
     inkscape:window-height="1143"
     id="namedview10"
     showgrid="false"
     inkscape:zoom="4.9166667"
     inkscape:cx="24.40678"
     inkscape:cy="23.59322"
     inkscape:window-x="0"
     inkscape:window-y="29"
     inkscape:window-maximized="1"
     inkscape:current-layer="svg2" />
  <rect
     id="rect40"
     style="opacity:0.5;fill:#ffffff;fill-rule:evenodd"
     height="45.999214"
     rx="0.70866144"
     y="1.0027858"
     x="0.99900001"
     width="45.999214" />
  <rect
     id="rect42"
     style="fill:#eeeeec;fill-rule:evenodd"
     height="41.619686"
     rx="0.70866144"
     y="3.192548"
     x="3.188766"
     width="41.619686" />
  <g
     style="fill:#5497ee"
     id="g4">
    <path
       d="M 12.578125 5.257812 C 12.335938 5.335938 12.160156 5.589844 12.171875 5.84375 L 12.171875 8.773438 L 9.808594 8.773438 C 9.734375 8.761719 9.660156 8.761719 9.585938 8.773438 C 9.042969 8.875 8.617188 9.398438 8.625 9.945312 L 8.625 41.578125 C 8.625 42.191406 9.1875 42.75 9.808594 42.75 L 38.191406 42.75 C 38.8125 42.75 39.375 42.191406 39.375 41.578125 L 39.375 9.945312 C 39.375 9.332031 38.8125 8.773438 38.191406 8.773438 L 35.828125 8.773438 L 35.828125 5.84375 C 35.828125 5.535156 35.546875 5.257812 35.234375 5.257812 L 31.6875 5.257812 C 31.625 5.246094 31.5625 5.246094 31.503906 5.257812 C 31.257812 5.335938 31.082031 5.589844 31.097656 5.84375 L 31.097656 8.773438 L 16.902344 8.773438 L 16.902344 5.84375 C 16.902344 5.535156 16.621094 5.257812 16.3125 5.257812 L 12.765625 5.257812 C 12.703125 5.246094 12.640625 5.246094 12.578125 5.257812 Z M 13.355469 6.429688 L 15.722656 6.429688 L 15.722656 11.117188 C 15.722656 12.835938 13.355469 12.835938 13.355469 11.117188 Z M 32.277344 6.429688 L 34.644531 6.429688 L 34.644531 11.117188 C 34.644531 12.871094 32.277344 12.835938 32.277344 11.117188 Z M 10.992188 16.972656 L 37.007812 16.972656 L 37.007812 40.40625 L 10.992188 40.40625 Z "
       id="path6" />
    <path
       d="M 16.902344 20.488281 L 31.097656 20.488281 L 31.097656 24.003906 L 24 36.890625 L 19.269531 36.890625 L 26.367188 24.003906 L 16.902344 24.003906 L 16.902344 20.488281 "
       id="path8" />
  </g>
</svg>
