<?xml version="1.0" encoding="UTF-8" standalone="no"?>
<svg
   xmlns:dc="http://purl.org/dc/elements/1.1/"
   xmlns:cc="http://creativecommons.org/ns#"
   xmlns:rdf="http://www.w3.org/1999/02/22-rdf-syntax-ns#"
   xmlns:svg="http://www.w3.org/2000/svg"
   xmlns="http://www.w3.org/2000/svg"
   xmlns:sodipodi="http://sodipodi.sourceforge.net/DTD/sodipodi-0.dtd"
   xmlns:inkscape="http://www.inkscape.org/namespaces/inkscape"
   width="48"
   height="48"
   viewBox="0 0 48 48"
   id="svg2"
   version="1.1"
   inkscape:version="0.48.4 r9939"
   sodipodi:docname="preferences-system-windows.svg">
  <metadata
     id="metadata10">
    <rdf:RDF>
      <cc:Work
         rdf:about="">
        <dc:format>image/svg+xml</dc:format>
        <dc:type
           rdf:resource="http://purl.org/dc/dcmitype/StillImage" />
      </cc:Work>
    </rdf:RDF>
  </metadata>
  <defs
     id="defs8" />
  <sodipodi:namedview
     pagecolor="#ffffff"
     bordercolor="#666666"
     borderopacity="1"
     objecttolerance="10"
     gridtolerance="10"
     guidetolerance="10"
     inkscape:pageopacity="0"
     inkscape:pageshadow="2"
     inkscape:window-width="1920"
     inkscape:window-height="1143"
     id="namedview6"
     showgrid="false"
     inkscape:zoom="4.9166667"
     inkscape:cx="24.40678"
     inkscape:cy="23.59322"
     inkscape:window-x="0"
     inkscape:window-y="29"
     inkscape:window-maximized="1"
     inkscape:current-layer="svg2" />
  <rect
     id="rect40"
     style="opacity:0.5;fill:#ffffff;fill-rule:evenodd"
     height="45.999214"
     rx="0.70866144"
     y="1.0027858"
     x="0.99900001"
     width="45.999214" />
  <rect
     id="rect42"
     style="fill:#eeeeec;fill-rule:evenodd"
     height="41.619686"
     rx="0.70866144"
     y="3.1925495"
     x="3.1887641"
     width="41.619686" />
  <path
     style="fill:#85b9ab"
     d="M 9.074219 10.011719 C 8.488281 10.070312 7.996094 10.621094 8 11.210938 L 8 36.835938 C 8 37.464844 8.570312 38.035156 9.199219 38.035156 L 38.800781 38.035156 C 39.429688 38.035156 40 37.464844 40 36.835938 L 40 11.210938 C 40 10.582031 39.429688 10.011719 38.800781 10.011719 L 9.199219 10.011719 C 9.160156 10.011719 9.117188 10.011719 9.074219 10.011719 Z M 37 12 C 37.441406 12 38 12.558594 38 13 C 38 13.441406 37.441406 14 37 14 C 36.558594 14 36 13.441406 36 13 C 36 12.558594 36.558594 12 37 12 Z M 10 15 L 38 15 L 38 36 L 10 36 Z "
     id="path4" />
</svg>
