<?xml version="1.0" encoding="UTF-8" standalone="no"?>
<svg
   xmlns:dc="http://purl.org/dc/elements/1.1/"
   xmlns:cc="http://creativecommons.org/ns#"
   xmlns:rdf="http://www.w3.org/1999/02/22-rdf-syntax-ns#"
   xmlns:svg="http://www.w3.org/2000/svg"
   xmlns="http://www.w3.org/2000/svg"
   xmlns:sodipodi="http://sodipodi.sourceforge.net/DTD/sodipodi-0.dtd"
   xmlns:inkscape="http://www.inkscape.org/namespaces/inkscape"
   width="48"
   viewBox="0 0 13.546667 13.546667"
   height="48"
   id="svg2"
   version="1.1"
   inkscape:version="0.48.4 r9939"
   sodipodi:docname="oggconvert.svg">
  <metadata
     id="metadata22">
    <rdf:RDF>
      <cc:Work
         rdf:about="">
        <dc:format>image/svg+xml</dc:format>
        <dc:type
           rdf:resource="http://purl.org/dc/dcmitype/StillImage" />
      </cc:Work>
    </rdf:RDF>
  </metadata>
  <sodipodi:namedview
     pagecolor="#ffffff"
     bordercolor="#666666"
     borderopacity="1"
     objecttolerance="10"
     gridtolerance="10"
     guidetolerance="10"
     inkscape:pageopacity="0"
     inkscape:pageshadow="2"
     inkscape:window-width="1920"
     inkscape:window-height="1143"
     id="namedview20"
     showgrid="false"
     inkscape:zoom="13.906433"
     inkscape:cx="9.0173373"
     inkscape:cy="18.622756"
     inkscape:window-x="0"
     inkscape:window-y="29"
     inkscape:window-maximized="1"
     inkscape:current-layer="svg2" />
  <defs
     id="defs4" />
  <rect
     id="rect8"
     style="opacity:0.5;fill:#ffffff;fill-rule:evenodd"
     height="12.982"
     rx="0.2"
     y="0.28200001"
     x="0.28200001"
     width="12.982" />
  <rect
     id="rect10"
     style="fill:#4cbae9;fill-rule:evenodd"
     height="11.853"
     rx="0.2"
     y="0.847"
     x="0.84974539"
     width="11.853" />
  <rect
     width="7.056"
     x="17.357"
     y="1.724"
     height="7.056"
     style="fill:none"
     id="rect12" />
  <path
     style="fill:#dc50b7;fill-rule:evenodd"
     d="M 34.71875 5.9375 C 29.81831 14.892984 19.442531 33.889703 14.8125 42.875 C 17.586491 44.221518 20.698389 45 24 45 C 35.632691 45 45 35.632691 45 24 C 45 16.292176 40.877277 9.5894383 34.71875 5.9375 z "
     id="path14"
     transform="scale(.28222)" />
  <path
     style="stroke:#000;stroke-width:.282"
     d="m -10.564363,13.405556 c 0.113701,-0.562334 7.0873842,-13.26444491 7.0873842,-13.26444491 l -15.0085712,0 z"
     id="path16" />
  <path
     style="fill:#dc50b7;fill-rule:evenodd;fill-opacity:1"
     d="M 36.3125 3 C 29.536057 15.408529 20.956902 31.181427 13.5625 45 L 44.28125 45 C 44.673848 45 45 44.673848 45 44.28125 L 45 3.71875 C 45 3.3261516 44.673848 3 44.28125 3 L 36.3125 3 z "
     transform="scale(0.28222223,0.28222223)"
     id="rect3011" />
  <path
     style="fill:#f9f9f9;fill-rule:evenodd;fill-opacity:1"
     d="M 31.0625 7.0625 C 30.846865 7.0994177 30.630372 7.235261 30.5 7.34375 C 30.326296 7.4825661 30.296511 7.5967658 30.21875 7.75 C 30.063287 8.051624 29.963919 8.4150896 29.875 8.84375 C 29.697088 9.7019517 29.535604 10.863137 29.4375 12.28125 C 29.240989 15.117509 29.071185 18.839138 28.96875 22.625 C 28.866683 26.41062 28.753768 30.211668 28.5 33.03125 C 28.373001 34.441305 28.25962 35.698346 28.0625 36.46875 C 28.039681 36.558998 27.931106 36.515833 27.90625 36.59375 C 27.732304 36.006348 27.546509 35.112943 27.4375 34 C 27.219258 31.774621 27.211631 28.796481 27.125 25.78125 C 27.038569 22.766548 26.881234 19.734577 26.65625 17.4375 C 26.543401 16.288968 26.435317 15.293778 26.21875 14.5625 C 26.110712 14.195155 25.97545 13.867965 25.78125 13.59375 C 25.587022 13.318102 25.35854 13.0625 24.875 13.0625 C 24.50791 13.0625 24.04527 13.263227 23.8125 13.46875 C 23.579745 13.67317 23.46923 13.892933 23.34375 14.15625 C 23.092636 14.685415 22.99299 15.330165 22.875 16.09375 C 22.638759 17.620404 22.516603 19.57118 22.4375 21.53125 C 22.358286 23.491584 22.29772 25.45966 22.09375 26.875 C 21.991685 27.583048 21.804497 28.201068 21.65625 28.53125 C 21.581805 28.697807 21.524296 28.786411 21.5 28.8125 C 21.467508 28.8125 21.426392 28.711185 21.375 28.65625 C 21.288568 28.560473 21.148129 28.28931 21.0625 27.96875 C 20.891442 27.330381 20.775636 26.36475 20.71875 25.375 C 20.661144 24.385251 20.702725 23.347392 20.4375 22.5 C 20.304406 22.075967 20.152566 21.730774 19.8125 21.40625 C 19.47247 21.082606 18.825531 20.854634 18.28125 20.875 C 17.623169 20.917926 17.210671 21.346301 16.9375 21.8125 C 16.664377 22.278698 16.430981 22.832671 16.3125 23.46875 C 16.075778 24.740475 16.095472 26.385028 16.03125 27.96875 C 15.96763 29.552966 15.914301 31.115648 15.71875 32.21875 C 15.631114 32.715111 15.367627 33.076704 15.25 33.3125 C 15.206783 33.216722 15.137927 33.170837 15.09375 33.03125 C 14.915597 32.470602 14.77472 31.619895 14.65625 30.5625 C 14.419167 28.447422 14.289894 25.637697 14.1875 22.78125 C 14.084272 19.924548 14.088552 17.01739 13.875 14.84375 C 13.768165 13.757348 13.604094 12.818165 13.40625 12.125 C 13.307792 11.779451 13.115782 11.575706 12.9375 11.3125 C 12.759217 11.050174 12.547354 10.625 12.0625 10.625 C 11.60453 10.625 11.149296 10.942564 10.96875 11.1875 C 10.788073 11.432435 10.787159 11.682523 10.6875 12 C 10.488462 12.634625 10.330284 13.455819 10.21875 14.4375 C 9.9958189 16.401368 9.8993583 18.964593 9.78125 21.53125 C 9.6635906 24.09816 9.5476665 26.652706 9.3125 28.53125 C 9.1948803 29.470802 9.0090626 30.210667 8.84375 30.6875 C 8.7452925 30.442569 8.4518129 30.147851 8.375 29.71875 C 8.1829365 28.645997 8.1597546 27.286966 8.0625 25.78125 C 7.9664884 24.275787 7.9174746 22.728746 7.65625 21.53125 C 7.5257621 20.932512 7.2770473 20.343707 7 19.90625 C 6.7230693 19.468783 6.2634525 19.09375 5.625 19.09375 C 5.175196 19.09375 4.7611739 19.393923 4.5625 19.65625 C 4.3640606 19.918791 4.227273 20.133329 4.125 20.46875 C 3.9203102 21.139922 3.7455746 21.997819 3.65625 23.03125 C 3.4777361 25.099123 3.5491106 27.856986 3.5 30.5625 C 3.4514928 33.227464 3.299911 36.08317 3.0625 38.0625 C 3.0625 38.0625 3.0198756 38.191624 3 38.25 L 3 41.15625 C 3.010725 41.159333 3.0200447 41.153774 3.03125 41.15625 C 4.1808492 41.410234 4.4637721 39.202573 4.5625 38.0625 C 4.7778339 35.575913 4.8258047 33.273551 4.875 30.5625 C 4.9242272 27.851206 5.0470803 25.177369 5.21875 23.1875 C 5.3051819 22.192466 5.344098 21.38717 5.5 20.875 C 5.554039 20.695783 5.6083409 20.556157 5.65625 20.46875 C 5.6766949 20.481152 5.7514843 20.497617 5.8125 20.59375 C 5.9506854 20.813364 5.9788583 21.286415 6.09375 21.8125 C 6.323498 22.864885 6.4658793 24.281587 6.5625 25.78125 C 6.6597531 27.281407 6.7859545 28.805012 7 30 C 7.1068378 30.597197 7.2390002 31.093309 7.46875 31.53125 C 7.5840031 31.750861 7.7243013 32.044599 7.9375 32.21875 C 8.1505661 32.39301 8.3966715 32.455541 8.71875 32.46875 C 9.1626693 32.46875 9.5811361 32.182437 9.78125 31.9375 C 9.9813724 31.692565 10.108903 31.410456 10.21875 31.09375 C 10.438074 30.460444 10.564942 29.635157 10.6875 28.65625 C 10.93264 26.698194 11.038264 24.224436 11.15625 21.65625 C 11.273906 19.087578 11.378868 16.454418 11.59375 14.5625 C 11.680178 13.798419 11.756179 13.264127 11.875 12.78125 C 12.002726 13.33045 12.25635 14.077931 12.34375 14.96875 C 12.550364 17.074976 12.709985 19.922281 12.8125 22.78125 C 12.915734 25.639966 13.035622 28.497216 13.28125 30.6875 C 13.404043 31.783038 13.494011 32.731213 13.71875 33.4375 C 13.831601 33.791639 13.991706 33.983491 14.1875 34.25 C 14.383168 34.516836 14.627622 34.918015 15.09375 34.9375 C 15.746675 34.980441 16.359214 34.452988 16.625 34 C 16.890783 33.54701 16.983181 32.966188 17.09375 32.34375 C 17.314753 31.099545 17.498632 29.551205 17.5625 27.96875 C 17.62612 26.386812 17.633646 24.8476 17.84375 23.71875 C 17.948178 23.154358 18.012087 22.746364 18.15625 22.5 C 18.300445 22.255182 18.439964 22.21875 18.46875 22.21875 C 18.641369 22.21875 18.656396 22.257991 18.75 22.34375 C 18.84365 22.432921 18.966285 22.599232 19.0625 22.90625 C 19.254682 23.518306 19.318591 24.516557 19.375 25.5 C 19.431445 26.483255 19.428274 27.558353 19.65625 28.40625 C 19.770263 28.830617 19.979349 29.162817 20.28125 29.5 C 20.583274 29.836742 21.122104 30 21.65625 30 C 22.025504 30 22.338499 29.929336 22.5625 29.71875 C 22.786628 29.514326 22.913262 29.200706 23.03125 28.9375 C 23.267489 28.410976 23.390071 27.793085 23.5 27.03125 C 23.720121 25.507612 23.858519 23.490318 23.9375 21.53125 C 24.016714 19.572423 24.00027 17.631073 24.21875 16.21875 C 24.32799 15.512462 24.531791 15.047413 24.6875 14.71875 C 24.723574 14.807921 24.839081 14.846779 24.875 14.96875 C 25.048941 15.556149 25.203531 16.481061 25.3125 17.59375 C 25.530626 19.819383 25.506957 22.766525 25.59375 25.78125 C 25.680182 28.796459 25.8372 31.827935 26.0625 34.125 C 26.175308 35.273556 26.314686 36.268484 26.53125 37 C 26.639285 37.367579 26.805683 37.663386 27 37.9375 C 27.194269 38.213028 27.578846 38.46875 28.0625 38.46875 C 28.341433 38.46875 28.515595 38.353254 28.6875 38.21875 C 28.85952 38.08251 28.999533 38.001268 29.09375 37.84375 C 29.282325 37.528679 29.44812 37.165678 29.5625 36.71875 C 29.791086 35.825429 29.901602 34.596325 30.03125 33.15625 C 30.290503 30.275319 30.39773 26.414165 30.5 22.625 C 30.603227 18.835846 30.744583 15.06904 30.9375 12.28125 C 31.009539 11.23822 30.989609 10.517269 31.09375 9.8125 C 31.238147 10.652318 31.461428 11.633972 31.5625 12.9375 C 31.799586 15.989565 32.063138 20.100533 32.1875 24.15625 C 32.312015 28.212221 32.431188 32.330235 32.65625 35.375 C 32.769101 36.896865 32.907289 38.107113 33.09375 39.03125 C 33.187357 39.493481 33.225157 39.809174 33.375 40.125 C 33.45065 40.281437 33.564563 40.538777 33.71875 40.6875 C 33.873011 40.836461 34.115666 40.950469 34.4375 40.9375 C 34.89223 40.894555 35.199255 40.651273 35.375 40.40625 C 35.550585 40.161407 35.711509 39.91112 35.8125 39.59375 C 36.014681 38.958134 36.162663 38.133625 36.28125 37.15625 C 36.518545 35.201207 36.618416 32.549241 36.75 30 C 36.881457 27.450516 36.990256 24.914097 37.21875 23.03125 C 37.332738 22.090157 37.498761 21.37026 37.65625 20.875 C 37.747455 21.112228 37.864969 21.251147 37.9375 21.65625 C 38.127315 22.718434 38.155783 24.264426 38.25 25.78125 C 38.344854 27.298326 38.457123 28.788368 38.71875 30 C 38.849746 30.605563 39.033709 31.213994 39.3125 31.65625 C 39.591252 32.098452 40.200388 32.46875 40.84375 32.46875 C 41.209398 32.46875 41.540553 32.268349 41.78125 32.0625 C 42.021911 31.8605 42.087371 31.638756 42.21875 31.375 C 42.48138 30.843083 42.691376 30.264829 42.8125 29.5 C 43.054898 27.970066 43.084781 25.961094 43.15625 24 C 43.227081 22.038907 43.398347 20.103609 43.59375 18.6875 C 43.691014 17.980001 43.791941 17.36142 43.9375 17.03125 C 43.970098 17.097297 44.029016 17.097348 44.0625 17.1875 C 44.228327 17.644672 44.429578 18.465005 44.53125 19.375 C 44.734778 21.195233 44.748331 23.574354 44.8125 26.0625 C 44.866465 28.135135 44.832156 30.36579 44.96875 32.125 C 44.980441 32.094694 44.988474 32.061646 45 32.03125 L 45 17.15625 C 44.802937 16.605175 44.582967 16.073332 44.34375 15.5625 C 44.255167 15.543224 44.167984 15.53125 44.0625 15.53125 C 43.693245 15.53125 43.22365 15.601911 43 15.8125 C 42.776488 16.021987 42.647602 16.361243 42.53125 16.625 C 42.298455 17.152294 42.198873 17.800444 42.09375 18.5625 C 41.883455 20.086149 41.821398 22.041944 41.75 24 C 41.677965 25.958056 41.535824 27.933685 41.3125 29.34375 C 41.200886 30.048278 41.191904 30.518369 41.03125 30.84375 C 40.971226 30.967372 40.759037 30.924933 40.71875 30.96875 C 40.578281 30.746687 40.365133 30.251878 40.25 29.71875 C 40.019667 28.652035 39.875233 27.167779 39.78125 25.65625 C 39.687586 24.144732 39.524517 22.719676 39.3125 21.53125 C 39.206824 20.937575 39.110424 20.3384 38.875 19.90625 C 38.757362 19.691699 38.634329 19.54574 38.40625 19.375 C 38.177955 19.203376 37.853322 19.080548 37.53125 19.09375 C 37.076286 19.09375 36.769962 19.411314 36.59375 19.65625 C 36.417506 19.901075 36.382199 20.151272 36.28125 20.46875 C 36.079104 21.103373 35.931094 21.929116 35.8125 22.90625 C 35.575173 24.860278 35.350311 27.450516 35.21875 30 C 35.087301 32.549254 34.978672 35.116428 34.75 37 C 34.664732 37.703212 34.548824 38.152482 34.4375 38.625 C 34.279224 37.800596 34.106715 36.661118 34 35.21875 C 33.778155 32.219691 33.655497 28.21297 33.53125 24.15625 C 33.406743 20.099784 33.334192 16.037275 33.09375 12.9375 C 32.973592 11.386848 32.854243 10.088506 32.65625 9.125 C 32.557813 8.6430599 32.46302 8.2051476 32.3125 7.875 C 32.236865 7.7084472 32.134325 7.6173588 32 7.46875 C 31.865679 7.3198074 31.55527 7.1062014 31.25 7.0625 C 31.175318 7.0517638 31.13438 7.0501693 31.0625 7.0625 z "
     transform="scale(0.28222223,0.28222223)"
     id="rect3786" />
</svg>
