<?xml version="1.0" encoding="UTF-8" standalone="no"?>
<svg
   xmlns:dc="http://purl.org/dc/elements/1.1/"
   xmlns:cc="http://creativecommons.org/ns#"
   xmlns:rdf="http://www.w3.org/1999/02/22-rdf-syntax-ns#"
   xmlns:svg="http://www.w3.org/2000/svg"
   xmlns="http://www.w3.org/2000/svg"
   xmlns:xlink="http://www.w3.org/1999/xlink"
   xmlns:sodipodi="http://sodipodi.sourceforge.net/DTD/sodipodi-0.dtd"
   xmlns:inkscape="http://www.inkscape.org/namespaces/inkscape"
   width="48"
   viewBox="0 0 13.546667 13.546667"
   height="48"
   id="svg2"
   version="1.1"
   inkscape:version="0.48.4 r9939"
   sodipodi:docname="stock_notes-old.svg">
  <metadata
     id="metadata38">
    <rdf:RDF>
      <cc:Work
         rdf:about="">
        <dc:format>image/svg+xml</dc:format>
        <dc:type
           rdf:resource="http://purl.org/dc/dcmitype/StillImage" />
      </cc:Work>
    </rdf:RDF>
  </metadata>
  <sodipodi:namedview
     pagecolor="#ffffff"
     bordercolor="#666666"
     borderopacity="1"
     objecttolerance="10"
     gridtolerance="10"
     guidetolerance="10"
     inkscape:pageopacity="0"
     inkscape:pageshadow="2"
     inkscape:window-width="1920"
     inkscape:window-height="1137"
     id="namedview36"
     showgrid="false"
     inkscape:zoom="13.906433"
     inkscape:cx="11.118703"
     inkscape:cy="31.306277"
     inkscape:window-x="0"
     inkscape:window-y="27"
     inkscape:window-maximized="1"
     inkscape:current-layer="svg2" />
  <defs
     id="defs4">
    <linearGradient
       id="linearGradient3776">
      <stop
         offset="0"
         style="stop-color:#e2a209"
         id="stop7" />
      <stop
         offset="1"
         style="stop-color:#f0b70b"
         id="stop9" />
    </linearGradient>
    <linearGradient
       xlink:href="#linearGradient3776"
       id="linearGradient3789"
       y1="16"
       y2="3"
       gradientUnits="userSpaceOnUse"
       x2="0" />
    <linearGradient
       inkscape:collect="always"
       xlink:href="#linearGradient3776"
       id="linearGradient3016"
       gradientUnits="userSpaceOnUse"
       y1="16"
       x2="0"
       y2="3"
       gradientTransform="scale(0.9999921,0.9999921)" />
    <linearGradient
       inkscape:collect="always"
       xlink:href="#linearGradient3776"
       id="linearGradient3022"
       gradientUnits="userSpaceOnUse"
       gradientTransform="matrix(0.28222,0,0,-0.28222,0,5.36218)"
       y1="16"
       x2="0"
       y2="3" />
    <linearGradient
       inkscape:collect="always"
       xlink:href="#linearGradient3776"
       id="linearGradient3025"
       gradientUnits="userSpaceOnUse"
       gradientTransform="matrix(1.6309321,0,0,0.9999921,-15.142678,0)"
       y1="16"
       x2="0"
       y2="3" />
    <linearGradient
       inkscape:collect="always"
       xlink:href="#linearGradient3776"
       id="linearGradient3816"
       x1="0.84699929"
       y1="6.7735"
       x2="12.699999"
       y2="6.7735"
       gradientUnits="userSpaceOnUse" />
  </defs>
  <rect
     width="11.853"
     x="0.847"
     y="0.847"
     rx="0.2"
     height="11.853"
     style="fill:#edc54a;fill-rule:evenodd"
     id="rect3027" />
  <rect
     width="11.853"
     x="0.84700024"
     y="0.847"
     rx="0.2"
     height="11.853"
     style="fill:#edc54a;fill-rule:evenodd"
     id="rect3802" />
  <rect
     id="rect14"
     style="opacity:0.5;fill:#ffffff;fill-rule:evenodd"
     height="12.982"
     rx="0.2"
     y="0.28200001"
     x="0.28200001"
     width="12.982" />
  <rect
     id="rect16"
     style="fill:#edc54a;fill-rule:evenodd"
     height="11.853"
     rx="0.2"
     y="0.847"
     x="0.84699929"
     width="11.853" />
  <path
     style="fill:url(#linearGradient3025);fill-rule:evenodd"
     d="M 3.71875 3 C 3.3261516 3 3 3.3261516 3 3.71875 L 3 16 L 24 16 L 45 16 L 45 3.71875 C 45 3.3261516 44.673848 3 44.28125 3 L 24 3 L 3.71875 3 z "
     transform="scale(0.28222223,0.28222223)"
     id="path18" />
  <path
     style="fill:#bb8d03"
     d="M 3 15.9375 L 3 17.4375 L 45 17.4375 L 45 15.9375 L 3 15.9375 z "
     transform="scale(0.28222223,0.28222223)"
     id="path20" />
  <path
     style="fill:#f0d77c;fill-rule:evenodd;fill-opacity:1"
     d="M 3 17 L 3 18 L 45 18 L 45 17 L 3 17 z "
     transform="scale(0.28222223,0.28222223)"
     id="rect3799" />
  <g
     style="opacity:.6;fill:#333;fill-rule:evenodd"
     transform="matrix(1.02892 0 0 1.00004 1.23144 -2.967)"
     id="g24">
    <path
       d="m 7.1359456,8.8555675 c 0.4618442,0.26665 0.7488397,0.66318 0.7162629,0.95468 l -1.8843661,-1.08794 c -0.00573,-0.003 -0.011585,-0.006 -0.017443,-0.009 0.2359092,-0.17454 0.7232724,-0.12443 1.1855459,0.14246 z"
       id="path26" />
    <rect
       width=".681"
       x="-11.725"
       y="4.683"
       rx=".272"
       height="3.487"
       transform="matrix(-.86603 -.5 -.5 .86603 0 0)"
       id="rect28" />
    <rect
       width=".681"
       x="-10.949"
       y="4.683"
       rx=".272"
       height="3.487"
       transform="matrix(-.86603 -.5 -.5 .86603 0 0)"
       id="rect30" />
    <rect
       width=".681"
       x="-10.173"
       y="4.683"
       rx=".272"
       height="3.487"
       transform="matrix(-.86603 -.5 -.5 .86603 0 0)"
       id="rect32" />
    <path
       d="m -119.50798,657.3724 c 4.83364,-8.37211 478.53026,-8.37212 483.3639,-10e-6 4.83364,8.3721 -232.01466,418.60541 -241.68194,418.60541 -9.66728,0 -246.5156,-410.2333 -241.68196,-418.6054 z"
       transform="matrix(-.00397 -.00229 -.00243 .0042 7.12271 10.01594)"
       id="path34" />
  </g>
</svg>
