<?xml version="1.0" encoding="UTF-8" standalone="no"?>
<svg
   xmlns:dc="http://purl.org/dc/elements/1.1/"
   xmlns:cc="http://creativecommons.org/ns#"
   xmlns:rdf="http://www.w3.org/1999/02/22-rdf-syntax-ns#"
   xmlns:svg="http://www.w3.org/2000/svg"
   xmlns="http://www.w3.org/2000/svg"
   xmlns:xlink="http://www.w3.org/1999/xlink"
   xmlns:sodipodi="http://sodipodi.sourceforge.net/DTD/sodipodi-0.dtd"
   xmlns:inkscape="http://www.inkscape.org/namespaces/inkscape"
   width="48"
   viewBox="0 0 13.546667 13.546667"
   height="48"
   id="svg2"
   version="1.1"
   inkscape:version="0.48.4 r9939"
   sodipodi:docname="totem.svg">
  <metadata
     id="metadata62">
    <rdf:RDF>
      <cc:Work
         rdf:about="">
        <dc:format>image/svg+xml</dc:format>
        <dc:type
           rdf:resource="http://purl.org/dc/dcmitype/StillImage" />
      </cc:Work>
    </rdf:RDF>
  </metadata>
  <sodipodi:namedview
     pagecolor="#ffffff"
     bordercolor="#666666"
     borderopacity="1"
     objecttolerance="10"
     gridtolerance="10"
     guidetolerance="10"
     inkscape:pageopacity="0"
     inkscape:pageshadow="2"
     inkscape:window-width="1920"
     inkscape:window-height="1137"
     id="namedview60"
     showgrid="false"
     inkscape:zoom="4.9166667"
     inkscape:cx="-10.372881"
     inkscape:cy="23.59322"
     inkscape:window-x="0"
     inkscape:window-y="27"
     inkscape:window-maximized="1"
     inkscape:current-layer="svg2" />
  <defs
     id="defs4">
    <clipPath
       clipPathUnits="userSpaceOnUse"
       id="clipPath6">
      <rect
         width="20"
         x="1"
         y="1"
         rx="2"
         height="20"
         style="fill:#fff;fill-rule:evenodd"
         id="rect8" />
    </clipPath>
    <clipPath
       clipPathUnits="userSpaceOnUse"
       id="clipPath10">
      <rect
         width="84"
         x="6"
         y="6"
         rx="6"
         height="84"
         style="fill:#fff"
         id="rect12" />
    </clipPath>
    <clipPath
       clipPathUnits="userSpaceOnUse"
       id="clipPath14">
      <path
         d="M 54.1,12.5 12.9,54.7 C -2.7,70.3 23,69 32.3,74.9 36.6,77.7 18.5,81.3 22.2,85 c 3.6,3.7 21.7,7.1 25.3,10.7 3.6,3.7 -7.3,7.6 -3.7,11.3 3.5,3.7 11.9,0.2 13.4,8.6 1.1,6.2 15.4,3.1 21.8,-2.2 4,-3.4 -6.9,-3.4 -3.3,-7.1 9,-9.1 17,-4.1 20.3,-12.5 1.8,-4.5 -13.6,-7.7 -9.5,-10.6 9.8,-6.9 45.8,-10.4 29.2,-27 L 73,12.5 c -5.3,-5 -14,-5 -18.9,0 z m -9.9,64.7 c 0.9,0 30.8,4 19.3,7.1 -4.4,1.2 -24.6,-7.1 -19.3,-7.1 z m 57.2,16.6 c 0,2.1 16.3,3.3 15.4,-0.5 -1.3,-6.4 -13.6,-5.9 -15.4,0.5 z m -69.5,11.1 c 3.7,3.2 9.3,-0.7 11.1,-5.2 -3.6,-4.7 -16.9,0.3 -11.1,5.2 z m 67.5,-6.7 c -4.6,4.2 0.8,8.6 5.3,5.7 1.2,-0.8 -0.1,-4.7 -5.3,-5.7 z"
         id="path16" />
    </clipPath>
    <clipPath
       clipPathUnits="userSpaceOnUse"
       id="clipPath18">
      <rect
         width="96"
         x="-100"
         y="-0"
         height="96"
         style="fill:#fff"
         id="rect20" />
    </clipPath>
    <clipPath
       clipPathUnits="userSpaceOnUse"
       id="clipPath22">
      <path
         d="M 95.311,352.545 L 476.403,352.545 L 476.403,71.4229 L 95.311,71.4229 L 95.311,352.545 z"
         id="path24" />
    </clipPath>
    <clipPath
       clipPathUnits="userSpaceOnUse"
       id="clipPath26">
      <path
         d="M 93.311,354.545 L 478.511,354.545 L 478.511,69.1846 L 93.311,69.1846 L 93.311,354.545 z"
         id="path28" />
    </clipPath>
    <clipPath
       clipPathUnits="userSpaceOnUse"
       id="clipPath30">
      <path
         d="M 93.311,69.185 L 478.511,69.185 L 478.511,354.545 L 93.311,354.545 L 93.311,69.185 z"
         id="path32" />
    </clipPath>
    <clipPath
       clipPathUnits="userSpaceOnUse"
       id="clipPath34">
      <path
         d="M 92.311,355.545 L 479.511,355.545 L 479.511,68.1846 L 92.311,68.1846 L 92.311,355.545 z"
         id="path36" />
    </clipPath>
    <linearGradient
       inkscape:collect="always"
       xlink:href="#linearGradient4460-11"
       id="linearGradient4267"
       x1="3.1887541"
       y1="1028.3645"
       x2="44.808247"
       y2="1028.3645"
       gradientUnits="userSpaceOnUse"
       gradientTransform="translate(1004.366,-1052.363)" />
    <linearGradient
       id="linearGradient4460-11">
      <stop
         offset="0"
         style="stop-color:#294059"
         id="stop3090" />
      <stop
         offset="1"
         style="stop-color:#3c5e82"
         id="stop3092" />
    </linearGradient>
    <linearGradient
       y2="1028.3645"
       x2="44.808247"
       y1="1028.3645"
       x1="3.1887541"
       gradientTransform="matrix(0,1,-0.99999993,0,1052.3632,0.00369801)"
       gradientUnits="userSpaceOnUse"
       id="linearGradient3677"
       xlink:href="#linearGradient4460-11"
       inkscape:collect="always" />
    <linearGradient
       inkscape:collect="always"
       xlink:href="#linearGradient4460-11-5"
       id="linearGradient4267-2"
       x1="3.1887541"
       y1="1028.3645"
       x2="44.808247"
       y2="1028.3645"
       gradientUnits="userSpaceOnUse"
       gradientTransform="translate(1004.366,-1052.363)" />
    <linearGradient
       id="linearGradient4460-11-5">
      <stop
         offset="0"
         style="stop-color:#294059"
         id="stop3090-4" />
      <stop
         offset="1"
         style="stop-color:#3c5e82"
         id="stop3092-3" />
    </linearGradient>
  </defs>
  <rect
     id="rect40"
     style="opacity:0.5;fill:#ffffff;fill-rule:evenodd"
     height="12.982"
     rx="0.2"
     y="0.28299987"
     x="0.28199852"
     width="12.982" />
  <rect
     id="rect42-1"
     style="fill:#4d4d4d;fill-opacity:1;fill-rule:evenodd"
     height="11.746"
     rx="0.19999908"
     y="-12.646007"
     x="0.90099663"
     width="11.745946"
     transform="matrix(0,1,-1,0,0,0)" />
  <path
     style="fill:#c66f92"
     d="m 5.3622224,4.7977786 0,5.6444444 4.2333344,-2.8222221 z"
     id="path44" />
  <g
     style="fill-rule:evenodd"
     id="g46">
    <path
       style="fill:#2d2d2d"
       d="M 24 3.1875 C 16.517165 3.1875 9.9783876 7.103267 6.3125 13 L 41.65625 13 C 37.989752 7.1061758 31.48063 3.1875 24 3.1875 z "
       transform="scale(.28222)"
       id="path48" />
    <g
       style="fill:#f9f9f9"
       transform="matrix(-.79632 0 0 .89329 12.15583 .16825)"
       id="g50">
      <path
         d="m 9.0772143,2.0232009 -0.4358396,0.6318709 0.4358396,0.631871 0.8716837,0 -0.4358406,-0.631871 0.4358406,-0.6318709 -0.8716837,0 z"
         id="path52" />
      <path
         d="m 7.3524702,2.0232009 -0.435841,0.6318709 0.435841,0.631871 0.8716826,0 -0.435841,-0.631871 0.435841,-0.6318709 -0.8716826,0 z"
         id="path54" />
      <path
         d="m 5.6835845,2.0232009 -0.4358416,0.6318709 0.4358416,0.631871 0.871682,0 -0.435841,-0.631871 0.435841,-0.6318709 -0.871682,0 z"
         id="path56" />
      <path
         d="m 4.0053884,2.0232009 -0.4358416,0.6318709 0.4358416,0.631871 0.871682,0 -0.4358411,-0.631871 0.4358411,-0.6318709 -0.871682,0 z"
         id="path58" />
    </g>
  </g>
  <path
     style="fill:#2d2d2d;fill-opacity:1;fill-rule:evenodd"
     d="M 3.90625 3.1875 C 3.5136534 3.1875 3.1875 3.5136534 3.1875 3.90625 L 3.1875 15.4375 L 24.03125 15.4375 L 44.8125 15.4375 L 44.8125 3.90625 C 44.8125 3.5136534 44.486347 3.1875 44.09375 3.1875 L 3.90625 3.1875 z "
     transform="scale(0.28222223,0.28222223)"
     id="rect42-5" />
  <g
     style="fill:#f9f9f9;fill-rule:evenodd"
     transform="matrix(-0.79632,0,0,0.89329,12.15583,0.16825)"
     id="g3043">
    <path
       inkscape:connector-curvature="0"
       d="m 9.0772143,2.0232009 -0.4358396,0.6318709 0.4358396,0.631871 0.8716837,0 -0.4358406,-0.631871 0.4358406,-0.6318709 -0.8716837,0 z"
       id="path3045" />
    <path
       inkscape:connector-curvature="0"
       d="m 7.3524702,2.0232009 -0.435841,0.6318709 0.435841,0.631871 0.8716826,0 -0.435841,-0.631871 0.435841,-0.6318709 -0.8716826,0 z"
       id="path3047" />
    <path
       inkscape:connector-curvature="0"
       d="m 5.6835845,2.0232009 -0.4358416,0.6318709 0.4358416,0.631871 0.871682,0 -0.435841,-0.631871 0.435841,-0.6318709 -0.871682,0 z"
       id="path3049" />
    <path
       inkscape:connector-curvature="0"
       d="m 4.0053884,2.0232009 -0.4358416,0.6318709 0.4358416,0.631871 0.871682,0 -0.4358411,-0.631871 0.4358411,-0.6318709 -0.871682,0 z"
       id="path3051" />
  </g>
</svg>
