<?xml version="1.0" encoding="UTF-8" standalone="no"?>
<svg
   xmlns:dc="http://purl.org/dc/elements/1.1/"
   xmlns:cc="http://creativecommons.org/ns#"
   xmlns:rdf="http://www.w3.org/1999/02/22-rdf-syntax-ns#"
   xmlns:svg="http://www.w3.org/2000/svg"
   xmlns="http://www.w3.org/2000/svg"
   xmlns:xlink="http://www.w3.org/1999/xlink"
   xmlns:sodipodi="http://sodipodi.sourceforge.net/DTD/sodipodi-0.dtd"
   xmlns:inkscape="http://www.inkscape.org/namespaces/inkscape"
   width="48"
   viewBox="0 0 13.546667 13.546667"
   height="48"
   id="svg2"
   version="1.1"
   inkscape:version="0.48.4 r9939"
   sodipodi:docname="Grooveshark-grooveshark.com.svg">
  <metadata
     id="metadata24">
    <rdf:RDF>
      <cc:Work
         rdf:about="">
        <dc:format>image/svg+xml</dc:format>
        <dc:type
           rdf:resource="http://purl.org/dc/dcmitype/StillImage" />
      </cc:Work>
    </rdf:RDF>
  </metadata>
  <sodipodi:namedview
     pagecolor="#ffffff"
     bordercolor="#666666"
     borderopacity="1"
     objecttolerance="10"
     gridtolerance="10"
     guidetolerance="10"
     inkscape:pageopacity="0"
     inkscape:pageshadow="2"
     inkscape:window-width="1920"
     inkscape:window-height="1143"
     id="namedview22"
     showgrid="false"
     inkscape:zoom="2.4583333"
     inkscape:cx="-128.20279"
     inkscape:cy="57.637527"
     inkscape:window-x="0"
     inkscape:window-y="29"
     inkscape:window-maximized="1"
     inkscape:current-layer="svg2" />
  <defs
     id="defs4">
    <linearGradient
       id="linearGradient4460">
      <stop
         offset="0"
         style="stop-color:#ff8523"
         id="stop7" />
      <stop
         offset="1"
         style="stop-color:#f2a615"
         id="stop9" />
    </linearGradient>
    <linearGradient
       gradientTransform="matrix(1.09524,0,0,1.09524,-133.00183,-9.56867)"
       xlink:href="#linearGradient4460"
       id="linearGradient4500"
       y1="279.096"
       y2="268.33"
       gradientUnits="userSpaceOnUse"
       x2="0" />
    <linearGradient
       inkscape:collect="always"
       xlink:href="#linearGradient4460"
       id="linearGradient3794"
       gradientUnits="userSpaceOnUse"
       gradientTransform="matrix(1.09524,0,0,1.09524,-133.00183,-293.02198)"
       y1="279.096"
       x2="0"
       y2="268.33" />
    <linearGradient
       inkscape:collect="always"
       xlink:href="#linearGradient4460"
       id="linearGradient3803"
       x1="-16.033327"
       y1="6.7739425"
       x2="-4.2873268"
       y2="6.7739425"
       gradientUnits="userSpaceOnUse"
       gradientTransform="translate(3.3863845,-9.3481667e-4)" />
    <linearGradient
       inkscape:collect="always"
       xlink:href="#linearGradient4460"
       id="linearGradient3810"
       gradientUnits="userSpaceOnUse"
       gradientTransform="matrix(0,-3.543307,3.543307,0,-0.00331234,-11.999)"
       x1="-16.033327"
       y1="6.7739425"
       x2="-4.2873268"
       y2="6.7739425" />
  </defs>
  <rect
     id="rect14"
     style="opacity:0.5;fill:#ffffff;fill-rule:evenodd"
     height="12.982"
     rx="0.2"
     y="0.28268242"
     x="0.28199983"
     width="12.982" />
  <rect
     width="11.746"
     x="-12.646942"
     y="0.90000641"
     rx="0.20000002"
     height="11.746"
     style="fill:url(#linearGradient3803);fill-opacity:1.0;fill-rule:evenodd"
     id="rect3008"
     transform="matrix(0,-1,1,0,0,0)" />
  <path
     style="fill:#2e2e2e;fill-opacity:1;fill-rule:evenodd"
     d="M 16.625 11.625 C 16.52234 11.612244 16.444553 11.630738 16.40625 11.65625 C 16.32964 11.70738 16.372693 11.848688 16.4375 12.09375 C 17.157054 16.266361 17.00619 20.905404 14.59375 24.5 C 12.923373 26.71456 10.847107 26.542572 8.84375 27.25 C 7.2609109 27.808932 4.6469968 27.195261 3.1875 27.71875 L 3.1875 44.09375 C 3.1875 44.486348 3.5136515 44.8125 3.90625 44.8125 L 44.09375 44.8125 C 44.486348 44.8125 44.8125 44.486348 44.8125 44.09375 L 44.8125 28.53125 C 42.900931 28.266793 39.905717 29.132116 38.125 28.34375 C 35.528713 27.194312 33.229191 26.00495 31.34375 23.1875 C 27.502638 18.374371 23.222775 13.354925 17.03125 11.71875 C 16.855197 11.681439 16.72766 11.637685 16.625 11.625 z M 36.90625 12.96875 C 36.866423 12.970196 36.809173 13.010309 36.75 13.03125 C 36.817783 13.03125 36.9375 13.099033 36.9375 13.03125 C 36.9375 12.997234 36.936754 12.967616 36.90625 12.96875 z "
     transform="scale(0.28222223,0.28222223)"
     id="rect3805" />
</svg>
