<?xml version="1.0" encoding="UTF-8" standalone="no"?>
<svg
   xmlns:dc="http://purl.org/dc/elements/1.1/"
   xmlns:cc="http://creativecommons.org/ns#"
   xmlns:rdf="http://www.w3.org/1999/02/22-rdf-syntax-ns#"
   xmlns:svg="http://www.w3.org/2000/svg"
   xmlns="http://www.w3.org/2000/svg"
   xmlns:sodipodi="http://sodipodi.sourceforge.net/DTD/sodipodi-0.dtd"
   xmlns:inkscape="http://www.inkscape.org/namespaces/inkscape"
   width="48"
   viewBox="0 0 13.546667 13.546667"
   height="48"
   id="svg2"
   version="1.1"
   inkscape:version="0.48.4 r9939"
   sodipodi:docname="workspace-switcher.svg">
  <metadata
     id="metadata30">
    <rdf:RDF>
      <cc:Work
         rdf:about="">
        <dc:format>image/svg+xml</dc:format>
        <dc:type
           rdf:resource="http://purl.org/dc/dcmitype/StillImage" />
        <dc:title />
      </cc:Work>
    </rdf:RDF>
  </metadata>
  <sodipodi:namedview
     pagecolor="#ffffff"
     bordercolor="#666666"
     borderopacity="1"
     objecttolerance="10"
     gridtolerance="10"
     guidetolerance="10"
     inkscape:pageopacity="0"
     inkscape:pageshadow="2"
     inkscape:window-width="1920"
     inkscape:window-height="1137"
     id="namedview28"
     showgrid="true"
     inkscape:zoom="9.94"
     inkscape:cx="1.7751035"
     inkscape:cy="25.883228"
     inkscape:window-x="0"
     inkscape:window-y="27"
     inkscape:window-maximized="1"
     inkscape:current-layer="svg2"
     showguides="true"
     inkscape:guide-bbox="true">
    <inkscape:grid
       type="xygrid"
       id="grid3848" />
  </sodipodi:namedview>
  <defs
     id="defs4" />
  <rect
     id="rect8"
     style="opacity:0.5;fill:#ffffff;fill-rule:evenodd"
     height="12.982"
     rx="0.2"
     y="0.28200018"
     x="-13.264"
     width="12.982"
     transform="matrix(0,-1,1,0,0,0)" />
  <rect
     id="rect10"
     style="fill:#e1e1e1;fill-rule:evenodd;fill-opacity:1"
     height="11.853"
     rx="0.2"
     y="0.84700018"
     x="-12.699"
     width="11.853"
     transform="matrix(0,-1,1,0,0,0)" />
  <path
     style="fill:#ef6856;fill-rule:evenodd;fill-opacity:1"
     d="M 24 3 C 23.999465 3.0615898 24 3.1257862 24 3.1875 L 24 24 L 45 24 L 45 23.8125 L 45 3.71875 C 45 3.3261516 44.673848 3 44.28125 3 L 24 3 z "
     transform="scale(0.28222223,0.28222223)"
     id="rect3770" />
  <path
     style="fill:#aaaaaa;fill-opacity:1;stroke:none"
     d="m 6.7733337,12.699333 c 0.093626,3.8e-5 0.188496,0 0.2822222,0 l 0,-11.853333 c -0.093726,0 -0.188596,-3.8e-5 -0.2822222,0 l 0,11.853333 z"
     id="rect2987"
     inkscape:connector-curvature="0" />
  <path
     style="fill:#aaaaaa;fill-opacity:1;stroke:none"
     d="m 0.84666687,7.0548887 11.85333313,0 c 1.7e-5,-0.04685 0,-0.09425 0,-0.1411111 0,-0.046849 1.7e-5,-0.094285 0,-0.1411111 l -11.85333313,0 c -1.682e-5,0.04685 0,0.09425 0,0.1411111 0,0.04685 -1.682e-5,0.094285 0,0.1411111 z"
     id="rect2989"
     inkscape:connector-curvature="0" />
</svg>
