<?xml version="1.0" encoding="UTF-8" standalone="no"?>
<svg
   xmlns:dc="http://purl.org/dc/elements/1.1/"
   xmlns:cc="http://creativecommons.org/ns#"
   xmlns:rdf="http://www.w3.org/1999/02/22-rdf-syntax-ns#"
   xmlns:svg="http://www.w3.org/2000/svg"
   xmlns="http://www.w3.org/2000/svg"
   xmlns:sodipodi="http://sodipodi.sourceforge.net/DTD/sodipodi-0.dtd"
   xmlns:inkscape="http://www.inkscape.org/namespaces/inkscape"
   width="48"
   viewBox="0 0 13.546667 13.546667"
   height="48"
   id="svg2"
   version="1.1"
   inkscape:version="0.48.4 r9939"
   sodipodi:docname="workspace-switcher-left-bottom.svg">
  <metadata
     id="metadata30">
    <rdf:RDF>
      <cc:Work
         rdf:about="">
        <dc:format>image/svg+xml</dc:format>
        <dc:type
           rdf:resource="http://purl.org/dc/dcmitype/StillImage" />
        <dc:title />
      </cc:Work>
    </rdf:RDF>
  </metadata>
  <sodipodi:namedview
     pagecolor="#ffffff"
     bordercolor="#666666"
     borderopacity="1"
     objecttolerance="10"
     gridtolerance="10"
     guidetolerance="10"
     inkscape:pageopacity="0"
     inkscape:pageshadow="2"
     inkscape:window-width="1920"
     inkscape:window-height="1137"
     id="namedview28"
     showgrid="true"
     inkscape:zoom="9.94"
     inkscape:cx="7.1923835"
     inkscape:cy="28.300169"
     inkscape:window-x="0"
     inkscape:window-y="27"
     inkscape:window-maximized="1"
     inkscape:current-layer="svg2"
     showguides="true"
     inkscape:guide-bbox="true">
    <inkscape:grid
       type="xygrid"
       id="grid3848" />
  </sodipodi:namedview>
  <defs
     id="defs4" />
  <rect
     id="rect8"
     style="opacity:0.5;fill:#ffffff;fill-rule:evenodd"
     height="12.982"
     rx="0.2"
     y="-13.264001"
     x="0.28200001"
     width="12.982"
     transform="matrix(0,1,-1,0,0,0)" />
  <rect
     transform="matrix(0,1,-1,0,0,0)"
     width="11.853"
     x="0.847"
     y="-12.699"
     rx="0.2"
     height="11.853"
     style="fill:#e1e1e1;fill-rule:evenodd;fill-opacity:1"
     id="rect3771" />
  <path
     style="fill:#ef6856;fill-rule:evenodd;fill-opacity:1"
     d="M 3 24 C 2.999465 24.06159 3 24.125786 3 24.1875 L 3 44.28125 C 3 44.673848 3.3261516 45 3.71875 45 L 24 45 L 24 44.8125 L 24 24 L 3 24 z "
     transform="scale(0.28222223,0.28222223)"
     id="rect10" />
  <path
     style="fill:#aaaaaa;fill-opacity:1;stroke:none"
     d="m 6.7726665,0.84666669 c -0.093626,-3.782e-5 -0.188496,0 -0.2822222,0 l 0,11.85333331 c 0.093726,0 0.188596,3.8e-5 0.2822222,0 l 0,-11.85333331 z"
     id="rect2987"
     inkscape:connector-curvature="0" />
  <path
     style="fill:#aaaaaa;fill-opacity:1;stroke:none"
     d="m 12.699333,6.4911113 -11.853333,0 c -1.7e-5,0.04685 0,0.09425 0,0.1411111 0,0.046849 -1.7e-5,0.094285 0,0.1411111 l 11.853333,0 c 1.7e-5,-0.04685 0,-0.09425 0,-0.1411111 0,-0.04685 1.7e-5,-0.094285 0,-0.1411111 z"
     id="rect2989"
     inkscape:connector-curvature="0" />
</svg>
