<?xml version="1.0" encoding="UTF-8" standalone="no"?>
<svg
   xmlns:dc="http://purl.org/dc/elements/1.1/"
   xmlns:cc="http://creativecommons.org/ns#"
   xmlns:rdf="http://www.w3.org/1999/02/22-rdf-syntax-ns#"
   xmlns:svg="http://www.w3.org/2000/svg"
   xmlns="http://www.w3.org/2000/svg"
   xmlns:xlink="http://www.w3.org/1999/xlink"
   xmlns:sodipodi="http://sodipodi.sourceforge.net/DTD/sodipodi-0.dtd"
   xmlns:inkscape="http://www.inkscape.org/namespaces/inkscape"
   viewBox="0 0 48 48"
   id="svg2"
   version="1.1"
   inkscape:version="0.48.4 r9939"
   width="100%"
   height="100%"
   sodipodi:docname="zsnes.svg">
  <metadata
     id="metadata30">
    <rdf:RDF>
      <cc:Work
         rdf:about="">
        <dc:format>image/svg+xml</dc:format>
        <dc:type
           rdf:resource="http://purl.org/dc/dcmitype/StillImage" />
      </cc:Work>
    </rdf:RDF>
  </metadata>
  <sodipodi:namedview
     pagecolor="#ffffff"
     bordercolor="#666666"
     borderopacity="1"
     objecttolerance="10"
     gridtolerance="10"
     guidetolerance="10"
     inkscape:pageopacity="0"
     inkscape:pageshadow="2"
     inkscape:window-width="1920"
     inkscape:window-height="1137"
     id="namedview28"
     showgrid="true"
     inkscape:zoom="4.9166667"
     inkscape:cx="-9.2796414"
     inkscape:cy="6.7188398"
     inkscape:window-x="0"
     inkscape:window-y="27"
     inkscape:window-maximized="1"
     inkscape:current-layer="svg2">
    <inkscape:grid
       type="xygrid"
       id="grid3804" />
  </sodipodi:namedview>
  <defs
     id="defs4">
    <linearGradient
       id="linearGradient3795">
      <stop
         offset="0"
         style="stop-color:#c3c3ba"
         id="stop7" />
      <stop
         offset="1"
         style="stop-color:#77756b"
         id="stop9" />
    </linearGradient>
    <linearGradient
       gradientTransform="translate(.53033 -2056.5476)"
       xlink:href="#linearGradient3795"
       id="linearGradient3801"
       y1="1053.158"
       y2="1004.847"
       x2="0"
       gradientUnits="userSpaceOnUse" />
    <linearGradient
       gradientTransform="matrix(1.10526,0,0,1.10526,-134.28026,-295.76492)"
       xlink:href="#linearGradient4460"
       id="linearGradient3001"
       y1="279.09601"
       y2="268.32999"
       gradientUnits="userSpaceOnUse"
       x2="0" />
    <linearGradient
       id="linearGradient4460">
      <stop
         offset="0"
         style="stop-color:#6a223d"
         id="stop7-5" />
      <stop
         offset="1"
         style="stop-color:#bf585f"
         id="stop9-0" />
    </linearGradient>
    <linearGradient
       y2="268.32999"
       x2="0"
       y1="279.09601"
       gradientTransform="matrix(1.10526,0,0,1.10526,-134.28026,-295.76492)"
       gradientUnits="userSpaceOnUse"
       id="linearGradient3009"
       xlink:href="#linearGradient4460"
       inkscape:collect="always" />
    <linearGradient
       inkscape:collect="always"
       xlink:href="#linearGradient3795"
       id="linearGradient3033"
       gradientUnits="userSpaceOnUse"
       gradientTransform="matrix(3.9162755,0,0,3.9162755,-543.79815,-1095.9886)"
       y1="279.09601"
       x2="0"
       y2="268.32999" />
    <linearGradient
       inkscape:collect="always"
       xlink:href="#linearGradient4460-11"
       id="linearGradient4267"
       x1="3.1887541"
       y1="1028.3645"
       x2="44.808247"
       y2="1028.3645"
       gradientUnits="userSpaceOnUse"
       gradientTransform="translate(1004.366,-1052.363)" />
    <linearGradient
       id="linearGradient4460-11">
      <stop
         offset="0"
         style="stop-color:#294059"
         id="stop3090" />
      <stop
         offset="1"
         style="stop-color:#3c5e82"
         id="stop3092" />
    </linearGradient>
    <linearGradient
       y2="1028.3645"
       x2="44.808247"
       y1="1028.3645"
       x1="3.1887541"
       gradientTransform="translate(0.00369904,-1052.3633)"
       gradientUnits="userSpaceOnUse"
       id="linearGradient3788"
       xlink:href="#linearGradient3795"
       inkscape:collect="always" />
  </defs>
  <rect
     id="rect40"
     style="opacity:0.5;fill:#ffffff;fill-rule:evenodd"
     height="45.999214"
     rx="0.70865816"
     y="1.0027858"
     x="0.99900055"
     width="45.999001" />
  <rect
     id="rect42"
     style="fill:url(#linearGradient3788);fill-opacity:1;fill-rule:evenodd"
     height="41.619686"
     rx="0.70865816"
     y="-44.808685"
     x="3.1925085"
     width="41.619492"
     transform="matrix(0,1,-1,0,0,0)" />
  <g
     style="fill:#ffffff"
     transform="matrix(0.41892136,-0.41809011,0.41892136,0.41809011,-419.75633,-394.65657)"
     id="g18">
    <path
       d="m 20,11 c -3.878,0 -7,3.122 -7,7 0,3.878 3.122,7 7,7 l 18,0 c 3.878,0 7,-3.122 7,-7 0,-3.878 -3.122,-7 -7,-7 l -18,0 z m 0,1 c 3.313709,0 6,2.686291 6,6 0,3.313709 -2.686291,6 -6,6 -3.313709,0 -6,-2.686291 -6,-6 0,-3.313709 2.686291,-6 6,-6 z m 18,0 c 3.313709,0 6,2.686291 6,6 0,3.313709 -2.686291,6 -6,6 -3.313709,0 -6,-2.686291 -6,-6 0,-3.313709 2.686291,-6 6,-6 z"
       transform="translate(0,1004.3622)"
       id="path20"
       inkscape:connector-curvature="0" />
    <path
       d="m 20,1031.3622 c -3.878,0 -7,3.122 -7,7 0,3.878 3.122,7 7,7 l 18,0 c 3.878,0 7,-3.122 7,-7 0,-3.878 -3.122,-7 -7,-7 l -18,0 z m 0,1 c 3.313709,0 6,2.6863 6,6 0,3.3137 -2.686291,6 -6,6 -3.313709,0 -6,-2.6863 -6,-6 0,-3.3137 2.686291,-6 6,-6 z m 18,0 c 3.313709,0 6,2.6863 6,6 0,3.3137 -2.686291,6 -6,6 -3.313709,0 -6,-2.6863 -6,-6 0,-3.3137 2.686291,-6 6,-6 z"
       id="path22"
       inkscape:connector-curvature="0" />
  </g>
  <g
     transform="matrix(0.93936981,0,0,0.93750586,1.4840152,-940.09652)"
     id="g24">
    <path
       style="fill:none;stroke:#ffffff;stroke-width:3.33299994"
       d="M 55,33 A 25,25 0 1 1 5,33 25,25 0 1 1 55,33 z"
       transform="matrix(0.6,0,0,0.6,6,1008.5622)"
       id="path26"
       inkscape:connector-curvature="0" />
  </g>
</svg>
