<?xml version="1.0" encoding="UTF-8" standalone="no"?>
<svg xmlns:dc="http://purl.org/dc/elements/1.1/" xmlns:cc="http://creativecommons.org/ns#" xmlns:rdf="http://www.w3.org/1999/02/22-rdf-syntax-ns#" xmlns:svg="http://www.w3.org/2000/svg" xmlns="http://www.w3.org/2000/svg" xmlns:xlink="http://www.w3.org/1999/xlink" xmlns:sodipodi="http://sodipodi.sourceforge.net/DTD/sodipodi-0.dtd" xmlns:inkscape="http://www.inkscape.org/namespaces/inkscape" width="48" viewBox="0 0 13.546667 13.546667" height="48" id="svg27257" version="1.1" inkscape:version="0.48.4 r9939" sodipodi:docname="contact.svg">
  <metadata id="metadata27283">
    <rdf:RDF>
      <cc:Work rdf:about="">
        <dc:format>image/svg+xml</dc:format>
        <dc:type rdf:resource="http://purl.org/dc/dcmitype/StillImage" />
      </cc:Work>
    </rdf:RDF>
  </metadata>
  <sodipodi:namedview pagecolor="#ffffff" bordercolor="#666666" borderopacity="1" objecttolerance="10" gridtolerance="10" guidetolerance="10" inkscape:pageopacity="0" inkscape:pageshadow="2" inkscape:window-width="1280" inkscape:window-height="745" id="namedview27281" showgrid="false" inkscape:snap-bbox="true" inkscape:bbox-nodes="true" inkscape:snap-bbox-edge-midpoints="true" inkscape:bbox-paths="true" inkscape:zoom="9.8333333" inkscape:cx="12.29405" inkscape:cy="27.707707" inkscape:window-x="0" inkscape:window-y="22" inkscape:window-maximized="1" inkscape:current-layer="svg27257" />
  <defs id="defs27259">
    <linearGradient id="linearGradient4460">
      <stop offset="0" style="stop-color:#cd9a66" id="stop27262" />
      <stop offset="1" style="stop-color:#dcb894" id="stop27264" />
    </linearGradient>
    <linearGradient gradientTransform="matrix(1.10521,0,0,1.10528,-134.27367,-295.77049)" xlink:href="#linearGradient4460" id="linearGradient3017" y1="279.096" y2="268.33" gradientUnits="userSpaceOnUse" x2="0" />
    <linearGradient inkscape:collect="always" xlink:href="#linearGradient4460" id="linearGradient27289" gradientUnits="userSpaceOnUse" gradientTransform="matrix(1.10521,0,0,1.10528,-134.274,-295.77049)" y1="279.096" x2="0" y2="268.33" />
    <linearGradient inkscape:collect="always" xlink:href="#linearGradient4460-3" id="linearGradient27830" gradientUnits="userSpaceOnUse" gradientTransform="matrix(3.9160983,0,0,3.9163464,-475.774,-1048.0056)" y1="279.09601" x2="0" y2="268.32999" />
    <linearGradient id="linearGradient4460-3">
      <stop offset="0" style="stop-color:#cd9a66" id="stop27262-9" />
      <stop offset="1" style="stop-color:#dcb894" id="stop27264-2" />
    </linearGradient>
  </defs>
  <rect width="12.982" x=".282" y=".282" rx="0.5" height="12.982" style="opacity:.5;fill:#fff;fill-rule:evenodd" id="rect27267" />
  <rect id="rect27271" style="fill:url(#linearGradient27289);fill-rule:evenodd" height="11.853" rx="0.5" y="0.847" x="0.84667003" width="11.853" />
  <path style="line-height:normal;color:#000000;fill:#2e2e2e;fill-opacity:0.4" d="m 6.491112,4.5155385 0.5644451,0 c 0.8466658,0 0.8466658,0.9675 0.8466658,0.9675 l 0,0.95741 c 0,0.32251 -0.5644439,0.97758 -0.5644439,0.97758 l 0,0.3225 1.1288879,0.63492 0,0.64498 -1.8344433,0.0107 -1.5522235,0 0,-0.64499 1.1288901,-0.645 0,-0.32249 c 0,0 -0.5663038,-0.65508 -0.5644438,-0.97757 l 0,-0.95743 c 0,0 -4.8e-6,-0.96749 0.8466656,-0.96749 z" id="path27279" inkscape:connector-curvature="0" />
  <path inkscape:connector-curvature="0" style="fill:#74c0fe;fill-opacity:1;fill-rule:evenodd" d="m 9.9039054,0.84666529 0,11.85333471 2.2930556,0 c 0.277,0 0.502709,-0.225709 0.502709,-0.502709 l 0,-10.8479173 c 0,-0.2770001 -0.225709,-0.50270841 -0.502709,-0.50270841 l -2.2930556,0 z" id="rect27271-4" />
  <rect style="fill:#259cfd;fill-opacity:1;stroke:none" id="rect27805" width="2.7958417" height="2.8221998" x="9.9038277" y="7.9021602" />
  <rect style="fill:#5ebb49;fill-opacity:1;stroke:none" id="rect27803" width="2.7943568" height="2.5400002" x="9.9053125" y="2.54" />
</svg>
