<?xml version="1.0" encoding="UTF-8" standalone="no"?>
<svg
   xmlns:dc="http://purl.org/dc/elements/1.1/"
   xmlns:cc="http://creativecommons.org/ns#"
   xmlns:rdf="http://www.w3.org/1999/02/22-rdf-syntax-ns#"
   xmlns:svg="http://www.w3.org/2000/svg"
   xmlns="http://www.w3.org/2000/svg"
   xmlns:sodipodi="http://sodipodi.sourceforge.net/DTD/sodipodi-0.dtd"
   xmlns:inkscape="http://www.inkscape.org/namespaces/inkscape"
   width="48"
   height="48"
   viewBox="0 0 48 48"
   id="svg2"
   version="1.1"
   inkscape:version="0.48.4 r9939"
   sodipodi:docname="aim.svg">
  <metadata
     id="metadata14">
    <rdf:RDF>
      <cc:Work
         rdf:about="">
        <dc:format>image/svg+xml</dc:format>
        <dc:type
           rdf:resource="http://purl.org/dc/dcmitype/StillImage" />
      </cc:Work>
    </rdf:RDF>
  </metadata>
  <defs
     id="defs12" />
  <sodipodi:namedview
     pagecolor="#ffffff"
     bordercolor="#666666"
     borderopacity="1"
     objecttolerance="10"
     gridtolerance="10"
     guidetolerance="10"
     inkscape:pageopacity="0"
     inkscape:pageshadow="2"
     inkscape:window-width="1920"
     inkscape:window-height="1143"
     id="namedview10"
     showgrid="false"
     inkscape:zoom="4.9166667"
     inkscape:cx="24.81356"
     inkscape:cy="23.18644"
     inkscape:window-x="0"
     inkscape:window-y="29"
     inkscape:window-maximized="1"
     inkscape:current-layer="svg2" />
  <rect
     id="rect40"
     style="opacity:0.5;fill:#ffffff;fill-rule:evenodd"
     height="45.999214"
     rx="0.70866144"
     y="1.0027858"
     x="0.99900001"
     width="45.999214" />
  <rect
     id="rect42"
     style="fill:#4d4d4d;fill-rule:evenodd"
     height="41.619686"
     rx="0.70866144"
     y="3.1925495"
     x="3.1887624"
     width="41.619686" />
  <path
     style="fill:#ffcc00"
     d="M 22.792969 5.25 C 19 5.25 15.929688 8.3242192 15.929688 12.113281 C 15.929688 14.841943 17.526207 17.19276 19.833984 18.298828 C 19.857268 18.734982 20.244749 19.302294 20.039062 19.609375 C 16.550781 24.796875 24.523438 28.863281 10.140625 37.945312 L 13.1875 42.75 C 16.8125 40.539062 21.421875 38.121094 24.949219 31.945312 L 33.664062 41.097656 L 37.859375 37.320312 L 26.53125 25.914062 C 30.84375 26.324219 34.214844 25.605469 36.464844 24.363281 L 34.914062 20.097656 C 30.816406 21.609375 26.253906 21.23047 24.527344 19.945312 C 24.141414 19.658978 24.320452 19.184065 24.521484 18.748047 C 27.47206 17.980258 29.652344 15.304278 29.652344 12.113281 C 29.652344 8.3242192 26.582031 5.25 22.792969 5.25 z "
     id="path6" />
</svg>
