<?xml version="1.0" encoding="UTF-8" standalone="no"?>
<svg
   xmlns:dc="http://purl.org/dc/elements/1.1/"
   xmlns:cc="http://creativecommons.org/ns#"
   xmlns:rdf="http://www.w3.org/1999/02/22-rdf-syntax-ns#"
   xmlns:svg="http://www.w3.org/2000/svg"
   xmlns="http://www.w3.org/2000/svg"
   xmlns:sodipodi="http://sodipodi.sourceforge.net/DTD/sodipodi-0.dtd"
   xmlns:inkscape="http://www.inkscape.org/namespaces/inkscape"
   width="48"
   viewBox="0 0 13.546667 13.546667"
   height="48"
   id="svg2"
   version="1.1"
   inkscape:version="0.48.4 r9939"
   sodipodi:docname="calc.svg">
  <metadata
     id="metadata30">
    <rdf:RDF>
      <cc:Work
         rdf:about="">
        <dc:format>image/svg+xml</dc:format>
        <dc:type
           rdf:resource="http://purl.org/dc/dcmitype/StillImage" />
        <dc:title />
      </cc:Work>
    </rdf:RDF>
  </metadata>
  <sodipodi:namedview
     pagecolor="#333333"
     bordercolor="#666666"
     borderopacity="1"
     objecttolerance="10"
     gridtolerance="10"
     guidetolerance="10"
     inkscape:pageopacity="1"
     inkscape:pageshadow="2"
     inkscape:window-width="1920"
     inkscape:window-height="1143"
     id="namedview28"
     showgrid="true"
     inkscape:zoom="14.163441"
     inkscape:cx="29.531711"
     inkscape:cy="21.034963"
     inkscape:window-x="0"
     inkscape:window-y="29"
     inkscape:window-maximized="1"
     inkscape:current-layer="svg2"
     showguides="true"
     inkscape:guide-bbox="true">
    <inkscape:grid
       type="xygrid"
       id="grid3848"
       empspacing="5"
       visible="true"
       enabled="true"
       snapvisiblegridlinesonly="true" />
  </sodipodi:namedview>
  <defs
     id="defs4" />
  <rect
     id="rect8"
     style="opacity:0.5;fill:#ffffff;fill-rule:evenodd"
     height="12.982"
     rx="0.2"
     y="0.28200001"
     x="0.28200001"
     width="12.982" />
  <path
     style="fill:#2aa9c9;fill-opacity:1;fill-rule:evenodd"
     d="m 0.84666667,6.7733335 0,5.7238195 c 0,0.1108 0.0920474,0.202847 0.20284723,0.202847 l 5.6709029,0 0.052917,0 0,-5.9266665 -5.87375016,0 c -0.017419,0 -0.0355346,-1.51e-4 -0.0529167,0 z"
     id="path16"
     inkscape:connector-curvature="0" />
  <path
     style="fill:#f7bd5f;fill-opacity:1;fill-rule:evenodd"
     d="m 6.7733334,6.7733335 0,5.9266665 5.7238196,0 C 12.607953,12.7 12.7,12.60795 12.7,12.497153 l 0,-5.7238195 -0.05292,0 -5.8737506,0 z"
     id="path12"
     inkscape:connector-curvature="0" />
  <path
     style="fill:#87d3e3;fill-opacity:1;fill-rule:evenodd"
     d="m 6.7733334,0.84666669 0,5.92666681 5.8737496,0 0.05292,0 0,-5.7238196 c 0,-0.11079998 -0.09205,-0.20284721 -0.202847,-0.20284721 l -5.7238196,0 z"
     id="path14"
     inkscape:connector-curvature="0" />
  <path
     style="fill:#4fbed6;fill-opacity:1;fill-rule:evenodd"
     d="m 1.0495142,0.84666669 c -0.11080002,0 -0.20284802,0.0920472 -0.20284802,0.20284721 l 0,5.7238196 0.05292,0 5.87375032,0 0,-5.92666681 -0.052917,0 -5.6709026,0 z"
     id="rect3002"
     inkscape:connector-curvature="0" />
  <g
     id="g3779"
     transform="translate(-0.70555416,-0.70555541)">
    <rect
       y="3.3866665"
       x="4.2333336"
       height="2.2577779"
       width="0.56444448"
       id="rect3757"
       style="fill:#f9f9f9;fill-opacity:1;stroke:none" />
    <rect
       transform="matrix(0,1,-1,0,0,0)"
       style="fill:#f9f9f9;fill-opacity:1;stroke:none"
       id="rect3759"
       width="0.56444448"
       height="2.2577779"
       x="4.2333336"
       y="-5.6444445" />
  </g>
  <g
     id="g3795"
     transform="translate(0.70657242,0.70555459)">
    <rect
       y="-10.158981"
       x="8.1844454"
       height="2.2577779"
       width="0.56444448"
       id="rect3836"
       style="fill:#f9f9f9;fill-opacity:1;stroke:none"
       transform="matrix(0,1,-1,0,0,0)" />
    <rect
       transform="matrix(0,1,-1,0,0,0)"
       style="fill:#f9f9f9;fill-opacity:1;stroke:none"
       id="rect3838"
       width="0.56444448"
       height="2.2577779"
       x="9.3133345"
       y="-10.158981" />
  </g>
  <rect
     y="-10.865557"
     x="3.5277779"
     height="2.2577779"
     width="0.56444448"
     id="rect3846"
     style="fill:#f9f9f9;fill-opacity:1;stroke:none"
     transform="matrix(0,1,-1,0,0,0)" />
  <g
     id="g3804"
     transform="translate(-0.71379454,0.70552199)">
    <rect
       transform="matrix(0,1,-1,0,0,0)"
       style="fill:#f9f9f9;fill-opacity:1;stroke:none"
       id="rect3846-5"
       width="0.56444448"
       height="2.2577779"
       x="8.740653"
       y="-5.6526837" />
    <path
       sodipodi:nodetypes="ccccc"
       inkscape:connector-curvature="0"
       id="rect3846-8"
       d="m 7.9022224,-4.7977779 0.5644445,0 0,0.5644445 -0.5644445,0 z"
       style="fill:#f9f9f9;fill-opacity:1;stroke:none"
       transform="matrix(0,1,-1,0,0,0)" />
    <path
       sodipodi:nodetypes="ccccc"
       inkscape:connector-curvature="0"
       id="rect3846-8-3"
       d="m 4.7977779,9.5955558 0,0.5644442 -0.5644445,0 0,-0.5644442 z"
       style="fill:#f9f9f9;fill-opacity:1;stroke:none" />
  </g>
</svg>
