<?xml version="1.0" encoding="UTF-8" standalone="no"?>
<svg
   xmlns:dc="http://purl.org/dc/elements/1.1/"
   xmlns:cc="http://creativecommons.org/ns#"
   xmlns:rdf="http://www.w3.org/1999/02/22-rdf-syntax-ns#"
   xmlns:svg="http://www.w3.org/2000/svg"
   xmlns="http://www.w3.org/2000/svg"
   xmlns:sodipodi="http://sodipodi.sourceforge.net/DTD/sodipodi-0.dtd"
   xmlns:inkscape="http://www.inkscape.org/namespaces/inkscape"
   width="48"
   viewBox="0 0 13.546667 13.546667"
   height="48"
   id="svg106082"
   version="1.1"
   inkscape:version="0.48.4 r9939"
   sodipodi:docname="calc.svg">
  <metadata
     id="metadata106116">
    <rdf:RDF>
      <cc:Work
         rdf:about="">
        <dc:format>image/svg+xml</dc:format>
        <dc:type
           rdf:resource="http://purl.org/dc/dcmitype/StillImage" />
      </cc:Work>
    </rdf:RDF>
  </metadata>
  <defs
     id="defs106114" />
  <sodipodi:namedview
     pagecolor="#ffffff"
     bordercolor="#666666"
     borderopacity="1"
     objecttolerance="10"
     gridtolerance="10"
     guidetolerance="10"
     inkscape:pageopacity="0"
     inkscape:pageshadow="2"
     inkscape:window-width="1280"
     inkscape:window-height="745"
     id="namedview106112"
     showgrid="false"
     inkscape:snap-bbox="true"
     inkscape:bbox-nodes="true"
     inkscape:zoom="6.9532167"
     inkscape:cx="21.773953"
     inkscape:cy="22.040517"
     inkscape:window-x="0"
     inkscape:window-y="22"
     inkscape:window-maximized="1"
     inkscape:current-layer="svg106082" />
  <rect
     height="12.982"
     rx="0.5"
     y="0.282"
     x="0.282"
     width="12.982"
     opacity="0.5"
     fill="#ffffff"
     fill-rule="evenodd"
     id="rect106084" />
  <rect
     height="11.853"
     rx="0.5"
     y="0.847"
     x="0.847"
     width="11.853"
     fill="#f9f9f9"
     fill-rule="evenodd"
     id="rect106086" />
  <path
     inkscape:connector-curvature="0"
     d="M 1.3497084,0.847 C 1.0727084,0.847 0.847,1.0727083 0.847,1.3497083 l 0,5.4239585 5.9266668,0 0,-5.9266668 -0.052917,0 -5.3710417,0 z"
     id="rect106086-2"
     style="fill:#4fbed6;fill-opacity:1" />
  <path
     d="M 15 12 L 15 15 L 12 15 L 12 17 L 15 17 L 15 20 L 17 20 L 17 17 L 20 17 L 20 15 L 17 15 L 17 12 L 15 12 z "
     transform="scale(0.28222223,0.28222223)"
     id="rect106096"
     style="fill:#f9f9f9;fill-opacity:1" />
  <path
     inkscape:connector-curvature="0"
     d="m 6.7733297,6.7733327 0,5.9266673 0.05292,0 5.3710423,0 C 12.474292,12.7 12.7,12.474292 12.7,12.197292 l 0,-5.4239593 -5.9266663,0 z"
     id="rect106086-4"
     style="fill:#f7bd5f;fill-opacity:1" />
  <rect
     transform="matrix(0,1,-1,0,0,0)"
     width="0.564"
     height="2.258"
     x="8.184"
     y="-10.159"
     fill="#f9f9f9"
     id="rect106100" />
  <rect
     y="-10.159"
     x="9.313"
     height="2.258"
     width="0.564"
     transform="matrix(0,1,-1,0,0,0)"
     fill="#f9f9f9"
     id="rect106102" />
  <path
     inkscape:connector-curvature="0"
     d="m 6.7733327,0.847 0,5.9266668 5.9266673,0 0,-5.4239584 C 12.7,1.0727084 12.474291,0.847 12.197291,0.847 l -5.3710423,0 -0.05292,0 z"
     id="rect106086-6"
     style="fill:#87d3e3;fill-opacity:1" />
  <rect
     y="-10.168"
     x="4.225"
     height="2.258"
     width="0.564"
     transform="matrix(0,1,-1,0,0,0)"
     fill="#f9f9f9"
     id="rect106104" />
  <path
     inkscape:connector-curvature="0"
     d="m 0.847,6.7733327 0,5.4239593 c 0,0.277 0.2257084,0.502708 0.5027084,0.502708 l 5.3710418,0 0.05292,0 0,-5.9266673 -5.9266672,0 z"
     id="rect106086-3"
     style="fill:#2aa9c9;fill-opacity:1" />
  <rect
     y="-5.653"
     x="8.741"
     height="2.258"
     width="0.564"
     transform="matrix(0,1,-1,0,0,0)"
     fill="#f9f9f9"
     id="rect106106" />
  <path
     transform="matrix(0,1,-1,0,0,0)"
     d="m 7.9022224,-4.7977779 0.5644445,0 0,0.5644445 -0.5644445,0 z"
     fill="#f9f9f9"
     id="path106108" />
  <path
     d="m 4.7977779,9.5955558 0,0.5644442 -0.5644445,0 0,-0.5644442 z"
     fill="#f9f9f9"
     id="path106110" />
</svg>
