<?xml version="1.0" encoding="UTF-8" standalone="no"?>
<!-- Created with Inkscape (http://www.inkscape.org/) -->

<svg
   xmlns:dc="http://purl.org/dc/elements/1.1/"
   xmlns:cc="http://creativecommons.org/ns#"
   xmlns:rdf="http://www.w3.org/1999/02/22-rdf-syntax-ns#"
   xmlns:svg="http://www.w3.org/2000/svg"
   xmlns="http://www.w3.org/2000/svg"
   xmlns:xlink="http://www.w3.org/1999/xlink"
   xmlns:sodipodi="http://sodipodi.sourceforge.net/DTD/sodipodi-0.dtd"
   xmlns:inkscape="http://www.inkscape.org/namespaces/inkscape"
   version="1.1"
   width="48"
   height="48"
   viewBox="0 0 13.546667 13.546667"
   id="svg2"
   inkscape:version="0.48.4 r9939"
   sodipodi:docname="calc-alt.svg">
  <sodipodi:namedview
     pagecolor="#ffffff"
     bordercolor="#666666"
     borderopacity="1"
     objecttolerance="10"
     gridtolerance="10"
     guidetolerance="10"
     inkscape:pageopacity="0"
     inkscape:pageshadow="2"
     inkscape:window-width="1561"
     inkscape:window-height="1001"
     id="namedview14"
     showgrid="false"
     inkscape:zoom="4.9166667"
     inkscape:cx="-10.983051"
     inkscape:cy="23.59322"
     inkscape:window-x="0"
     inkscape:window-y="29"
     inkscape:window-maximized="0"
     inkscape:current-layer="svg2" />
  <metadata
     id="metadata4">
    <rdf:RDF>
      <cc:Work
         rdf:about="">
        <dc:format>image/svg+xml</dc:format>
        <dc:type
           rdf:resource="http://purl.org/dc/dcmitype/StillImage" />
        <dc:title />
      </cc:Work>
    </rdf:RDF>
  </metadata>
  <defs
     id="defs6">
    <linearGradient
       x1="6.7733345"
       y1="0.84666669"
       x2="6.7733345"
       y2="13.546667"
       id="linearGradient4339"
       gradientUnits="userSpaceOnUse">
      <stop
         id="stop9"
         style="stop-color:#fcaf3e;stop-opacity:1"
         offset="0" />
      <stop
         id="stop11"
         style="stop-color:#e68a04;stop-opacity:1"
         offset="1" />
    </linearGradient>
    <linearGradient
       inkscape:collect="always"
       xlink:href="#linearGradient4339"
       id="linearGradient3783"
       x1="-21.677839"
       y1="6.7740092"
       x2="-9.931839"
       y2="6.7740092"
       gradientUnits="userSpaceOnUse"
       gradientTransform="translate(22.578848,-13.546948)" />
  </defs>
  <rect
     id="rect40"
     style="opacity:0.5;fill:#ffffff;fill-rule:evenodd"
     height="12.982"
     rx="0.20000002"
     y="0.28300887"
     x="0.28193963"
     width="12.982" />
  <rect
     id="rect42"
     style="fill:url(#linearGradient3783);fill-opacity:1;fill-rule:evenodd"
     height="11.746"
     rx="0.20000002"
     y="-12.645939"
     x="0.9010089"
     width="11.746"
     transform="matrix(0,1,-1,0,0,0)" />
  <rect
     width="5.0799999"
     height="1.4111111"
     rx="0.56444448"
     x="4.2333336"
     y="4.7914252"
     id="rect17"
     style="fill:#d6d6d6" />
  <rect
     width="5.0799999"
     height="1.4111111"
     rx="0.56444448"
     x="4.2333336"
     y="7.3358421"
     id="rect19"
     style="fill:#d6d6d6" />
  <path
     d="m 4.7977779,7.336119 c -0.3127022,0 -0.5644445,0.2517422 -0.5644445,0.5644444 l 0,0.2822222 c 0,0.04886 0.00607,0.095956 0.017639,0.1411112 C 4.3134194,8.0800576 4.5339355,7.9005634 4.797778,7.9005634 l 3.9511112,0 c 0.2638425,0 0.4843582,0.1794942 0.5468055,0.4233334 0.011566,-0.045155 0.017639,-0.092251 0.017639,-0.1411112 l 0,-0.2822222 C 9.3133335,7.5878612 9.1046421,7.336119 8.7488891,7.336119 l -1.9755556,0 z"
     id="path21-4"
     style="fill:#75808f" />
  <path
     d="m 17,16.96875 c -1.108,0 -2,0.892 -2,2 v 1 c 0,0.173125 0.02152,0.340001 0.0625,0.5 0.22127,-0.863997 1.002625,-1.5 1.9375,-1.5 h 14 c 0.934875,0 1.71623,0.636003 1.9375,1.5 0.04098,-0.159999 0.0625,-0.326875 0.0625,-0.5 v -1 c 0,-1.108 -0.892,-2 -2,-2 H 17 z"
     transform="scale(0.28222223,0.28222223)"
     id="path21"
     style="fill:#75808f" />
</svg>
