<?xml version="1.0" encoding="UTF-8" standalone="no"?>
<svg
   xmlns:dc="http://purl.org/dc/elements/1.1/"
   xmlns:cc="http://creativecommons.org/ns#"
   xmlns:rdf="http://www.w3.org/1999/02/22-rdf-syntax-ns#"
   xmlns:svg="http://www.w3.org/2000/svg"
   xmlns="http://www.w3.org/2000/svg"
   xmlns:xlink="http://www.w3.org/1999/xlink"
   xmlns:sodipodi="http://sodipodi.sourceforge.net/DTD/sodipodi-0.dtd"
   xmlns:inkscape="http://www.inkscape.org/namespaces/inkscape"
   width="48"
   viewBox="0 0 13.546667 13.546667"
   height="48"
   id="svg103235"
   version="1.1"
   inkscape:version="0.48.4 r9939"
   sodipodi:docname="clementine.svg">
  <metadata
     id="metadata103283">
    <rdf:RDF>
      <cc:Work
         rdf:about="">
        <dc:format>image/svg+xml</dc:format>
        <dc:type
           rdf:resource="http://purl.org/dc/dcmitype/StillImage" />
      </cc:Work>
    </rdf:RDF>
  </metadata>
  <sodipodi:namedview
     pagecolor="#ffffff"
     bordercolor="#666666"
     borderopacity="1"
     objecttolerance="10"
     gridtolerance="10"
     guidetolerance="10"
     inkscape:pageopacity="0"
     inkscape:pageshadow="2"
     inkscape:window-width="1280"
     inkscape:window-height="745"
     id="namedview103281"
     showgrid="false"
     inkscape:snap-bbox="true"
     inkscape:bbox-nodes="true"
     inkscape:zoom="4.9166667"
     inkscape:cx="4.3058458"
     inkscape:cy="17.232871"
     inkscape:window-x="0"
     inkscape:window-y="22"
     inkscape:window-maximized="1"
     inkscape:current-layer="svg103235" />
  <defs
     id="defs103237">
    <linearGradient
       id="0">
      <stop
         stop-color="#df671b"
         id="stop103240" />
      <stop
         offset="1"
         stop-color="#df7c1b"
         id="stop103242" />
    </linearGradient>
    <linearGradient
       gradientTransform="matrix(1.10528,0,0,1.10528,-134.28288,-295.77052)"
       xlink:href="#0"
       id="1"
       y1="279.1"
       y2="268.33"
       gradientUnits="userSpaceOnUse"
       x2="0" />
    <linearGradient
       inkscape:collect="always"
       xlink:href="#0"
       id="linearGradient103286"
       gradientUnits="userSpaceOnUse"
       gradientTransform="matrix(1.10528,0,0,1.10528,-134.28288,-295.77052)"
       y1="279.1"
       x2="0"
       y2="268.33" />
    <linearGradient
       inkscape:collect="always"
       xlink:href="#0-1"
       id="linearGradient103286-1"
       gradientUnits="userSpaceOnUse"
       gradientTransform="matrix(3.9163464,0,0,3.9163464,-475.80547,-1048.0058)"
       y1="279.10001"
       x2="0"
       y2="268.32999" />
    <linearGradient
       id="0-1">
      <stop
         stop-color="#df671b"
         id="stop103240-9" />
      <stop
         offset="1"
         stop-color="#df7c1b"
         id="stop103242-1" />
    </linearGradient>
  </defs>
  <rect
     style="opacity:0.5;fill:#ffffff;fill-rule:evenodd"
     id="rect103247"
     height="12.982"
     rx="0.5"
     y="0.28200001"
     x="0.28200001"
     width="12.982" />
  <rect
     style="fill:url(#linearGradient103286);fill-rule:evenodd"
     id="rect103249"
     height="11.853"
     rx="0.5"
     y="0.847"
     x="0.847"
     width="11.853" />
  <path
     inkscape:connector-curvature="0"
     style="fill:#f9f9f9;fill-opacity:1;fill-rule:evenodd"
     d="m 4.3218609,2.8134022 c -1.2852821,0 -2.4793949,0.3865039 -3.4748609,1.0406945 l 0,1.1288889 C 1.093536,4.7515013 1.329679,4.551559 1.5701941,4.3920828 2.5616525,7.0947885 2.5988925,7.1167476 1.8612358,4.2156939 2.5903099,3.8118652 3.3528331,3.6842469 4.3218609,3.6777078 c 0.084086,-5.645e-4 0.1631484,0.00518 0.2469444,0.00882 C 4.5571803,5.1970537 4.3252278,8.3081937 3.4840137,9.4368057 2.9283599,8.0059376 2.6468899,7.3378417 2.5932497,7.2936807 c -0.00931,0.091119 0.2381152,0.9116458 0.6438195,2.2313198 -0.059981,0.02976 -0.1240076,0.06447 -0.1852083,0.114652 L 2.6814442,9.3662502 2.875472,9.9042365 C 2.1955041,10.006773 1.5223476,9.8812665 0.847,10.018888 l 0,0.696737 c 0.7447641,-0.177631 1.2880272,-0.7996595 2.0372914,-0.379237 0.011549,0.06115 0.0354,0.115895 0.061736,0.16757 L 0.847,11.27125 l 0,0.299861 c 0.6007166,-0.279248 1.6583567,-0.591538 2.2313192,-0.899584 0.055502,0.04819 0.1176867,0.08781 0.1940278,0.114653 L 1.9406108,12.7 l 0.2998612,0 c 0.3615748,-0.502305 0.7379761,-1.358797 1.2170833,-1.878542 0.065415,0.0068 0.1367593,0.007 0.2116667,0 C 3.592462,11.445466 3.628744,12.082295 3.739778,12.7 l 0.6438195,0 C 4.1602003,12.072151 3.8910631,11.453715 3.9249859,10.777361 c 0.24721,0.09316 0.3699688,0.206959 0.6438194,0.396875 -0.1229961,-0.184446 -0.2748587,-0.298175 -0.3792361,-0.529167 0.024522,-0.03939 0.047338,-0.07972 0.061736,-0.123472 1.2480782,0.476288 2.4114445,0.615077 3.6777085,1.375833 l 0.6879166,0.520347 C 8.5487933,12.516557 8.4736487,12.608688 8.3964442,12.7 l 1.1024306,0 c 0.00912,-0.0059 0.017351,-0.01166 0.026458,-0.01764 0.6656062,-0.99729 1.1112502,-2.311411 1.1112502,-3.5895142 0,-3.4473651 -2.816138,-6.2794446 -6.3147222,-6.2794446 z m 1.031875,0.9701389 C 7.440655,4.1938239 9.2615551,5.8235817 9.6576249,7.7434718 L 9.560611,7.866944 C 9.3850956,8.1703704 7.741378,8.6919606 7.1440832,8.8811801 6.0035306,9.124916 5.1793229,9.7049725 4.0837359,9.7454855 4.0172971,9.6590025 3.9367128,9.5865215 3.8456109,9.5338185 4.5154397,8.3565956 4.2986078,5.1867983 5.3537359,3.7835411 z m 4.145139,4.4979168 0.238125,0.2293056 C 9.7371571,8.7034766 9.7238799,8.8979969 9.6929029,9.0928468 9.5303968,10.115005 9.315915,11.122759 8.8903334,11.950347 L 7.9907499,11.650486 C 6.9575481,11.147401 5.4062016,10.822939 4.304222,10.098263 5.8854666,9.1900331 7.7641522,8.8296602 9.4988749,8.2814579 z M 5.4066526,12.047361 C 5.4587736,12.198916 5.5614992,12.445895 5.6712359,12.7 l 0.1499306,0 C 5.6743203,12.441694 5.5350056,12.189169 5.4066526,12.047361 z"
     id="rect103249-4" />
</svg>
