<?xml version="1.0" encoding="UTF-8" standalone="no"?>
<svg
   xmlns:dc="http://purl.org/dc/elements/1.1/"
   xmlns:cc="http://creativecommons.org/ns#"
   xmlns:rdf="http://www.w3.org/1999/02/22-rdf-syntax-ns#"
   xmlns:svg="http://www.w3.org/2000/svg"
   xmlns="http://www.w3.org/2000/svg"
   xmlns:xlink="http://www.w3.org/1999/xlink"
   xmlns:sodipodi="http://sodipodi.sourceforge.net/DTD/sodipodi-0.dtd"
   xmlns:inkscape="http://www.inkscape.org/namespaces/inkscape"
   width="48"
   height="48"
   id="svg9578"
   version="1.1"
   inkscape:version="0.48.4 r9939"
   sodipodi:docname="deja-dup.svg">
  <metadata
     id="metadata9688">
    <rdf:RDF>
      <cc:Work
         rdf:about="">
        <dc:format>image/svg+xml</dc:format>
        <dc:type
           rdf:resource="http://purl.org/dc/dcmitype/StillImage" />
      </cc:Work>
    </rdf:RDF>
  </metadata>
  <sodipodi:namedview
     pagecolor="#ffffff"
     bordercolor="#666666"
     borderopacity="1"
     objecttolerance="10"
     gridtolerance="10"
     guidetolerance="10"
     inkscape:pageopacity="0"
     inkscape:pageshadow="2"
     inkscape:window-width="1280"
     inkscape:window-height="745"
     id="namedview9686"
     showgrid="false"
     inkscape:zoom="4.9166667"
     inkscape:cx="-1.8305085"
     inkscape:cy="24"
     inkscape:window-x="0"
     inkscape:window-y="22"
     inkscape:window-maximized="1"
     inkscape:current-layer="svg9578" />
  <defs
     id="defs9580">
    <clipPath
       id="clipPath9582">
      <rect
         width="42"
         x="307"
         y="223"
         rx="9"
         height="42"
         transform="rotate(90)"
         fill="url(#3)"
         color="#bebebe"
         id="rect9584" />
    </clipPath>
    <clipPath
       id="clipPath9586">
      <rect
         width="240"
         x="24"
         y="36"
         rx="50"
         height="240"
         fill="#986767"
         color="#bebebe"
         id="rect9588" />
    </clipPath>
    <clipPath
       id="clipPath9590">
      <rect
         width="16"
         x="432"
         y="116"
         rx="2"
         height="16"
         opacity="0.2"
         fill="#6d6d6d"
         color="#bebebe"
         id="rect9592" />
    </clipPath>
    <clipPath
       id="clipPath9594">
      <path
         d="m 98.03125,23.191212 c -41.492132,1.05238 -74.84375,35.06824 -74.84375,76.812498 0,42.40687 34.405632,76.8125 76.8125,76.8125 42.40687,0 76.8125,-34.40563 76.8125,-76.8125 0,-42.406866 -34.40563,-76.812498 -76.8125,-76.812498 -0.662607,0 -1.310145,-0.0167 -1.96875,0 z M 100,50.659962 c 27.24464,0 49.34375,22.099114 49.34375,49.343748 -1e-5,27.24464 -22.09911,49.34375 -49.34375,49.34375 -27.244636,-1e-5 -49.34375,-22.09911 -49.34375,-49.34375 0,-27.244634 22.099114,-49.343748 49.34375,-49.343748 z"
         id="path9596" />
    </clipPath>
    <clipPath
       id="clipPath9598">
      <path
         d="m 152,204 a 8,8 0 1 1 -16,0 8,8 0 1 1 16,0 z"
         id="path9600" />
    </clipPath>
    <clipPath
       id="clipPath9602">
      <path
         d="m 145,215 c 33.13708,0 60,-26.86292 60,-60 0,-33.13708 -26.86292,-60 -60,-60 -33.13708,0 -60,26.86292 -60,60 0,12.50698 3.8285,24.10633 10.375,33.71875 L 89,211 111.28125,204.625 C 120.89367,211.1715 132.49302,215 145,215 z"
         id="path9604" />
    </clipPath>
    <clipPath
       id="clipPath9606">
      <rect
         width="16"
         x="432"
         y="116"
         rx="3"
         height="16"
         color="#bebebe"
         id="rect9608" />
    </clipPath>
    <clipPath
       id="clipPath9610">
      <path
         d="m 144,70 c -49.705627,0 -90,40.29437 -90,90 0,49.70563 40.294373,90 90,90 49.70563,0 90,-40.29437 90,-90 0,-49.70563 -40.29437,-90 -90,-90 z m 0,32.1875 c 32.03251,0 58,25.96748 58,58 0,32.03252 -25.96749,58 -58,58 -32.03251,0 -58,-25.96748 -58,-58 0,-32.03252 25.96749,-58 58,-58 z"
         id="path9612" />
    </clipPath>
    <clipPath
       id="clipPath9614">
      <rect
         width="22"
         x="433"
         y="77"
         rx="3"
         height="22"
         opacity="0.2"
         fill="#6d6d6d"
         color="#bebebe"
         id="rect9616" />
    </clipPath>
    <clipPath
       id="clipPath9618">
      <rect
         width="30"
         x="433"
         y="29"
         rx="4"
         height="30"
         opacity="0.2"
         fill="#6d6d6d"
         color="#bebebe"
         id="rect9620" />
    </clipPath>
    <clipPath
       id="clipPath9622">
      <rect
         width="90"
         x="307"
         y="31"
         rx="18.75"
         height="90"
         fill="url(#1)"
         color="#bebebe"
         id="rect9624" />
    </clipPath>
    <clipPath
       id="clipPath9626">
      <rect
         width="60"
         x="306"
         y="142"
         rx="12.5"
         height="60"
         transform="matrix(0 -1 1 0 0 0)"
         fill="url(#0)"
         color="#bebebe"
         id="rect9628" />
    </clipPath>
    <clipPath
       id="clipPath9630">
      <rect
         width="30"
         x="433"
         y="29"
         rx="6"
         height="30"
         color="#bebebe"
         id="rect9632" />
    </clipPath>
    <clipPath
       id="clipPath9634">
      <rect
         width="22"
         x="433"
         y="77"
         rx="5"
         height="22"
         color="#bebebe"
         id="rect9636" />
    </clipPath>
    <clipPath
       id="clipPath9638">
      <rect
         width="22"
         x="433"
         y="77"
         rx="4"
         height="22"
         color="#bebebe"
         id="rect9640" />
    </clipPath>
    <clipPath
       id="clipPath9642">
      <rect
         width="20"
         x="434"
         y="78"
         rx="4"
         height="20"
         color="#bebebe"
         id="rect9644" />
    </clipPath>
    <linearGradient
       gradientTransform="matrix(-1 0 0 -1 289 315)"
       xlink:href="#2"
       y1="40"
       y2="276"
       x1="265"
       x2="264"
       gradientUnits="userSpaceOnUse"
       id="linearGradient9646" />
    <linearGradient
       gradientTransform="matrix(.25 0 0 .25 299.99999 131.99999)"
       id="0"
       xlink:href="#2"
       y1="230"
       y2="90"
       x2="0"
       gradientUnits="userSpaceOnUse" />
    <linearGradient
       gradientTransform="matrix(.375 0 0 .375 298 16)"
       id="1"
       xlink:href="#2"
       y1="230"
       y2="90"
       x2="0"
       gradientUnits="userSpaceOnUse" />
    <linearGradient
       id="2">
      <stop
         stop-color="#151515"
         id="stop9651" />
      <stop
         offset="1"
         stop-color="#222"
         id="stop9653" />
    </linearGradient>
    <linearGradient
       gradientTransform="matrix(.175 0 0 .175 302.79999 215.99997)"
       id="3"
       xlink:href="#2"
       y1="280"
       y2="40"
       x2="0"
       gradientUnits="userSpaceOnUse" />
    <linearGradient
       xlink:href="#5"
       id="4"
       y1="46.752"
       x2="0"
       y2="-24.433"
       gradientUnits="userSpaceOnUse" />
    <linearGradient
       id="5">
      <stop
         stop-color="#383c35"
         id="stop9658" />
      <stop
         offset="1"
         stop-color="#535550"
         id="stop9660" />
    </linearGradient>
    <linearGradient
       inkscape:collect="always"
       xlink:href="#5"
       id="linearGradient9717"
       gradientUnits="userSpaceOnUse"
       y1="46.752"
       x2="0"
       y2="-24.433"
       gradientTransform="matrix(0.83730054,0,0,0.66025023,29.782123,17.1318)" />
    <linearGradient
       gradientTransform="matrix(1.00003,0,0,1.00003,-3.6e-4,-3.6e-4)"
       xlink:href="#0-3"
       id="1-4"
       y1="6.7729998"
       y2="12.7"
       gradientUnits="userSpaceOnUse"
       x2="0" />
    <linearGradient
       id="0-3">
      <stop
         stop-color="#4b4b4b"
         id="stop7988" />
      <stop
         offset="1"
         stop-color="#2d2d2d"
         id="stop7990" />
    </linearGradient>
    <linearGradient
       y2="12.7"
       x2="0"
       y1="6.7729998"
       gradientTransform="matrix(1.00003,0,0,1.00003,-3.6e-4,-3.6e-4)"
       gradientUnits="userSpaceOnUse"
       id="linearGradient9707"
       xlink:href="#0-3"
       inkscape:collect="always" />
  </defs>
  <g
     style="fill-rule:evenodd"
     transform="matrix(3.543307,0,0,3.543307,0.00118105,0.00118105)"
     id="g7993">
    <rect
       style="opacity:0.5;fill:#ffffff"
       width="12.982"
       x="0.28200001"
       y="0.28200001"
       rx="0.5"
       height="12.982"
       id="rect7995" />
    <rect
       style="fill:url(#linearGradient9707)"
       width="11.853"
       x="0.847"
       y="0.847"
       rx="0.5"
       height="11.853"
       id="rect7997" />
  </g>
  <g
     id="g9672"
     transform="matrix(2.3108524,0,0,2.3108524,8.3478261,8.3478)">
    <path
       style="fill:#d09d28"
       inkscape:connector-curvature="0"
       id="path9674"
       d="M 10.126048,6.9803078 6.3405927,3.0517743 9.369778,0.28223352 13.264445,4.221436 l 0,2.5518975 z" />
    <path
       style="fill:#81a537"
       inkscape:connector-curvature="0"
       id="path9676"
       d="m 4.176889,13.264456 3.0291852,-2.596444 -4.3838519,-3.8946785 -2.54000007,0 0,2.5400001 z" />
    <path
       style="fill:#e4cb4d"
       inkscape:connector-curvature="0"
       id="path9678"
       d="M 0.28222223,6.7733335 5.0423705,6.7733448 3.7441482,5.4751225 9.369778,0.28223352 l -5.192889,0 L 1.5804445,3.3114188 0.28222222,2.0131965 z" />
    <path
       style="fill:#abcc5b"
       inkscape:connector-curvature="0"
       id="path9680"
       d="M 4.176889,13.264456 9.8025187,8.071567 8.5042965,6.7733448 l 4.7601485,-1.13e-5 0,4.7601595 -1.298223,-1.298222 -3.0291848,3.029185 z" />
    <path
       style="fill:#5f7b27"
       inkscape:connector-curvature="0"
       id="path9682"
       d="m 1,33 9,-9 -9,0 z"
       transform="scale(0.28222223,0.28222223)" />
    <path
       style="fill:#9b7522"
       inkscape:connector-curvature="0"
       id="path9684"
       d="m 22.466666,10.813373 20.439334,0 L 33.2,1 z"
       transform="scale(0.28222223,0.28222223)" />
  </g>
</svg>
