<?xml version="1.0" encoding="UTF-8" standalone="no"?>
<svg xmlns:dc="http://purl.org/dc/elements/1.1/" xmlns:cc="http://creativecommons.org/ns#" xmlns:rdf="http://www.w3.org/1999/02/22-rdf-syntax-ns#" xmlns:svg="http://www.w3.org/2000/svg" xmlns="http://www.w3.org/2000/svg" xmlns:xlink="http://www.w3.org/1999/xlink" xmlns:sodipodi="http://sodipodi.sourceforge.net/DTD/sodipodi-0.dtd" xmlns:inkscape="http://www.inkscape.org/namespaces/inkscape" width="48" viewBox="0 0 13.546667 13.546667" height="48" id="svg26623" version="1.1" inkscape:version="0.48.4 r9939" sodipodi:docname="evolution.svg">
  <metadata id="metadata26649">
    <rdf:RDF>
      <cc:Work rdf:about="">
        <dc:format>image/svg+xml</dc:format>
        <dc:type rdf:resource="http://purl.org/dc/dcmitype/StillImage" />
      </cc:Work>
    </rdf:RDF>
  </metadata>
  <sodipodi:namedview pagecolor="#ffffff" bordercolor="#666666" borderopacity="1" objecttolerance="10" gridtolerance="10" guidetolerance="10" inkscape:pageopacity="0" inkscape:pageshadow="2" inkscape:window-width="1280" inkscape:window-height="745" id="namedview26647" showgrid="false" inkscape:zoom="4.9166667" inkscape:cx="24" inkscape:cy="24" inkscape:window-x="0" inkscape:window-y="22" inkscape:window-maximized="1" inkscape:current-layer="svg26623" />
  <defs id="defs26625">
    <linearGradient id="linearGradient4460">
      <stop offset="0" style="stop-color:#294059" id="stop26628" />
      <stop offset="1" style="stop-color:#3c5e82" id="stop26630" />
    </linearGradient>
    <linearGradient gradientTransform="matrix(1.09524 0 0 1.09524 -133.00183 -293.02198)" xlink:href="#linearGradient4460" id="linearGradient3870" y1="279.096" y2="268.33" gradientUnits="userSpaceOnUse" x2="0" />
  </defs>
  <g style="fill-rule:evenodd" id="g26633">
    <rect width="12.982" x=".282" y=".283" rx="0.5" height="12.982" style="opacity:.5;fill:#fff" id="rect26635" />
    <rect width="11.746" x="0.89999998" y="0.90100002" rx="0.5" height="11.746" style="fill:url(#linearGradient3870)" id="rect26637" />
  </g>
  <path style="fill:#ad3f3f" d="m 3.8883951,9.5955558 5.7698764,0 c 0.5017285,0 0.5017285,0 0.5017285,-0.4838097 l 0,-4.1123807 -3.3866665,-2.1771429 -3.3866667,2.1771429 0,4.1123807 c 0,0.4838097 0,0.4838097 0.5017283,0.4838097 z" id="path26639" />
  <path style="fill:#f9f9f9" d="m 3.9511112,3.386667 0,5.6444446 5.6444446,0 0,-5.6444446 z" id="path26641" />
  <path style="fill:#d44d4d" d="m 3.8883951,9.5955558 5.7698764,0 c 0.5017285,0 0.5017285,0 0.5017285,-0.4753218 l 0,-4.0402337 -6.7733332,4.0402337 c 0,0.4753218 0,0.4753218 0.5017283,0.4753218 z" id="path26643" />
  <path style="fill:#fa5a5a" d="m 9.6582715,9.5955558 -5.7698764,0 c -0.5017283,0 -0.5017283,0 -0.5017283,-0.4753207 l 0,-4.0402348 L 10.16,9.1202351 c 0,0.4753207 0,0.4753207 -0.5017286,0.4753207 z" id="path26645" />
</svg>
