<?xml version="1.0" encoding="UTF-8" standalone="no"?>
<svg
   xmlns:dc="http://purl.org/dc/elements/1.1/"
   xmlns:cc="http://creativecommons.org/ns#"
   xmlns:rdf="http://www.w3.org/1999/02/22-rdf-syntax-ns#"
   xmlns:svg="http://www.w3.org/2000/svg"
   xmlns="http://www.w3.org/2000/svg"
   xmlns:xlink="http://www.w3.org/1999/xlink"
   xmlns:sodipodi="http://sodipodi.sourceforge.net/DTD/sodipodi-0.dtd"
   xmlns:inkscape="http://www.inkscape.org/namespaces/inkscape"
   width="48"
   viewBox="0 0 13.546667 13.546667"
   height="48"
   id="svg2"
   version="1.1"
   inkscape:version="0.48.4 r9939"
   sodipodi:docname="freeciv-server.svg">
  <metadata
     id="metadata22">
    <rdf:RDF>
      <cc:Work
         rdf:about="">
        <dc:format>image/svg+xml</dc:format>
        <dc:type
           rdf:resource="http://purl.org/dc/dcmitype/StillImage" />
        <dc:title />
      </cc:Work>
    </rdf:RDF>
  </metadata>
  <sodipodi:namedview
     pagecolor="#ffffff"
     bordercolor="#666666"
     borderopacity="1"
     objecttolerance="10"
     gridtolerance="10"
     guidetolerance="10"
     inkscape:pageopacity="0"
     inkscape:pageshadow="2"
     inkscape:window-width="1920"
     inkscape:window-height="1143"
     id="namedview20"
     showgrid="false"
     inkscape:zoom="8"
     inkscape:cx="2.6899605"
     inkscape:cy="44.573407"
     inkscape:window-x="0"
     inkscape:window-y="29"
     inkscape:window-maximized="1"
     inkscape:current-layer="svg2" />
  <defs
     id="defs4">
    <linearGradient
       id="linearGradient4460">
      <stop
         offset="0"
         style="stop-color:#108fc9"
         id="stop7" />
      <stop
         offset="1"
         style="stop-color:#26afee"
         id="stop9" />
    </linearGradient>
    <linearGradient
       gradientTransform="matrix(1.10525,0,0,1.10525,-134.25208,-295.76214)"
       xlink:href="#linearGradient4460"
       id="linearGradient3001"
       y1="279.096"
       y2="268.33"
       gradientUnits="userSpaceOnUse"
       x2="0" />
  </defs>
  <rect
     id="rect14"
     style="opacity:0.5;fill:#ffffff;fill-rule:evenodd"
     height="12.982"
     rx="0.2"
     y="0.28200001"
     x="0.28200001"
     width="12.982" />
  <rect
     id="rect42"
     style="fill:#b48c0e;fill-opacity:1;fill-rule:evenodd"
     height="11.746"
     rx="0.20000002"
     y="0.90000004"
     x="0.92879391"
     width="11.746" />
  <path
     style="fill:#eeeeec;fill-opacity:1;fill-rule:evenodd;stroke:none"
     d="m 6.9013212,1.4111109 c -2.9571971,0 -5.3445834,2.3785667 -5.3445834,5.335764 l 0,0.052917 c 0,2.9571973 2.3873863,5.3357641 5.3445834,5.3357641 2.9571971,0 5.3357638,-2.3785668 5.3357638,-5.3357641 l 0,-0.052917 c 0,-2.9571973 -2.3785667,-5.335764 -5.3357638,-5.335764 z"
     id="path3789"
     inkscape:connector-curvature="0" />
  <rect
     id="rect16"
     style="fill:#ae9220;fill-opacity:1;fill-rule:evenodd"
     height="9.5955563"
     rx="4.7760167"
     y="1.9755557"
     x="2.0182729"
     width="9.5528383" />
  <path
     style="fill:#b48c0e;fill-opacity:1;fill-rule:evenodd"
     d="M 22.0625 17.84375 C 12.383056 18.12143 4.6769236 20.384503 3.28125 23.25 L 3.28125 23.59375 L 5.1875 23.59375 C 6.110596 20.696869 14.201074 18.4375 24.09375 18.4375 C 33.986426 18.4375 42.048936 20.696869 42.96875 23.59375 L 44.90625 23.59375 L 44.90625 23.1875 C 43.356833 20.145915 34.664253 17.84375 24.09375 17.84375 C 23.405418 17.84375 22.733522 17.8245 22.0625 17.84375 z "
     transform="scale(0.28222223,0.28222223)"
     id="use3065-7" />
  <path
     style="fill:#c2b059;fill-opacity:1"
     d="m 2.2700033,7.2856246 0.05068,-0.2545368 0.5551194,0.2326206 0.382852,0.3555367 0.3290443,0.048185 C 3.4701959,7.9337006 3.2323008,8.3628746 3.2756075,8.6601216 3.3007957,8.8330024 3.4775192,9.0793685 3.5784999,9.2200764 3.7195694,9.4166041 3.9852122,9.5326721 4.0562414,9.7800816 l 0.01186,0.4072584 0.077338,0.305444 c -0.015435,0.129405 -0.1364829,0.353831 -0.056682,0.473971 0.08775,0.13213 0.4123888,0.298291 0.5631128,0.339833 0.1439073,0.03965 0.1596188,-0.110826 0.1014854,-0.202919 L 4.9413288,10.844501 5.1792241,10.66821 5.3467486,10.087001 5.7070879,9.8530567 C 5.8547205,9.6315336 5.7477108,9.4476315 5.8029555,9.2201016 L 6.0457156,8.5328537 C 5.771103,8.4298469 5.3778712,8.3033892 5.1841448,8.074688 L 5.1334644,8.1001463 5.082785,7.871064 4.7787009,7.718342 4.7280208,7.7692488 4.6519955,7.4128976 4.2465495,7.3806242 3.942466,7.2136475 C 3.8113053,7.1949095 3.637065,7.410583 3.5877022,7.5147132 L 3.4103199,7.4892549 3.4609999,7.4383482 3.3089584,7.3365347 3.3343044,7.4383482 C 3.2250109,7.3248499 3.2063353,7.1819017 3.2329436,7.0310889 L 3.0555614,6.9547346 3.0302154,7.0310889 C 2.998524,6.9051191 3.0115616,6.7423947 3.1062413,6.6492845 2.9673564,6.5541393 2.8735715,6.6434223 2.7768167,6.7510978 L 2.5740944,6.34384 c -0.055829,0.1249271 -0.035642,0.2495988 -0.025346,0.3818045 l -0.050679,0 C 2.4868762,6.5832062 2.4518492,6.4275571 2.5237372,6.2933144 2.6580765,6.0424436 3.0612078,5.9361748 3.3089555,5.9874898 l -0.025345,0.050906 0.2280634,0.2036287 C 3.512716,5.8528136 3.6649573,5.811681 3.879133,5.5283308 L 4.0290723,5.2550613 C 4.1952798,5.0714381 4.4532947,4.9463591 4.6763142,4.8637883 L 4.9560718,4.689354 C 4.8656022,4.5320761 4.6272807,4.5773331 4.4746058,4.5875406 4.7491421,4.4306186 5.1227856,4.5153312 5.3108355,4.2311895 5.1056808,4.0812425 5.1056046,3.6899443 4.7786895,3.849385 L 4.8293695,3.6966638 4.550627,3.569396 4.347321,3.9951071 4.0691609,4.333004 4.0438156,4.1548295 C 3.9366267,4.1048125 3.6413359,4.0173279 3.635583,3.8747629 3.6293301,3.7198266 4.1058491,3.4852382 4.221198,3.3912204 L 4.170519,3.5184882 4.3669061,3.5001062 c 0.041633,-0.026411 0.4370946,-0.5859725 0.4878008,-0.2361537 0.2747646,0.1046085 0.3057302,0.224 0.5828272,0.050907 L 5.2601513,3.2384939 C 5.2322007,2.9871091 5.0112842,2.9840955 4.8040252,2.9839573 L 5.4628737,2.6785139 c 0.073357,0.1807236 0.303476,0.2177326 0.3779256,0.3841818 0.05289,0.1182652 -0.1043012,0.1895837 -0.1003179,0.303066 0.00491,0.1399145 0.1402586,0.3112732 0.2038624,0.4327123 L 6.3255388,3.3799629 C 6.5358888,3.2673075 6.8740801,3.2551081 7.0416047,3.0730864 7.2355596,2.8623255 7.1289271,2.5270749 7.490103,2.5257926 c -0.073284,-0.030964 -0.191319,-0.054475 -0.2534033,0 l -0.076014,-0.076366 0.1013602,0 C 7.2090617,2.3764329 7.1732738,2.3371385 7.0846625,2.3221596 6.9828438,2.1957104 6.7485232,2.2553099 6.6031964,2.241471 6.0970741,2.1932859 5.5504076,2.3567453 5.0827773,2.5172204 3.4873509,3.0647004 2.0590437,4.826842 1.9966737,6.5729107 c -0.00708,0.1982326 0.160686,0.2862762 0.2438221,0.4380312 l 0.029502,0.27467 M 8.9851837,3.0094022 C 8.8961101,3.0826589 8.7443994,3.119092 8.6304189,3.13667 L 8.4239703,3.4227693 8.1823257,3.6249726 c -0.038851,0.092706 0.02349,0.232901 0.042645,0.3262132 L 8.4783727,3.823918 c 0.036445,0.1264796 0.1350138,0.1589832 0.228064,0.2290833 0.1502172,-0.2863285 0.020882,-0.5599215 0.3801044,-0.7127024 l -0.2280633,0.2799901 0.076025,-0.050906 0.025348,0.1527211 0.025348,-0.2036289 c 0.066926,0.2296171 -0.00306,0.5455224 -0.2534038,0.6321915 l -0.2534037,-0.021302 0,-0.1527213 C 8.3342512,4.0068534 8.3390408,4.0789687 8.3770264,4.2057246 8.2792098,4.1778059 8.2210573,4.1827155 8.1489641,4.2566313 8.0715527,4.1767277 8.0084011,4.1154146 7.9969218,4.0020946 7.9477113,3.9528626 7.9259719,3.9193225 7.9209067,3.8493723 L 7.7435244,3.8239243 7.8195501,4.231182 C 7.751945,4.1037867 7.6818006,4.0732174 7.5408073,4.1039143 l 0.076026,0.3054434 0.1013603,-0.025457 -0.076015,-0.025449 0.1013603,-0.1781753 0.050679,0.2799899 0.2280634,-0.050906 c -0.063884,0.061321 -0.1146143,0.07623 -0.2027234,0.076366 l 0.025346,0.076365 -0.1267023,0 0.1773823,0.3054434 c -0.4152004,0.00346 -0.4201163,0.2167885 -0.4054447,0.5599802 0.081039,0.00586 0.1207724,0.017923 0.1773824,0.076366 0.3353036,-0.1774647 0.4128192,-0.5073942 0.81089,-0.6108887 0.064597,0.2017707 0.2640211,0.189299 0.202722,0.4327122 C 8.8767108,5.2856116 8.9314464,5.120344 8.8078357,4.9693532 8.974474,5.069052 9.022493,5.2738293 9.1372601,5.4275189 9.2180481,5.3209697 9.1865191,5.1991483 9.3146424,5.1220754 l 0,0.076366 C 9.5293003,5.3897762 9.6773372,5.4327418 9.9481496,5.5293389 9.8550751,5.6620525 9.7428427,5.7922723 9.5680459,5.7813781 9.3540717,5.7680628 9.0810297,5.5572598 8.9345366,5.8093277 L 8.5268118,5.4847685 C 8.300649,5.3889638 8.0780089,5.4791157 7.8449034,5.4529767 l -0.1013602,0.050907 0.050681,0.025458 C 7.3299632,5.7391566 7.0726079,6.2917294 7.0243091,6.7511156 l -0.088615,0.3054445 c 0.049368,0.2982654 0.3007133,0.6072973 0.5120012,0.8102647 0.148773,0.1428967 0.2557089,-0.1369144 0.3972099,0.0043 0.18729,-0.071216 0.4699867,-0.1949999 0.6417686,0.00378 0.11284,0.1306018 -0.0046,0.2382964 0.034567,0.3780369 0.067732,0.2417845 0.2291271,0.5249558 0.2287468,0.7890624 l -0.063533,0.6363388 c 0.055513,0.3876831 0.270077,0.7137201 0.2734218,1.1199611 0.3106981,-0.03215 0.6598371,-0.189173 0.8323801,-0.458166 L 9.8663495,10.113342 9.9943692,9.9560376 9.9461562,9.7060826 C 10.018683,9.531235 10.311863,9.5126277 10.356031,9.3215984 c 0.06015,-0.2600597 -0.09703,-0.5686079 -0.0033,-0.8395881 0.144542,-0.4177951 0.547276,-0.7233914 0.558348,-1.1963202 l -0.304084,0.025458 c 0.2735,-0.3371325 0.853183,-0.5067557 0.557487,-1.0181446 l -0.126701,0.1527211 -0.05068,0 C 10.889247,6.2394939 10.733864,6.218189 10.733662,5.9621001 c 0.23721,0.2050798 0.483009,0.2116213 0.709529,0.4581654 0.245401,-0.1334282 -0.0017,-0.7150176 -0.06769,-0.9163301 C 11.156188,4.834759 10.796609,4.2004036 10.302803,3.6967276 10.126257,3.5166479 9.9852125,3.2985969 9.720052,3.2640154 L 9.7454,3.1876494 C 9.5394316,3.1602655 9.1948287,3.1585274 9.0358686,3.0094743 l -0.050678,0 z"
     id="path18"
     inkscape:connector-curvature="0" />
  <path
     style="fill:#b48c0e;fill-opacity:1;fill-rule:evenodd"
     d="M 3.28125 23.25 L 3.28125 24.5625 C 4.444554 27.729771 13.296367 30.15625 24.09375 30.15625 C 34.962052 30.15625 43.838196 27.6977 44.90625 24.5 L 44.90625 23.25 L 42.84375 23.25 C 42.90147 23.432537 42.9375 23.625218 42.9375 23.8125 L 42.9375 23.875 C 42.9375 27.033709 34.536126 29.5625 24.09375 29.5625 C 13.65137 29.5625 5.21875 27.033709 5.21875 23.875 L 5.21875 23.8125 C 5.21875 23.625219 5.2545705 23.432536 5.3125 23.25 L 3.28125 23.25 z "
     transform="scale(0.28222223,0.28222223)"
     id="use3065-7-7" />
  <g
     id="g3010"
     style="fill:#333333;fill-opacity:1"
     transform="matrix(0.28222223,0,0,0.28222223,4.5152223,4.5152223)">
    <path
       id="path3012"
       d="m 7.25,0 0,16 1.5,0 0,-16 z"
       xml:space="default"
       inkscape:connector-curvature="0"
       style="fill:#333333;fill-opacity:1" />
    <path
       id="path3014"
       d="M 10.5,12.5 C 10.5,13.328428 9.380712,14 8,14 6.6192883,14 5.5,13.328428 5.5,12.5 5.5,11.671574 6.6192883,11 8,11 c 1.380712,0 2.5,0.671574 2.5,1.5 z"
       xml:space="default"
       inkscape:connector-curvature="0"
       style="fill:#333333;fill-opacity:1" />
    <path
       id="path3016"
       d="m 3.2500001,15 0,-14 -1.5,0 0,14 z"
       xml:space="default"
       inkscape:connector-curvature="0"
       style="fill:#333333;fill-opacity:1" />
    <path
       id="path3018"
       d="M 5.0000001,5.5 C 5.0000001,6.328428 3.8807122,7 2.5000002,7 1.1192883,7 0,6.328428 0,5.5 0,4.671574 1.1192883,4 2.5000002,4 3.8807122,4 5.0000001,4.671574 5.0000001,5.5 z"
       xml:space="default"
       inkscape:connector-curvature="0"
       style="fill:#333333;fill-opacity:1" />
    <path
       id="path3020"
       d="m 14.25,15 0,-14 -1.5,0 0,14 z"
       xml:space="default"
       inkscape:connector-curvature="0"
       style="fill:#333333;fill-opacity:1" />
    <path
       id="path3022-5"
       d="M 16,5.5 C 16,6.3284278 14.880712,7 13.5,7 12.119288,7 11,6.3284278 11,5.5 11,4.671574 12.119288,4 13.5,4 14.880712,4 16,4.671574 16,5.5 z"
       xml:space="default"
       inkscape:connector-curvature="0"
       style="fill:#333333;fill-opacity:1" />
  </g>
</svg>
