<?xml version="1.0" encoding="UTF-8" standalone="no"?>
<svg
   xmlns:dc="http://purl.org/dc/elements/1.1/"
   xmlns:cc="http://creativecommons.org/ns#"
   xmlns:rdf="http://www.w3.org/1999/02/22-rdf-syntax-ns#"
   xmlns:svg="http://www.w3.org/2000/svg"
   xmlns="http://www.w3.org/2000/svg"
   xmlns:xlink="http://www.w3.org/1999/xlink"
   xmlns:sodipodi="http://sodipodi.sourceforge.net/DTD/sodipodi-0.dtd"
   xmlns:inkscape="http://www.inkscape.org/namespaces/inkscape"
   width="48"
   viewBox="0 0 13.546667 13.546667"
   height="48"
   id="svg3610"
   version="1.1"
   inkscape:version="0.48.4 r9939"
   sodipodi:docname="maps.svg">
  <metadata
     id="metadata3648">
    <rdf:RDF>
      <cc:Work
         rdf:about="">
        <dc:format>image/svg+xml</dc:format>
        <dc:type
           rdf:resource="http://purl.org/dc/dcmitype/StillImage" />
      </cc:Work>
    </rdf:RDF>
  </metadata>
  <sodipodi:namedview
     pagecolor="#ffffff"
     bordercolor="#666666"
     borderopacity="1"
     objecttolerance="10"
     gridtolerance="10"
     guidetolerance="10"
     inkscape:pageopacity="0"
     inkscape:pageshadow="2"
     inkscape:window-width="1280"
     inkscape:window-height="745"
     id="namedview3646"
     showgrid="false"
     inkscape:snap-bbox="true"
     inkscape:bbox-paths="true"
     inkscape:bbox-nodes="true"
     inkscape:zoom="3.4766083"
     inkscape:cx="-25.522703"
     inkscape:cy="8.1090913"
     inkscape:window-x="0"
     inkscape:window-y="22"
     inkscape:window-maximized="1"
     inkscape:current-layer="svg3610" />
  <defs
     id="defs3612">
    <linearGradient
       id="0">
      <stop
         id="stop3615" />
      <stop
         offset="1"
         stop-opacity="0"
         id="stop3617" />
    </linearGradient>
    <linearGradient
       id="1">
      <stop
         stop-color="#5ba638"
         id="stop3620" />
      <stop
         offset="1"
         stop-color="#6dc843"
         id="stop3622" />
    </linearGradient>
    <linearGradient
       xlink:href="#1"
       id="2"
       gradientUnits="userSpaceOnUse"
       gradientTransform="matrix(1.10525,0,0,1.10525,-134.27841,-295.76214)"
       y1="279.1"
       x2="0"
       y2="268.33" />
    <linearGradient
       xlink:href="#0"
       id="3"
       gradientUnits="userSpaceOnUse"
       y1="12.7"
       x2="0"
       y2="0.847"
       gradientTransform="matrix(1.0000282,0,0,1.0000282,-0.02652401,-5.2636938e-4)" />
    <linearGradient
       xlink:href="#1-6"
       id="2-7"
       gradientUnits="userSpaceOnUse"
       gradientTransform="matrix(3.9162401,0,0,3.9162401,-475.78963,-1047.9761)"
       y1="279.10001"
       x2="0"
       y2="268.32999" />
    <linearGradient
       id="1-6">
      <stop
         stop-color="#5ba638"
         id="stop3620-5" />
      <stop
         offset="1"
         stop-color="#6dc843"
         id="stop3622-2" />
    </linearGradient>
    <linearGradient
       inkscape:collect="always"
       xlink:href="#1-2"
       id="linearGradient3724"
       gradientUnits="userSpaceOnUse"
       gradientTransform="matrix(3.9162401,0,0,3.9162401,-475.78963,-1047.9761)"
       y1="279.10001"
       x2="0"
       y2="268.32999" />
    <linearGradient
       id="1-2">
      <stop
         stop-color="#5ba638"
         id="stop3620-9" />
      <stop
         offset="1"
         stop-color="#6dc843"
         id="stop3622-5" />
    </linearGradient>
    <linearGradient
       inkscape:collect="always"
       xlink:href="#1-61"
       id="linearGradient3761"
       gradientUnits="userSpaceOnUse"
       gradientTransform="matrix(3.9162401,0,0,3.9162401,-475.78963,-1047.9761)"
       y1="279.10001"
       x2="0"
       y2="268.32999" />
    <linearGradient
       id="1-61">
      <stop
         stop-color="#5ba638"
         id="stop3620-6" />
      <stop
         offset="1"
         stop-color="#6dc843"
         id="stop3622-9" />
    </linearGradient>
  </defs>
  <rect
     height="12.982"
     rx="0.5"
     y="0.282"
     x="0.282"
     width="12.982"
     opacity="0.5"
     fill="#ffffff"
     fill-rule="evenodd"
     id="rect3626" />
  <rect
     height="11.853"
     rx="0.5"
     y="0.847"
     x="0.847"
     width="11.853"
     fill="url(#2)"
     fill-rule="evenodd"
     id="rect3628" />
  <path
     inkscape:connector-curvature="0"
     style="fill:#868bec;fill-opacity:1"
     d="m 8.0468846,7.2843626 -6.4117363,5.4151384 10.4334017,0 c 0.08402,0 0.15994,-0.02542 0.229306,-0.06174 L 8.0468846,7.2843626 z"
     id="rect3628-8" />
  <path
     inkscape:connector-curvature="0"
     style="fill:#ebd8b5;fill-opacity:1"
     d="m 12.703084,3.5396841 -4.0569436,3.5013194 4.0569436,5.2034725 0,-8.7047919 z"
     id="rect3628-77" />
  <path
     inkscape:connector-curvature="0"
     style="fill:#ffe991;fill-opacity:1"
     d="M 12.7,2.5047217 0.85548529,12.294305 C 0.89879529,12.526616 1.1041343,12.7 1.3493743,12.7 l 0.855486,0 5.88257,-4.7889587 L 12.091458,12.7 l 0.105834,0 C 12.474292,12.7 12.7,12.474291 12.7,12.197291 l 0,-0.696736 L 8.9958333,7.1702079 12.7,4.1539579 l 0,-1.6492362 z"
     id="rect3628-7" />
  <path
     style="fill:#f3543f;fill-rule:evenodd"
     inkscape:connector-curvature="0"
     d="M 5.2155242,9.2293945 C 5.0705554,8.5177524 4.8149622,7.925536 4.5053656,7.3766643 4.2757393,6.9695326 4.0097118,6.5937408 3.7635804,6.1989382 3.6814285,6.0671462 3.6105086,5.9279118 3.5315481,5.7911209 3.3736769,5.5176262 3.2456871,5.2005126 3.253815,4.7891798 3.2612947,4.3872715 3.3779777,4.0648846 3.5456099,3.8012881 3.8212861,3.3677407 4.2830569,3.0122812 4.9026365,2.9188724 5.409223,2.8424549 5.884183,2.9714795 6.2209932,3.1684819 6.4962206,3.3294198 6.7093667,3.5444108 6.8713766,3.7977726 7.0404798,4.0622169 7.156926,4.3746308 7.1666995,4.7821489 7.1716859,4.9909194 7.1375287,5.1842692 7.0894094,5.3446461 7.0406668,5.5069677 6.9622797,5.6426616 6.8925316,5.7876054 6.7563889,6.070537 6.5857025,6.3297703 6.4144178,6.5891658 5.9042036,7.3617797 5.4253168,8.1497146 5.2155865,9.2293945 z"
     id="path3640" />
  <circle
     style="fill:#c32f20;fill-rule:evenodd"
     sodipodi:ry="183.33"
     sodipodi:rx="183.33"
     sodipodi:cy="651.04999"
     sodipodi:cx="729.54999"
     d="m 912.87999,651.04999 c 0,101.25036 -82.07964,183.33 -183.33,183.33 -101.25037,0 -183.33,-82.07964 -183.33,-183.33 0,-101.25037 82.07963,-183.33 183.33,-183.33 101.25036,0 183.33,82.07963 183.33,183.33 z"
     cx="729.54999"
     cy="651.04999"
     r="183.33"
     transform="matrix(0.00479758,0,0,0.00479758,1.6884131,1.7081667)"
     id="circle3642" />
  <rect
     width="11.853"
     x="0.84683365"
     y="0.84683365"
     rx="0.5"
     height="11.853"
     id="rect3644"
     style="opacity:0.1;fill:url(#3);fill-rule:evenodd" />
</svg>
