<?xml version="1.0" encoding="UTF-8" standalone="no"?>
<svg
   xmlns:dc="http://purl.org/dc/elements/1.1/"
   xmlns:cc="http://creativecommons.org/ns#"
   xmlns:rdf="http://www.w3.org/1999/02/22-rdf-syntax-ns#"
   xmlns:svg="http://www.w3.org/2000/svg"
   xmlns="http://www.w3.org/2000/svg"
   xmlns:xlink="http://www.w3.org/1999/xlink"
   xmlns:sodipodi="http://sodipodi.sourceforge.net/DTD/sodipodi-0.dtd"
   xmlns:inkscape="http://www.inkscape.org/namespaces/inkscape"
   width="48"
   viewBox="0 0 13.546667 13.546667"
   height="48"
   id="svg3714"
   version="1.1"
   inkscape:version="0.48.4 r9939"
   sodipodi:docname="software.svg">
  <metadata
     id="metadata3761">
    <rdf:RDF>
      <cc:Work
         rdf:about="">
        <dc:format>image/svg+xml</dc:format>
        <dc:type
           rdf:resource="http://purl.org/dc/dcmitype/StillImage" />
      </cc:Work>
    </rdf:RDF>
  </metadata>
  <sodipodi:namedview
     pagecolor="#ffffff"
     bordercolor="#666666"
     borderopacity="1"
     objecttolerance="10"
     gridtolerance="10"
     guidetolerance="10"
     inkscape:pageopacity="0"
     inkscape:pageshadow="2"
     inkscape:window-width="1280"
     inkscape:window-height="745"
     id="namedview3759"
     showgrid="false"
     inkscape:snap-bbox="true"
     inkscape:bbox-nodes="true"
     inkscape:zoom="4.9166667"
     inkscape:cx="10.912377"
     inkscape:cy="17.938286"
     inkscape:window-x="0"
     inkscape:window-y="22"
     inkscape:window-maximized="1"
     inkscape:current-layer="svg3714" />
  <defs
     id="defs3716">
    <linearGradient
       id="1">
      <stop
         stop-color="#ffffff"
         id="stop3719" />
      <stop
         offset="1"
         stop-color="#ffffff"
         stop-opacity="0"
         id="stop3721" />
    </linearGradient>
    <linearGradient
       id="2">
      <stop
         id="stop3724" />
      <stop
         offset="1"
         stop-opacity="0"
         id="stop3726" />
    </linearGradient>
    <linearGradient
       xlink:href="#1"
       id="3"
       y1="34"
       x2="0"
       y2="50"
       gradientUnits="userSpaceOnUse"
       gradientTransform="scale(0.28222223,0.28222223)" />
    <linearGradient
       xlink:href="#2"
       id="4"
       y1="34"
       x2="0"
       y2="19"
       gradientUnits="userSpaceOnUse"
       gradientTransform="matrix(0.28222223,0,0,0.28222223,7.3333333e-7,0)" />
  </defs>
  <rect
     height="12.982"
     rx="0.5"
     y="0.283"
     x="0.282"
     width="12.982"
     opacity="0.5"
     fill="#ffffff"
     fill-rule="evenodd"
     id="rect3730" />
  <rect
     height="11.853"
     rx="0.5"
     y="0.847"
     x="0.847"
     width="11.853"
     fill="#eaebe1"
     fill-rule="evenodd"
     id="rect3732" />
  <rect
     width="8.467"
     height="2.822"
     x="2.54"
     y="4.516"
     fill="#a17c5b"
     id="rect3734" />
  <path
     d="m 6.7733336,2.2577759 c -1.5586766,0 -2.8222221,1.2635066 -2.8222221,2.8222232 0,1.5586174 1.2635455,2.8222233 2.8222221,2.8222233 1.5586771,0 2.8222225,-1.2636259 2.8222225,-2.8222233 0,-1.5587166 -1.2635454,-2.8222232 -2.8222225,-2.8222232 z"
     fill="#5281b4"
     id="path3736" />
  <path
     d="M 2.5400001,4.5155556 3.3866667,5.3622224 3.1985185,6.2088889 2.5400001,6.4911112 z"
     fill="#c49a6c"
     id="path3738" />
  <path
     d="m 2.2577778,6.7733334 1.1288889,0 0,-0.2015872 c 0,-0.3359789 0,-1.8320938 0,-1.2095239 l -1.1288889,1.128889 z"
     fill="#d3b092"
     id="path3740" />
  <path
     d="M 11.006667,4.5155556 10.16,5.3622224 10.348148,6.208889 11.006667,6.4911112 z"
     fill="#c49a6c"
     id="path3742" />
  <path
     d="m 11.288888,6.7733335 -1.128888,0 0,-0.2015873 c 0,-0.3359789 0,-1.8320936 0,-1.2095238 l 1.128889,1.1087302 z"
     fill="#d3b092"
     id="path3744" />
  <path
     d="m 8.3312989,3.3866655 c -1.011823,0 -1.199874,1.340556 -0.6306675,1.340556 0.5691225,0 1.6425305,-1.340556 0.6306675,-1.340556 z m -1.6075845,0.16463 c -0.5694115,0.06861 -0.377385,0.994114 -0.0742,1.011296 0.3030765,0.01719 0.6438125,-1.079911 0.0742,-1.011296 z m -0.9521855,0.364537 c -0.02498,0.0024 -0.057961,0.01253 -0.086571,0.02352 -0.457668,0.175336 -0.0709,0.895312 0.1854915,0.846667 0.240564,-0.04553 0.275624,-0.907092 -0.09894,-0.870186 z m -0.717231,0.564444 c -0.03979,-0.0012 -0.07784,0.01767 -0.123662,0.04704 -0.3663645,0.235016 0.118333,0.793607 0.3338835,0.705556 0.188606,-0.07708 0.06832,-0.743887 -0.2102225,-0.752593 z m 2.089861,0.435093 c -0.7854355,-0.0124 -1.8142385,0.358971 -1.990933,1.0936115 -0.191367,0.7950084 0.783833,1.8932414 1.805443,1.8932414 0.5025795,0 1.078687,-0.418779 1.18714,-0.9525 0.08283,-0.4069934 -0.96545,-0.245787 -0.927454,0.02352 0.04552,0.3228 -0.26208,0.478561 -0.5564715,0.270464 C 5.7247074,6.581266 8.2109389,6.255475 8.0468799,5.3504615 7.9958194,5.0687575 7.6154224,4.9227695 7.1441589,4.9153695 z"
     fill="#eaebe1"
     id="path3746" />
  <path
     d="m 2.2577778,6.4911113 0,5.0745027 C 3.3430815,12.860378 4.9604875,12.7 6.7733335,12.7 c 1.812846,0 3.4302525,0.216367 4.5155555,-1.078397 l 0,-5.1304917 z"
     id="path3748"
     inkscape:connector-curvature="0"
     style="fill:#c49a6c"
     sodipodi:nodetypes="ccsccc" />
  <path
     d="m -42.13575,21.734539 a 3.9321249,3.734539 0 1 1 -7.86425,0 3.9321249,3.734539 0 1 1 7.86425,0 z"
     transform="matrix(0.1076602,0,0,0.11335625,9.3341212,5.8618099)"
     opacity="0.25"
     id="0" />
  <use
     transform="matrix(1 0 0 1 5.08 0)"
     xlink:href="#0"
     id="use3751" />
  <path
     d="m 4.2333334,8.4666669 c 1.1288889,4.3274071 4.2333335,4.3274071 5.3622224,0 0.059311,-0.3786021 -0.20067,-0.3860159 -0.2822222,0 -0.8466667,3.9511111 -3.9511112,3.9511111 -4.7977779,0 -0.051897,-0.3711883 -0.3341191,-0.3563606 -0.2822223,0 z"
     fill="#ffffff"
     id="path3753" />
  <path
     d="m 2.2577778,9.5955558 0,1.9539412 c 1.0853036,1.294764 2.7027096,1.150504 4.5155556,1.150504 1.8128461,0 3.4302526,0.216618 4.5155556,-1.078146 l 0,-2.0262992 z"
     id="path3755"
     style="opacity:0.06000001;fill:url(#3)"
     inkscape:connector-curvature="0"
     sodipodi:nodetypes="ccsccc" />
  <path
     d="m 2.2577778,6.4911113 0,3.1044445 9.0311122,0 0,-3.1044445 -9.0311122,0 z"
     id="path3757"
     fill="url(#4)"
     opacity="0.06" />
</svg>
