<?xml version="1.0" encoding="UTF-8" standalone="no"?>
<svg
   xmlns:dc="http://purl.org/dc/elements/1.1/"
   xmlns:cc="http://creativecommons.org/ns#"
   xmlns:rdf="http://www.w3.org/1999/02/22-rdf-syntax-ns#"
   xmlns:svg="http://www.w3.org/2000/svg"
   xmlns="http://www.w3.org/2000/svg"
   xmlns:xlink="http://www.w3.org/1999/xlink"
   xmlns:sodipodi="http://sodipodi.sourceforge.net/DTD/sodipodi-0.dtd"
   xmlns:inkscape="http://www.inkscape.org/namespaces/inkscape"
   width="48"
   viewBox="0 0 13.546667 13.546667"
   height="48"
   id="svg22791"
   version="1.1"
   inkscape:version="0.48.4 r9939"
   sodipodi:docname="alsamixergui.svg">
  <metadata
     id="metadata22919">
    <rdf:RDF>
      <cc:Work
         rdf:about="">
        <dc:format>image/svg+xml</dc:format>
        <dc:type
           rdf:resource="http://purl.org/dc/dcmitype/StillImage" />
      </cc:Work>
    </rdf:RDF>
  </metadata>
  <sodipodi:namedview
     pagecolor="#ffffff"
     bordercolor="#666666"
     borderopacity="1"
     objecttolerance="10"
     gridtolerance="10"
     guidetolerance="10"
     inkscape:pageopacity="0"
     inkscape:pageshadow="2"
     inkscape:window-width="1280"
     inkscape:window-height="745"
     id="namedview22917"
     showgrid="false"
     inkscape:snap-bbox="true"
     inkscape:snap-bbox-midpoints="true"
     inkscape:bbox-nodes="true"
     inkscape:bbox-paths="false"
     inkscape:zoom="9.8333333"
     inkscape:cx="27.365525"
     inkscape:cy="16.577574"
     inkscape:window-x="0"
     inkscape:window-y="22"
     inkscape:window-maximized="1"
     inkscape:current-layer="svg22791" />
  <defs
     id="defs22793">
    <linearGradient
       id="linearGradient4460">
      <stop
         offset="0"
         style="stop-color:#222"
         id="stop22796" />
      <stop
         offset="1"
         style="stop-color:#4e4e4e"
         id="stop22798" />
    </linearGradient>
    <linearGradient
       gradientTransform="matrix(1.10525,0,0,1.10525,-134.27874,-295.76183)"
       xlink:href="#linearGradient4460"
       id="linearGradient3212"
       y1="279.096"
       y2="268.33"
       gradientUnits="userSpaceOnUse"
       x2="0" />
    <linearGradient
       inkscape:collect="always"
       xlink:href="#linearGradient4460"
       id="linearGradient22922"
       gradientUnits="userSpaceOnUse"
       gradientTransform="matrix(1.10525,0,0,1.10525,-134.27874,-295.76183)"
       y1="279.096"
       x2="0"
       y2="268.33" />
    <linearGradient
       inkscape:collect="always"
       xlink:href="#linearGradient4460-2"
       id="linearGradient22922-6"
       gradientUnits="userSpaceOnUse"
       gradientTransform="matrix(3.9162401,0,0,3.9162401,-475.7908,-1047.975)"
       y1="279.09601"
       x2="0"
       y2="268.32999" />
    <linearGradient
       id="linearGradient4460-2">
      <stop
         offset="0"
         style="stop-color:#222"
         id="stop22796-9" />
      <stop
         offset="1"
         style="stop-color:#4e4e4e"
         id="stop22798-9" />
    </linearGradient>
    <linearGradient
       inkscape:collect="always"
       xlink:href="#linearGradient4460-4"
       id="linearGradient22960"
       gradientUnits="userSpaceOnUse"
       gradientTransform="matrix(3.9162401,0,0,3.9162401,-475.7908,-1047.975)"
       y1="279.09601"
       x2="0"
       y2="268.32999" />
    <linearGradient
       id="linearGradient4460-4">
      <stop
         offset="0"
         style="stop-color:#222"
         id="stop22796-8" />
      <stop
         offset="1"
         style="stop-color:#4e4e4e"
         id="stop22798-99" />
    </linearGradient>
  </defs>
  <rect
     id="rect22803"
     style="opacity:0.5;fill:#ffffff;fill-rule:evenodd"
     height="12.982"
     rx="0.5"
     y="0.28200001"
     x="0.28200001"
     width="12.982" />
  <rect
     id="rect22805"
     style="fill:url(#linearGradient22922);fill-rule:evenodd"
     height="11.853"
     rx="0.5"
     y="0.847"
     x="0.847"
     width="11.853" />
  <g
     style="fill:#e4cb32"
     transform="translate(0 .28222)"
     id="g22807">
    <rect
       width="1.129"
       x="4.798"
       y="8.749"
       rx=".006"
       height=".564"
       ry=".001"
       id="rect22809" />
    <rect
       width="1.129"
       x="4.798"
       y="7.898"
       rx=".006"
       ry=".001"
       height=".564"
       style="opacity:.9"
       id="rect22811" />
    <rect
       width="1.129"
       x="4.798"
       y="7.056"
       rx=".006"
       height=".557"
       ry=".001"
       style="opacity:.8"
       id="rect22813" />
    <rect
       width="1.129"
       x="4.798"
       y="6.209"
       rx=".006"
       ry=".001"
       height=".553"
       style="opacity:.7"
       id="rect22815" />
    <rect
       width="1.129"
       x="4.798"
       y="5.362"
       rx=".006"
       height=".55"
       ry=".001"
       style="opacity:.6"
       id="rect22817" />
  </g>
  <g
     style="fill:#418df0"
     transform="translate(0 .28222)"
     id="g22819">
    <rect
       width="1.129"
       x="7.62"
       y="8.752"
       rx=".006"
       height=".561"
       ry=".001"
       id="rect22821" />
    <rect
       width="1.129"
       x="7.62"
       y="7.909"
       rx=".006"
       ry=".001"
       height=".557"
       style="opacity:.9"
       id="rect22823" />
    <rect
       width="1.129"
       x="7.62"
       y="7.066"
       rx=".006"
       height=".554"
       ry=".001"
       style="opacity:.8"
       id="rect22825" />
    <rect
       width="1.129"
       x="7.62"
       y="6.223"
       rx=".006"
       ry=".001"
       height=".55"
       style="opacity:.7"
       id="rect22827" />
    <rect
       width="1.129"
       x="7.62"
       y="5.38"
       rx=".006"
       height=".546"
       ry=".001"
       style="opacity:.6"
       id="rect22829" />
    <rect
       width="1.129"
       x="7.62"
       y="4.516"
       rx=".006"
       ry=".001"
       height=".564"
       style="opacity:.5"
       id="rect22831" />
  </g>
  <g
     style="fill:#db50db"
     transform="translate(0 .28222)"
     id="g22833">
    <rect
       width="1.129"
       x="9.031"
       y="8.749"
       rx=".006"
       ry=".001"
       height=".564"
       id="rect22835" />
    <rect
       width="1.129"
       x="9.031"
       y="7.902"
       rx=".006"
       height=".561"
       ry=".001"
       style="opacity:.9"
       id="rect22837" />
    <rect
       width="1.129"
       x="9.031"
       y="7.056"
       rx=".006"
       ry=".001"
       height=".557"
       style="opacity:.8"
       id="rect22839" />
    <rect
       width="1.129"
       x="9.031"
       y="6.209"
       rx=".006"
       height=".553"
       ry=".001"
       style="opacity:.7"
       id="rect22841" />
    <rect
       width="1.129"
       x="9.031"
       y="5.362"
       rx=".006"
       ry=".001"
       height=".55"
       style="opacity:.6"
       id="rect22843" />
  </g>
  <g
     style="fill:#80d15e"
     transform="translate(0 .28222)"
     id="g22845">
    <rect
       width="1.129"
       x="6.209"
       y="8.749"
       rx=".006"
       ry=".001"
       height=".564"
       id="rect22847" />
    <rect
       width="1.129"
       x="6.209"
       y="7.902"
       rx=".006"
       height=".561"
       ry=".001"
       style="opacity:.9"
       id="rect22849" />
    <rect
       width="1.129"
       x="6.209"
       y="7.056"
       rx=".006"
       ry=".001"
       height=".557"
       style="opacity:.8"
       id="rect22851" />
  </g>
  <g
     style="fill:#c53030"
     transform="translate(0 .42333)"
     id="g22853">
    <rect
       width="1.129"
       x="3.387"
       y="8.608"
       rx=".006"
       height=".564"
       ry=".001"
       id="rect22855" />
    <rect
       width="1.129"
       x="3.387"
       y="7.768"
       rx=".006"
       ry=".001"
       height=".557"
       style="opacity:.9"
       id="rect22857" />
    <rect
       width="1.129"
       x="3.387"
       y="6.925"
       rx=".006"
       height=".554"
       ry=".001"
       style="opacity:.8"
       id="rect22859" />
    <rect
       width="1.129"
       x="3.387"
       y="6.082"
       rx=".006"
       ry=".001"
       height=".55"
       style="opacity:.7"
       id="rect22861" />
    <rect
       width="1.129"
       x="3.387"
       y="5.239"
       rx=".006"
       height=".546"
       ry=".001"
       style="opacity:.6"
       id="rect22863" />
    <rect
       width="1.129"
       x="3.387"
       y="4.374"
       rx=".006"
       ry=".001"
       height=".564"
       style="opacity:.5"
       id="rect22865" />
    <rect
       width="1.129"
       x="3.387"
       y="3.528"
       rx=".006"
       height=".564"
       ry=".001"
       style="opacity:.4"
       id="rect22867" />
  </g>
  <g
     style="fill:#db50db"
     transform="translate(-7.05544 .28222)"
     id="g22869">
    <rect
       width="1.129"
       x="9.031"
       y="8.749"
       rx=".006"
       height=".564"
       ry=".001"
       id="rect22871" />
    <rect
       width="1.129"
       x="9.031"
       y="7.902"
       rx=".006"
       ry=".001"
       height=".561"
       style="opacity:.9"
       id="rect22873" />
    <rect
       width="1.129"
       x="9.031"
       y="7.056"
       rx=".006"
       height=".557"
       ry=".001"
       style="opacity:.8"
       id="rect22875" />
    <rect
       width="1.129"
       x="9.031"
       y="6.209"
       rx=".006"
       ry=".001"
       height=".553"
       style="opacity:.7"
       id="rect22877" />
    <rect
       width="1.129"
       x="9.031"
       y="5.362"
       rx=".006"
       height=".55"
       ry=".001"
       style="opacity:.6"
       id="rect22879" />
  </g>
  <g
     style="fill:#c53030"
     transform="translate(7.05522 .42333)"
     id="g22883">
    <rect
       width="1.129"
       x="3.387"
       y="8.608"
       rx=".006"
       ry=".001"
       height=".564"
       id="rect22885" />
    <rect
       width="1.129"
       x="3.387"
       y="7.768"
       rx=".006"
       height=".557"
       ry=".001"
       style="opacity:.9"
       id="rect22887" />
    <rect
       width="1.129"
       x="3.387"
       y="6.925"
       rx=".006"
       ry=".001"
       height=".554"
       style="opacity:.8"
       id="rect22889" />
    <rect
       width="1.129"
       x="3.387"
       y="6.082"
       rx=".006"
       height=".55"
       ry=".001"
       style="opacity:.7"
       id="rect22891" />
    <rect
       width="1.129"
       x="3.387"
       y="5.239"
       rx=".006"
       ry=".001"
       height=".546"
       style="opacity:.6"
       id="rect22893" />
    <rect
       width="1.129"
       x="3.387"
       y="4.374"
       rx=".006"
       height=".564"
       ry=".001"
       style="opacity:.5"
       id="rect22895" />
    <rect
       width="1.129"
       x="3.387"
       y="3.528"
       rx=".006"
       ry=".001"
       height=".564"
       style="opacity:.4"
       id="rect22897" />
  </g>
  <g
     style="fill:#f9f9f9;stroke:#f9f9f9"
     transform="translate(-.16 -.11904)"
     id="g22899">
    <path
       style="stroke-width:.176"
       d="m 3.5479178,5.8467463 0.4247001,0 c 0.1074906,0 0.1954372,0.091436 0.1954372,0.2055212 l 0,1.6785805 c 0,0.1133036 -0.087947,0.2055211 -0.1954372,0.2055211 l -0.4247001,0 c -0.108242,0 -0.1954372,-0.092217 -0.1954372,-0.2055211 l 0,-1.6785805 c 0,-0.1140853 0.087195,-0.2055212 0.1954372,-0.2055212 z"
       id="path22901" />
    <g
       style="stroke-linejoin:round"
       id="g22903">
      <path
         style="stroke-linecap:round;stroke-width:.128"
         d="m 4.0861218,5.9428721 2.4144014,-2.1935465 0,2.7811884 0.2939077,0.4509068 -0.2939077,0.3383664 0,2.7132218 -2.4234216,-2.1177448 z"
         id="path22905" />
      <g
         style="fill-opacity:0;stroke-width:.589"
         id="g22907">
        <path
           d="m 7.2897887,5.6232921 c 0.6674933,0.7009688 0.6674933,1.8372106 0,2.5381796"
           id="path22909" />
        <path
           d="m 8.1715112,4.7371173 c 1.1335358,1.1901622 1.1335358,3.1203667 0,4.3105293"
           id="path22911" />
        <path
           d="m 9.0878111,3.8001474 c 1.6266389,1.7074884 1.6266389,4.4769804 0,6.1844689"
           id="path22913" />
      </g>
    </g>
  </g>
  <path
     inkscape:connector-curvature="0"
     style="fill:#418df0;fill-opacity:1;fill-rule:evenodd"
     d="m 0.8466531,4.7977446 0,0.5644446 0.7761111,0 c 0.027066,0 0.070556,5.64e-4 0.070556,0 l 0,-0.5644446 c 0,-5.644e-4 -0.043489,0 -0.070556,0 l -0.7761111,0 z m 0,0.8643056 0,0.546806 0.7761111,0 c 0.027066,0 0.070556,5.64e-4 0.070556,0 l 0,-0.546806 c 0,-5.64e-4 -0.043489,0 -0.070556,0 l -0.7761111,0 z m 0,0.846667 0,0.546805 0.7761111,0 c 0.027066,0 0.070556,5.65e-4 0.070556,0 l 0,-0.546805 c 0,-5.65e-4 -0.043489,0 -0.070556,0 l -0.7761111,0 z m 0,0.837847 0,0.555625 0.7761111,0 c 0.027066,0 0.070556,5.64e-4 0.070556,0 l 0,-0.555625 c 0,-5.65e-4 -0.043489,0 -0.070556,0 l -0.7761111,0 z m 0,0.846666 0,0.555625 0.7761111,0 c 0.027066,0 0.070556,5.65e-4 0.070556,0 l 0,-0.555625 c 0,-5.64e-4 -0.043489,0 -0.070556,0 l -0.7761111,0 z m 0,0.837848 0,0.564444 0.7761111,0 c 0.027066,0 0.070556,5.65e-4 0.070556,0 l 0,-0.564444 c 0,-5.65e-4 -0.043489,0 -0.070556,0 l -0.7761111,0 z"
     id="rect22805-0" />
  <path
     inkscape:connector-curvature="0"
     style="fill:#e4cb32;fill-opacity:1;fill-rule:evenodd"
     d="m 11.853239,5.6443641 0,0.546806 c 0,5.64e-4 0.03228,0 0.05292,0 l 0.79375,0 0,-0.546806 -0.79375,0 c -0.02064,0 -0.05292,-5.54e-4 -0.05292,0 z m 0,0.846667 0,0.555625 c 0,5.64e-4 0.03228,0 0.05292,0 l 0.79375,0 0,-0.555625 -0.79375,0 c -0.02064,0 -0.05292,-5.53e-4 -0.05292,0 z m 0,0.846667 0,0.555625 c 0,5.64e-4 0.03228,0 0.05292,0 l 0.79375,0 0,-0.555625 -0.79375,0 c -0.02064,0 -0.05292,-5.54e-4 -0.05292,0 z m 0,0.846666 0,0.555625 c 0,5.65e-4 0.03228,0 0.05292,0 l 0.79375,0 0,-0.555625 -0.79375,0 c -0.02064,0 -0.05292,-5.53e-4 -0.05292,0 z m 0,0.846667 0,0.564444 c 0,5.65e-4 0.03228,0 0.05292,0 l 0.776112,0 c 0.0065,-0.0019 0.01112,-0.0069 0.01764,-0.0088 l 0,-0.555625 -0.79375,0 c -0.02064,1e-6 -0.05292,-5.64e-4 -0.05292,1e-6 z"
     id="rect22805-06" />
</svg>
