<?xml version="1.0" encoding="UTF-8" standalone="no"?>
<svg
   xmlns:dc="http://purl.org/dc/elements/1.1/"
   xmlns:cc="http://creativecommons.org/ns#"
   xmlns:rdf="http://www.w3.org/1999/02/22-rdf-syntax-ns#"
   xmlns:svg="http://www.w3.org/2000/svg"
   xmlns="http://www.w3.org/2000/svg"
   xmlns:xlink="http://www.w3.org/1999/xlink"
   xmlns:sodipodi="http://sodipodi.sourceforge.net/DTD/sodipodi-0.dtd"
   xmlns:inkscape="http://www.inkscape.org/namespaces/inkscape"
   width="48"
   viewBox="0 0 13.546667 13.546667"
   height="48"
   id="svg8684"
   version="1.1"
   inkscape:version="0.48.4 r9939"
   sodipodi:docname="plan.svg">
  <metadata
     id="metadata8728">
    <rdf:RDF>
      <cc:Work
         rdf:about="">
        <dc:format>image/svg+xml</dc:format>
        <dc:type
           rdf:resource="http://purl.org/dc/dcmitype/StillImage" />
      </cc:Work>
    </rdf:RDF>
  </metadata>
  <sodipodi:namedview
     pagecolor="#ffffff"
     bordercolor="#666666"
     borderopacity="1"
     objecttolerance="10"
     gridtolerance="10"
     guidetolerance="10"
     inkscape:pageopacity="0"
     inkscape:pageshadow="2"
     inkscape:window-width="1280"
     inkscape:window-height="745"
     id="namedview8726"
     showgrid="false"
     inkscape:snap-bbox="true"
     inkscape:snap-bbox-midpoints="true"
     inkscape:bbox-paths="true"
     inkscape:zoom="4.9166667"
     inkscape:cx="-12.893727"
     inkscape:cy="36.848461"
     inkscape:window-x="0"
     inkscape:window-y="22"
     inkscape:window-maximized="1"
     inkscape:current-layer="svg8684" />
  <defs
     id="defs8686">
    <linearGradient
       id="linearGradient3789">
      <stop
         offset="0"
         style="stop-color:#f9f9f9"
         id="stop8689" />
      <stop
         offset="1"
         style="stop-color:#dbdbdb"
         id="stop8691" />
    </linearGradient>
    <linearGradient
       gradientTransform="translate(0 -13.54667)"
       xlink:href="#linearGradient3789"
       id="linearGradient3795"
       x1=".847"
       x2="12.7"
       gradientUnits="userSpaceOnUse" />
    <linearGradient
       inkscape:collect="always"
       xlink:href="#linearGradient3789-9"
       id="linearGradient8732"
       gradientUnits="userSpaceOnUse"
       gradientTransform="matrix(0,3.543307,-3.543307,0,48.000011,0)"
       x1="0.847"
       x2="12.7" />
    <linearGradient
       id="linearGradient3789-9">
      <stop
         offset="0"
         style="stop-color:#f9f9f9"
         id="stop8689-1" />
      <stop
         offset="1"
         style="stop-color:#dbdbdb"
         id="stop8691-8" />
    </linearGradient>
    <linearGradient
       inkscape:collect="always"
       xlink:href="#linearGradient3789"
       id="linearGradient9278"
       gradientUnits="userSpaceOnUse"
       gradientTransform="translate(0,-13.54667)"
       x1=".847"
       x2="12.7" />
    <linearGradient
       inkscape:collect="always"
       xlink:href="#linearGradient3789"
       id="linearGradient9282"
       gradientUnits="userSpaceOnUse"
       gradientTransform="translate(0,-13.54667)"
       x1=".847"
       x2="12.7" />
  </defs>
  <rect
     id="rect8696"
     style="opacity:0.5;fill:#ffffff;fill-rule:evenodd"
     height="12.982"
     rx="0.5"
     y="0.28200001"
     x="0.28200001"
     width="12.982" />
  <rect
     id="rect8698"
     transform="matrix(0,1,-1,0,0,0)"
     style="fill:url(#linearGradient9282);fill-rule:evenodd"
     height="11.853"
     rx="0.5"
     y="-12.7"
     x="0.847"
     width="11.853" />
  <path
     inkscape:connector-curvature="0"
     style="fill:#d64937;fill-opacity:1;fill-rule:evenodd"
     d="m 1.3493744,0.88459681 c -0.277,0 -0.50270799,0.22570839 -0.50270799,0.50270839 l 0,3.4484028 11.85333359,0 0,-3.4484028 c 0,-0.277 -0.225709,-0.50270839 -0.502709,-0.50270839 l -10.8479166,0 z"
     id="rect8698-9" />
  <g
     transform="matrix(1.2542378,0,0,1.2542378,-1.7219954,-2.0954415)"
     id="g8702">
    <g
       style="fill-opacity:0.39200003"
       id="g8704">
      <path
         d="m 16,14 c 0,1.104569 -0.895431,2 -2,2 -1.104569,0 -2,-0.895431 -2,-2 0,-1.104569 0.895431,-2 2,-2 1.104569,0 2,0.895431 2,2 z"
         transform="matrix(0.28222,0,0,0.28222,4.23333,0)"
         id="path8706"
         inkscape:connector-curvature="0" />
      <path
         d="m 16,14 c 0,1.104569 -0.895431,2 -2,2 -1.104569,0 -2,-0.895431 -2,-2 0,-1.104569 0.895431,-2 2,-2 1.104569,0 2,0.895431 2,2 z"
         transform="matrix(0.28222,0,0,0.28222,5.64444,0)"
         id="path8708"
         inkscape:connector-curvature="0" />
    </g>
    <path
       style="fill:#dcdcdc"
       d="m 9.5955558,4.2333334 c 0.2822222,0 0.2822222,-0.2822222 0.2822222,-0.2822222 0,0 0,-0.2822222 -0.2822222,-0.2822222 l -1.4111112,0 c -0.2822222,0 -0.2822222,0.2822222 -0.2822222,0.2822222 0,0 0,0.2822222 0.2822222,0.2822222 z"
       id="path8710"
       inkscape:connector-curvature="0" />
    <g
       style="fill-opacity:0.39200003"
       id="g8712">
      <path
         d="m 16,14 c 0,1.104569 -0.895431,2 -2,2 -1.104569,0 -2,-0.895431 -2,-2 0,-1.104569 0.895431,-2 2,-2 1.104569,0 2,0.895431 2,2 z"
         transform="scale(0.28222,0.28222)"
         id="path8714"
         inkscape:connector-curvature="0" />
      <path
         d="m 16,14 c 0,1.104569 -0.895431,2 -2,2 -1.104569,0 -2,-0.895431 -2,-2 0,-1.104569 0.895431,-2 2,-2 1.104569,0 2,0.895431 2,2 z"
         transform="matrix(0.28222,0,0,0.28222,1.41111,0)"
         id="path8716"
         inkscape:connector-curvature="0" />
    </g>
    <path
       style="fill:#dcdcdc"
       d="m 3.9511113,4.2333334 c -0.2822223,0 -0.2822223,-0.2822222 -0.2822223,-0.2822222 0,0 0,-0.2822222 0.2822223,-0.2822222 l 1.4111111,0 c 0.2822222,0 0.2822222,0.2822222 0.2822222,0.2822222 0,0 0,0.2822222 -0.2822222,0.2822222 z"
       id="path8718"
       inkscape:connector-curvature="0" />
  </g>
  <g
     style="line-height:125%;letter-spacing:0;word-spacing:0;fill:#888888"
     transform="matrix(0.40377,0,0,0.38456,-1.96816,-4.0015655)"
     id="g8720">
    <path
       d="m 18.262695,37.42271 -1.107422,0 0,-7.123047 c -3e-6,-0.59244 0.01823,-1.152987 0.05469,-1.681641 -0.09571,0.09571 -0.202803,0.195972 -0.321289,0.300782 -0.118493,0.104826 -0.66081,0.549161 -1.626953,1.333007 l -0.601563,-0.779297 2.645508,-2.043945 0.957031,0 0,9.994141"
       id="path8722"
       inkscape:connector-curvature="0" />
    <path
       d="m 28.639648,31.694194 c -7e-6,3.910158 -1.513026,5.865234 -4.539062,5.865235 -0.528648,-1e-6 -0.947918,-0.04557 -1.257813,-0.136719 l 0,-0.977539 c 0.364582,0.11849 0.779295,0.177735 1.244141,0.177734 1.093746,10e-7 1.918615,-0.337238 2.474609,-1.011719 0.560542,-0.679034 0.86588,-1.718095 0.916016,-3.117187 l -0.08203,0 c -0.250657,0.37826 -0.583339,0.667647 -0.998047,0.868164 -0.414718,0.195967 -0.88184,0.293949 -1.401367,0.293945 -0.884118,4e-6 -1.58594,-0.264319 -2.105469,-0.792969 -0.519532,-0.52864 -0.779298,-1.266921 -0.779297,-2.214843 -1e-6,-1.039055 0.289387,-1.859367 0.868164,-2.460938 0.583331,-0.601552 1.348956,-0.902333 2.296875,-0.902344 0.679032,1.1e-5 1.271479,0.175466 1.777344,0.526368 0.51041,0.346363 0.902337,0.854501 1.175781,1.524414 0.273431,0.665372 0.410149,1.451504 0.410156,2.358398 m -3.363281,-3.438476 c -0.651696,9e-6 -1.155276,0.209644 -1.510742,0.628906 -0.355471,0.419279 -0.533205,1.002612 -0.533203,1.75 -2e-6,0.656256 0.16406,1.173508 0.492187,1.551758 0.328123,0.373702 0.827146,0.560551 1.497071,0.560547 0.414709,4e-6 0.795242,-0.08431 1.141601,-0.25293 0.350906,-0.168615 0.626622,-0.398758 0.827149,-0.69043 0.200515,-0.291661 0.300775,-0.596999 0.300781,-0.916015 -6e-6,-0.478509 -0.09343,-0.920566 -0.280274,-1.326172 -0.186854,-0.405591 -0.448898,-0.724601 -0.786132,-0.957032 -0.332687,-0.232412 -0.715499,-0.348623 -1.148438,-0.348632"
       id="path8724"
       inkscape:connector-curvature="0" />
  </g>
</svg>
