<?xml version="1.0" encoding="UTF-8" standalone="no"?>
<svg
   xmlns:dc="http://purl.org/dc/elements/1.1/"
   xmlns:cc="http://creativecommons.org/ns#"
   xmlns:rdf="http://www.w3.org/1999/02/22-rdf-syntax-ns#"
   xmlns:svg="http://www.w3.org/2000/svg"
   xmlns="http://www.w3.org/2000/svg"
   xmlns:sodipodi="http://sodipodi.sourceforge.net/DTD/sodipodi-0.dtd"
   xmlns:inkscape="http://www.inkscape.org/namespaces/inkscape"
   width="48"
   viewBox="0 0 13.546667 13.546667"
   height="48"
   id="svg12676"
   version="1.1"
   inkscape:version="0.48.4 r9939"
   sodipodi:docname="parole.svg">
  <metadata
     id="metadata12728">
    <rdf:RDF>
      <cc:Work
         rdf:about="">
        <dc:format>image/svg+xml</dc:format>
        <dc:type
           rdf:resource="http://purl.org/dc/dcmitype/StillImage" />
      </cc:Work>
    </rdf:RDF>
  </metadata>
  <sodipodi:namedview
     pagecolor="#ffffff"
     bordercolor="#666666"
     borderopacity="1"
     objecttolerance="10"
     gridtolerance="10"
     guidetolerance="10"
     inkscape:pageopacity="0"
     inkscape:pageshadow="2"
     inkscape:window-width="1280"
     inkscape:window-height="745"
     id="namedview12726"
     showgrid="false"
     inkscape:snap-bbox="true"
     inkscape:bbox-nodes="true"
     inkscape:zoom="6.9532167"
     inkscape:cx="13.182765"
     inkscape:cy="14.30926"
     inkscape:window-x="0"
     inkscape:window-y="22"
     inkscape:window-maximized="1"
     inkscape:current-layer="svg12676" />
  <defs
     id="defs12678">
    <clipPath
       clipPathUnits="userSpaceOnUse"
       id="clipPath12680">
      <rect
         width="20"
         x="1"
         y="1"
         rx="2"
         height="20"
         style="fill:#fff;fill-rule:evenodd"
         id="rect12682" />
    </clipPath>
    <clipPath
       clipPathUnits="userSpaceOnUse"
       id="clipPath12684">
      <rect
         width="84"
         x="6"
         y="6"
         rx="6"
         height="84"
         style="fill:#fff"
         id="rect12686" />
    </clipPath>
    <clipPath
       clipPathUnits="userSpaceOnUse"
       id="clipPath12688">
      <path
         d="M 54.1,12.5 12.9,54.7 C -2.7,70.3 23,69 32.3,74.9 36.6,77.7 18.5,81.3 22.2,85 c 3.6,3.7 21.7,7.1 25.3,10.7 3.6,3.7 -7.3,7.6 -3.7,11.3 3.5,3.7 11.9,0.2 13.4,8.6 1.1,6.2 15.4,3.1 21.8,-2.2 4,-3.4 -6.9,-3.4 -3.3,-7.1 9,-9.1 17,-4.1 20.3,-12.5 1.8,-4.5 -13.6,-7.7 -9.5,-10.6 9.8,-6.9 45.8,-10.4 29.2,-27 L 73,12.5 c -5.3,-5 -14,-5 -18.9,0 z m -9.9,64.7 c 0.9,0 30.8,4 19.3,7.1 -4.4,1.2 -24.6,-7.1 -19.3,-7.1 z m 57.2,16.6 c 0,2.1 16.3,3.3 15.4,-0.5 -1.3,-6.4 -13.6,-5.9 -15.4,0.5 z m -69.5,11.1 c 3.7,3.2 9.3,-0.7 11.1,-5.2 -3.6,-4.7 -16.9,0.3 -11.1,5.2 z m 67.5,-6.7 c -4.6,4.2 0.8,8.6 5.3,5.7 1.2,-0.8 -0.1,-4.7 -5.3,-5.7 z"
         id="path12690" />
    </clipPath>
    <clipPath
       clipPathUnits="userSpaceOnUse"
       id="clipPath12692">
      <rect
         width="96"
         x="-100"
         y="-0"
         height="96"
         style="fill:#fff"
         id="rect12694" />
    </clipPath>
    <clipPath
       clipPathUnits="userSpaceOnUse"
       id="clipPath12696">
      <path
         d="M 95.311,352.545 L 476.403,352.545 L 476.403,71.4229 L 95.311,71.4229 L 95.311,352.545 z"
         id="path12698" />
    </clipPath>
    <clipPath
       clipPathUnits="userSpaceOnUse"
       id="clipPath12700">
      <path
         d="M 93.311,354.545 L 478.511,354.545 L 478.511,69.1846 L 93.311,69.1846 L 93.311,354.545 z"
         id="path12702" />
    </clipPath>
    <clipPath
       clipPathUnits="userSpaceOnUse"
       id="clipPath12704">
      <path
         d="M 93.311,69.185 L 478.511,69.185 L 478.511,354.545 L 93.311,354.545 L 93.311,69.185 z"
         id="path12706" />
    </clipPath>
    <clipPath
       clipPathUnits="userSpaceOnUse"
       id="clipPath12708">
      <path
         d="M 92.311,355.545 L 479.511,355.545 L 479.511,68.1846 L 92.311,68.1846 L 92.311,355.545 z"
         id="path12710" />
    </clipPath>
  </defs>
  <rect
     id="rect12714"
     style="opacity:0.5;fill:#ffffff;fill-rule:evenodd"
     height="12.982"
     rx="0.5"
     y="0.28299999"
     x="0.28200001"
     width="12.982" />
  <rect
     id="rect12716"
     transform="scale(1,-1)"
     style="fill:#2d2d2d;fill-rule:evenodd"
     height="11.853"
     rx="0.5"
     y="-12.7"
     x="0.847"
     width="11.853" />
  <path
     style="fill:#e8265b"
     d="m 5.3622224,2.8222225 0,5.6444444 4.2333344,-2.8222221 z"
     id="path12718" />
  <path
     inkscape:connector-curvature="0"
     style="fill:#e6e6e6;fill-opacity:1;fill-rule:evenodd"
     d="m 0.84666522,9.8777778 0,2.3195142 c 0,0.277 0.22570828,0.502708 0.50270828,0.502708 l 10.8479175,0 C 12.474291,12.7 12.7,12.474292 12.7,12.197292 l 0,-2.3195142 -11.85333478,0 z"
     id="rect12716-8" />
  <g
     id="g13259"
     transform="translate(0,0.28237871)">
    <rect
       id="rect12722"
       style="fill:#a0a0a0"
       height="1.1289999"
       rx="0.44999999"
       y="10.442"
       x="4.2329998"
       width="5.0799999" />
    <path
       id="path12724"
       transform="scale(0.28222,0.28222)"
       d="M 16.59375,37 C 15.710404,37 15,37.710404 15,38.59375 l 0,0.8125 C 15,40.289596 15.710404,41 16.59375,41 L 24,41 l 0,-4 -7.40625,0 z"
       style="fill:#e8265b"
       inkscape:connector-curvature="0" />
  </g>
</svg>
