<?xml version="1.0" encoding="UTF-8" standalone="no"?>
<svg
   xmlns:dc="http://purl.org/dc/elements/1.1/"
   xmlns:cc="http://creativecommons.org/ns#"
   xmlns:rdf="http://www.w3.org/1999/02/22-rdf-syntax-ns#"
   xmlns:svg="http://www.w3.org/2000/svg"
   xmlns="http://www.w3.org/2000/svg"
   xmlns:xlink="http://www.w3.org/1999/xlink"
   xmlns:sodipodi="http://sodipodi.sourceforge.net/DTD/sodipodi-0.dtd"
   xmlns:inkscape="http://www.inkscape.org/namespaces/inkscape"
   width="48"
   viewBox="0 0 13.546667 13.546667"
   height="48"
   id="svg2"
   version="1.1"
   inkscape:version="0.48.4 r9939"
   sodipodi:docname="playonlinux.svg">
  <metadata
     id="metadata26">
    <rdf:RDF>
      <cc:Work
         rdf:about="">
        <dc:format>image/svg+xml</dc:format>
        <dc:type
           rdf:resource="http://purl.org/dc/dcmitype/StillImage" />
      </cc:Work>
    </rdf:RDF>
  </metadata>
  <sodipodi:namedview
     pagecolor="#ffffff"
     bordercolor="#666666"
     borderopacity="1"
     objecttolerance="10"
     gridtolerance="10"
     guidetolerance="10"
     inkscape:pageopacity="0"
     inkscape:pageshadow="2"
     inkscape:window-width="1920"
     inkscape:window-height="1143"
     id="namedview24"
     showgrid="false"
     inkscape:zoom="4.9166667"
     inkscape:cx="-10.983051"
     inkscape:cy="23.59322"
     inkscape:window-x="0"
     inkscape:window-y="29"
     inkscape:window-maximized="1"
     inkscape:current-layer="svg2" />
  <defs
     id="defs4">
    <linearGradient
       id="linearGradient3833">
      <stop
         offset="0"
         style="stop-color:#3e3e3e"
         id="stop7" />
      <stop
         offset="1"
         style="stop-color:#5e5e5e"
         id="stop9" />
    </linearGradient>
    <linearGradient
       xlink:href="#linearGradient3833"
       id="linearGradient3839"
       y1="39.4"
       y2="-.814"
       x2="0"
       gradientUnits="userSpaceOnUse"
       gradientTransform="matrix(0.30673,0,0,0.29583,23.05607,1.08734)" />
    <linearGradient
       inkscape:collect="always"
       xlink:href="#linearGradient3833"
       id="linearGradient3784"
       x1="0.90000671"
       y1="6.7739425"
       x2="12.646096"
       y2="6.7739425"
       gradientUnits="userSpaceOnUse"
       gradientTransform="translate(-13.546994,-8.9120865e-4)" />
  </defs>
  <rect
     width="12.982"
     x=".282"
     y=".282"
     rx="0.2"
     height="12.982"
     style="opacity:.5;fill:#fff;fill-rule:evenodd"
     id="rect12" />
  <rect
     id="rect42"
     style="fill:url(#linearGradient3784);fill-opacity:1;fill-rule:evenodd"
     height="11.746"
     rx="0.20000154"
     y="0.90005106"
     x="-12.646987"
     width="11.746089"
     transform="matrix(0,-1,1,0,0,0)" />
  <path
     style="fill:#80cc28"
     d="m 7.8229317,3.288007 c -1.263499,-0.7294897 -1.27098,0.9508615 -1.27098,0.9508615 l 0.221382,2.5344685 2.305612,-1.0755119 c 0,0 1.4514793,-0.846642 0.18798,-1.5761318 C 8.8770017,3.896584 8.5899907,3.8925482 8.3788397,3.9925254 8.3598277,3.7596657 8.2128567,3.5131163 7.8229317,3.288007 z"
     id="path16" />
  <path
     style="fill:#fbbc09"
     d="m 6.7733337,6.773337 1.075515,2.3056216 c 0,0 0.846652,1.4514814 1.576129,0.1879618 C 9.6501087,8.8769863 9.6541117,8.5900103 9.5541567,8.3788657 9.7870017,8.3598337 10.033547,8.2128714 10.258672,7.8229373 10.98815,6.5594407 9.3078077,6.5519425 9.3078077,6.5519425 L 6.7733337,6.773337 z"
     id="path18" />
  <path
     style="fill:#00adef"
     d="m 6.7733337,6.773337 -2.305612,1.0755119 c 0,0 -1.45148,0.846642 -0.18798,1.5761319 0.389924,0.225109 0.676931,0.229145 0.888087,0.129168 0.01901,0.232859 0.165982,0.4794092 0.555906,0.7045182 1.2635,0.72949 1.27098,-0.9508615 1.27098,-0.9508615 L 6.7733337,6.773337 z"
     id="path20" />
  <path
     style="fill:#f1511b"
     d="M 6.7733337,6.773337 5.6978197,4.4677154 c 0,0 -0.846653,-1.4514813 -1.57613,-0.1879618 -0.225131,0.3899341 -0.229134,0.67691 -0.129178,0.8880546 -0.232847,0.019032 -0.47939,0.1659943 -0.704516,0.5559284 -0.729478,1.2634966 0.950864,1.2709949 0.950864,1.2709949 L 6.7733337,6.773337 z"
     id="path22" />
</svg>
