<?xml version="1.0" encoding="UTF-8" standalone="no"?>
<svg xmlns:dc="http://purl.org/dc/elements/1.1/" xmlns:cc="http://creativecommons.org/ns#" xmlns:rdf="http://www.w3.org/1999/02/22-rdf-syntax-ns#" xmlns:svg="http://www.w3.org/2000/svg" xmlns="http://www.w3.org/2000/svg" xmlns:xlink="http://www.w3.org/1999/xlink" xmlns:sodipodi="http://sodipodi.sourceforge.net/DTD/sodipodi-0.dtd" xmlns:inkscape="http://www.inkscape.org/namespaces/inkscape" width="48" height="48" id="svg22929" version="1.1" inkscape:version="0.48.4 r9939" sodipodi:docname="eekboard.svg">
  <metadata id="metadata23327">
    <rdf:RDF>
      <cc:Work rdf:about="">
        <dc:format>image/svg+xml</dc:format>
        <dc:type rdf:resource="http://purl.org/dc/dcmitype/StillImage" />
      </cc:Work>
    </rdf:RDF>
  </metadata>
  <sodipodi:namedview pagecolor="#ffffff" bordercolor="#666666" borderopacity="1" objecttolerance="10" gridtolerance="10" guidetolerance="10" inkscape:pageopacity="0" inkscape:pageshadow="2" inkscape:window-width="1280" inkscape:window-height="745" id="namedview23325" showgrid="false" inkscape:zoom="4.9166667" inkscape:cx="-10.372881" inkscape:cy="24" inkscape:window-x="0" inkscape:window-y="22" inkscape:window-maximized="1" inkscape:current-layer="svg22929" />
  <defs id="defs22931">
    <clipPath id="clipPath22933">
      <rect width="42" x="307" y="223" rx="9" height="42" transform="rotate(90)" fill="url(#3)" color="#bebebe" id="rect22935" />
    </clipPath>
    <clipPath id="clipPath22937">
      <rect width="240" x="24" y="36" rx="50" height="240" fill="#986767" color="#bebebe" id="rect22939" />
    </clipPath>
    <clipPath id="clipPath22941">
      <rect width="16" x="432" y="116" rx="2" height="16" opacity="0.2" fill="#6d6d6d" color="#bebebe" id="rect22943" />
    </clipPath>
    <clipPath id="clipPath22945">
      <path d="m 98.03125,23.191212 c -41.492132,1.05238 -74.84375,35.06824 -74.84375,76.812498 0,42.40687 34.405632,76.8125 76.8125,76.8125 42.40687,0 76.8125,-34.40563 76.8125,-76.8125 0,-42.406866 -34.40563,-76.812498 -76.8125,-76.812498 -0.662607,0 -1.310145,-0.0167 -1.96875,0 z M 100,50.659962 c 27.24464,0 49.34375,22.099114 49.34375,49.343748 -1e-5,27.24464 -22.09911,49.34375 -49.34375,49.34375 -27.244636,-1e-5 -49.34375,-22.09911 -49.34375,-49.34375 0,-27.244634 22.099114,-49.343748 49.34375,-49.343748 z" id="path22947" />
    </clipPath>
    <clipPath id="clipPath22949">
      <path d="m 152,204 a 8,8 0 1 1 -16,0 8,8 0 1 1 16,0 z" id="path22951" />
    </clipPath>
    <clipPath id="clipPath22953">
      <path d="m 145,215 c 33.13708,0 60,-26.86292 60,-60 0,-33.13708 -26.86292,-60 -60,-60 -33.13708,0 -60,26.86292 -60,60 0,12.50698 3.8285,24.10633 10.375,33.71875 L 89,211 111.28125,204.625 C 120.89367,211.1715 132.49302,215 145,215 z" id="path22955" />
    </clipPath>
    <clipPath id="clipPath22957">
      <rect width="16" x="432" y="116" rx="3" height="16" color="#bebebe" id="rect22959" />
    </clipPath>
    <clipPath id="clipPath22961">
      <path d="m 144,70 c -49.705627,0 -90,40.29437 -90,90 0,49.70563 40.294373,90 90,90 49.70563,0 90,-40.29437 90,-90 0,-49.70563 -40.29437,-90 -90,-90 z m 0,32.1875 c 32.03251,0 58,25.96748 58,58 0,32.03252 -25.96749,58 -58,58 -32.03251,0 -58,-25.96748 -58,-58 0,-32.03252 25.96749,-58 58,-58 z" id="path22963" />
    </clipPath>
    <clipPath id="clipPath22965">
      <rect width="22" x="433" y="77" rx="3" height="22" opacity="0.2" fill="#6d6d6d" color="#bebebe" id="rect22967" />
    </clipPath>
    <clipPath id="clipPath22969">
      <rect width="30" x="433" y="29" rx="4" height="30" opacity="0.2" fill="#6d6d6d" color="#bebebe" id="rect22971" />
    </clipPath>
    <clipPath id="clipPath22973">
      <rect width="90" x="307" y="31" rx="18.75" height="90" fill="url(#1)" color="#bebebe" id="rect22975" />
    </clipPath>
    <clipPath id="clipPath22977">
      <rect width="60" x="306" y="142" rx="12.5" height="60" transform="matrix(0 -1 1 0 0 0)" fill="url(#0)" color="#bebebe" id="rect22979" />
    </clipPath>
    <clipPath id="clipPath22981">
      <rect width="30" x="433" y="29" rx="6" height="30" color="#bebebe" id="rect22983" />
    </clipPath>
    <clipPath id="clipPath22985">
      <rect width="22" x="433" y="77" rx="5" height="22" color="#bebebe" id="rect22987" />
    </clipPath>
    <clipPath id="clipPath22989">
      <rect width="22" x="433" y="77" rx="4" height="22" color="#bebebe" id="rect22991" />
    </clipPath>
    <clipPath id="clipPath22993">
      <rect width="20" x="434" y="78" rx="4" height="20" color="#bebebe" id="rect22995" />
    </clipPath>
    <linearGradient gradientTransform="matrix(-1 0 0 -1 289 315)" xlink:href="#2" y1="40" y2="276" x1="265" x2="264" gradientUnits="userSpaceOnUse" id="linearGradient22997" />
    <linearGradient gradientTransform="matrix(.25 0 0 .25 299.99999 131.99999)" id="0" xlink:href="#2" y1="230" y2="90" x2="0" gradientUnits="userSpaceOnUse" />
    <linearGradient gradientTransform="matrix(.375 0 0 .375 298 16)" id="1" xlink:href="#2" y1="230" y2="90" x2="0" gradientUnits="userSpaceOnUse" />
    <linearGradient id="2">
      <stop stop-color="#151515" id="stop23002" />
      <stop offset="1" stop-color="#222" id="stop23004" />
    </linearGradient>
    <linearGradient gradientTransform="matrix(.175 0 0 .175 302.79999 215.99997)" id="3" xlink:href="#2" y1="280" y2="40" x2="0" gradientUnits="userSpaceOnUse" />
    <linearGradient xlink:href="#c" id="4" y1="45.24" x2="0" y2="-24.433" gradientUnits="userSpaceOnUse" />
    <use id="5" xlink:href="#d" />
    <clipPath id="clipPath23009">
      <use xlink:href="#5" id="use23011" />
    </clipPath>
    <clipPath id="clipPath23013">
      <use transform="matrix(8,0,0,8,-2141.5757,-54.424243)" xlink:href="#5" id="use23015" />
    </clipPath>
    <use id="6" xlink:href="#d" />
    <clipPath id="clipPath23018">
      <use xlink:href="#6" id="use23020" />
    </clipPath>
    <clipPath id="clipPath23022">
      <use transform="matrix(8,0,0,8,-2141.5757,-54.424243)" xlink:href="#6" id="use23024" />
    </clipPath>
    <use id="7" xlink:href="#d" />
    <clipPath id="clipPath23027">
      <use xlink:href="#7" id="use23029" />
    </clipPath>
    <clipPath id="clipPath23031">
      <use transform="matrix(8,0,0,8,-2141.5757,-54.424243)" xlink:href="#7" id="use23033" />
    </clipPath>
    <use id="8" xlink:href="#d" />
    <clipPath id="clipPath23036">
      <use xlink:href="#8" id="use23038" />
    </clipPath>
    <clipPath id="clipPath23040">
      <use transform="matrix(8,0,0,8,-2141.5757,-54.424243)" xlink:href="#8" id="use23042" />
    </clipPath>
    <use id="9" xlink:href="#d" />
    <clipPath id="clipPath23045">
      <use xlink:href="#9" id="use23047" />
    </clipPath>
    <clipPath id="clipPath23049">
      <use transform="matrix(8,0,0,8,-2141.5757,-54.424243)" xlink:href="#9" id="use23051" />
    </clipPath>
    <use id="A" xlink:href="#d" />
    <clipPath id="clipPath23054">
      <use xlink:href="#A" id="use23056" />
    </clipPath>
    <clipPath id="clipPath23058">
      <use transform="matrix(8,0,0,8,-2141.5757,-54.424243)" xlink:href="#A" id="use23060" />
    </clipPath>
    <use id="B" xlink:href="#d" />
    <clipPath id="clipPath23063">
      <use xlink:href="#B" id="use23065" />
    </clipPath>
    <clipPath id="clipPath23067">
      <use transform="matrix(8,0,0,8,-2141.5757,-54.424243)" xlink:href="#B" id="use23069" />
    </clipPath>
    <linearGradient y2="31.619" x2="0" y1="299.81" gradientTransform="matrix(0.11931818,0,0,0.11931818,414.13636,48.22727)" gradientUnits="userSpaceOnUse" id="C" xlink:href="#L" />
    <clipPath id="clipPath23072">
      <rect y="53" x="417" height="30" width="30" fill="url(#C)" color="#bebebe" rx="7" id="rect23074" />
    </clipPath>
    <linearGradient y2="28.571" x2="0" y1="302.86" gradientTransform="matrix(0.0875,0,0,0.0875,414.9,97.5)" gradientUnits="userSpaceOnUse" id="D" xlink:href="#L" />
    <clipPath id="clipPath23077">
      <rect width="22" height="22" x="417" y="101" fill="url(#D)" color="#bebebe" rx="5" id="rect23079" />
    </clipPath>
    <linearGradient y2="28" x2="0" y1="124" gradientUnits="userSpaceOnUse" id="E" xlink:href="#L" />
    <clipPath id="clipPath23082">
      <rect y="32" x="292" height="88" width="88" fill="url(#E)" color="#bebebe" rx="18" id="rect23084" />
    </clipPath>
    <linearGradient y2="140" x2="0" y1="204" gradientUnits="userSpaceOnUse" id="F" xlink:href="#L" />
    <clipPath id="clipPath23087">
      <rect width="60" height="60" x="290" y="142" fill="url(#F)" color="#bebebe" rx="12.5" id="rect23089" />
    </clipPath>
    <linearGradient y2="40" x2="0" y1="280" gradientTransform="translate(0,-4)" gradientUnits="userSpaceOnUse" id="G" xlink:href="#L" />
    <clipPath id="clipPath23092">
      <rect width="220" height="220" x="34" y="46" fill="url(#G)" color="#bebebe" rx="50" id="rect23094" />
    </clipPath>
    <linearGradient y2="40" x2="0" y1="280" gradientTransform="matrix(0.06666667,0,0,0.06666667,302.4,209.33333)" gradientUnits="userSpaceOnUse" id="H" xlink:href="#L" />
    <clipPath id="clipPath23097">
      <rect transform="matrix(0,1,-1,0,0,0)" y="212" x="304" height="16" width="16" fill="url(#H)" color="#bebebe" rx="3" id="rect23099" />
    </clipPath>
    <linearGradient y2="40" x2="0" y1="291.43" gradientTransform="matrix(0.11931818,0,0,0.11931818,430.13636,32.227267)" gradientUnits="userSpaceOnUse" id="I" xlink:href="#L" />
    <clipPath id="clipPath23102">
      <rect y="37" x="433" height="30" width="30" fill="url(#I)" color="#bebebe" rx="6" id="rect23104" />
    </clipPath>
    <linearGradient y2="40" x2="0" y1="291.43" gradientTransform="matrix(0.0875,0,0,0.0875,430.9,81.499996)" gradientUnits="userSpaceOnUse" id="J" xlink:href="#L" />
    <clipPath id="clipPath23107">
      <rect width="22" height="22" x="433" y="85" fill="url(#J)" color="#bebebe" rx="4" id="rect23109" />
    </clipPath>
    <linearGradient y2="40" x2="0" y1="280" gradientTransform="matrix(0.175,0,0,0.175,302.79999,215.99997)" gradientUnits="userSpaceOnUse" id="K" xlink:href="#L" />
    <clipPath id="clipPath23112">
      <rect transform="matrix(0,1,-1,0,0,0)" width="42" height="42" x="307" y="223" fill="url(#K)" color="#bebebe" rx="9" id="rect23114" />
    </clipPath>
    <linearGradient id="L">
      <stop stop-color="#620000" id="stop23117" />
      <stop offset="1" stop-color="#dd0f0f" id="stop23119" />
    </linearGradient>
    <use id="M" xlink:href="#d" />
    <clipPath id="clipPath23122">
      <use xlink:href="#M" id="use23124" />
    </clipPath>
    <clipPath id="clipPath23126">
      <use transform="matrix(8,0,0,8,-2141.5757,-54.424243)" xlink:href="#M" id="use23128" />
    </clipPath>
    <use id="N" xlink:href="#d" />
    <clipPath id="clipPath23131">
      <use xlink:href="#N" id="use23133" />
    </clipPath>
    <clipPath id="clipPath23135">
      <use transform="matrix(8,0,0,8,-2141.5757,-54.424243)" xlink:href="#N" id="use23137" />
    </clipPath>
    <use id="O" xlink:href="#d" />
    <clipPath id="clipPath23140">
      <use xlink:href="#O" id="use23142" />
    </clipPath>
    <clipPath id="clipPath23144">
      <use transform="matrix(8,0,0,8,-2141.5757,-54.424243)" xlink:href="#O" id="use23146" />
    </clipPath>
    <use id="P" xlink:href="#d" />
    <clipPath id="clipPath23149">
      <use xlink:href="#P" id="use23151" />
    </clipPath>
    <clipPath id="clipPath23153">
      <use transform="matrix(8,0,0,8,-2141.5757,-54.424243)" xlink:href="#P" id="use23155" />
    </clipPath>
    <use id="Q" xlink:href="#d" />
    <clipPath id="clipPath23158">
      <use xlink:href="#Q" id="use23160" />
    </clipPath>
    <clipPath id="clipPath23162">
      <use transform="matrix(8,0,0,8,-2141.5757,-54.424243)" xlink:href="#Q" id="use23164" />
    </clipPath>
    <use id="R" xlink:href="#d" />
    <clipPath id="clipPath23167">
      <use xlink:href="#R" id="use23169" />
    </clipPath>
    <clipPath id="clipPath23171">
      <use transform="matrix(8,0,0,8,-2141.5757,-54.424243)" xlink:href="#R" id="use23173" />
    </clipPath>
    <use id="S" xlink:href="#d" />
    <clipPath id="clipPath23176">
      <use xlink:href="#S" id="use23178" />
    </clipPath>
    <clipPath id="clipPath23180">
      <use transform="matrix(8,0,0,8,-2141.5757,-54.424243)" xlink:href="#S" id="use23182" />
    </clipPath>
    <linearGradient y2="31.619" x2="0" y1="299.81" gradientTransform="matrix(0.11931818,0,0,0.11931818,414.13636,48.22727)" gradientUnits="userSpaceOnUse" id="T" xlink:href="#L" />
    <clipPath id="clipPath23185">
      <rect y="53" x="417" height="30" width="30" fill="url(#T)" color="#bebebe" rx="7" id="rect23187" />
    </clipPath>
    <linearGradient y2="28.571" x2="0" y1="302.86" gradientTransform="matrix(0.0875,0,0,0.0875,414.9,97.5)" gradientUnits="userSpaceOnUse" id="U" xlink:href="#L" />
    <clipPath id="clipPath23190">
      <rect width="22" height="22" x="417" y="101" fill="url(#U)" color="#bebebe" rx="5" id="rect23192" />
    </clipPath>
    <linearGradient y2="28" x2="0" y1="124" gradientUnits="userSpaceOnUse" id="V" xlink:href="#L" />
    <clipPath id="clipPath23195">
      <rect y="32" x="292" height="88" width="88" fill="url(#V)" color="#bebebe" rx="18" id="rect23197" />
    </clipPath>
    <linearGradient y2="140" x2="0" y1="204" gradientUnits="userSpaceOnUse" id="W" xlink:href="#L" />
    <clipPath id="clipPath23200">
      <rect width="60" height="60" x="290" y="142" fill="url(#W)" color="#bebebe" rx="12.5" id="rect23202" />
    </clipPath>
    <linearGradient y2="40" x2="0" y1="280" gradientTransform="translate(0,-4)" gradientUnits="userSpaceOnUse" id="X" xlink:href="#L" />
    <clipPath id="clipPath23205">
      <rect width="220" height="220" x="34" y="46" fill="url(#X)" color="#bebebe" rx="50" id="rect23207" />
    </clipPath>
    <linearGradient y2="40" x2="0" y1="280" gradientTransform="matrix(0.06666667,0,0,0.06666667,302.4,209.33333)" gradientUnits="userSpaceOnUse" id="Y" xlink:href="#L" />
    <clipPath id="clipPath23210">
      <rect transform="matrix(0,1,-1,0,0,0)" y="212" x="304" height="16" width="16" fill="url(#Y)" color="#bebebe" rx="3" id="rect23212" />
    </clipPath>
    <linearGradient y2="40" x2="0" y1="291.43" gradientTransform="matrix(0.11931818,0,0,0.11931818,430.13636,32.227267)" gradientUnits="userSpaceOnUse" id="Z" xlink:href="#L" />
    <clipPath id="clipPath23215">
      <rect y="37" x="433" height="30" width="30" fill="url(#Z)" color="#bebebe" rx="6" id="rect23217" />
    </clipPath>
    <linearGradient y2="40" x2="0" y1="291.43" gradientTransform="matrix(0.0875,0,0,0.0875,430.9,81.499996)" gradientUnits="userSpaceOnUse" id="a" xlink:href="#L" />
    <clipPath id="clipPath23220">
      <rect width="22" height="22" x="433" y="85" fill="url(#a)" color="#bebebe" rx="4" id="rect23222" />
    </clipPath>
    <linearGradient y2="40" x2="0" y1="280" gradientTransform="matrix(0.175,0,0,0.175,302.79999,215.99997)" gradientUnits="userSpaceOnUse" id="b" xlink:href="#L" />
    <clipPath id="clipPath23225">
      <rect transform="matrix(0,1,-1,0,0,0)" width="42" height="42" x="307" y="223" fill="url(#b)" color="#bebebe" rx="9" id="rect23227" />
    </clipPath>
    <clipPath id="clipPath23229">
      <path d="m 489.217,197.275 c -2.603,0 -3.953,-1.367 -3.953,-3.971 l 0,0 0,-1.034 c 0,-2.604 1.35,-3.971 3.953,-3.971 l 0,0 1.035,0 c 2.62,0 3.97,1.367 3.97,3.971 l 0,0 0,1.034 c 0,2.604 -1.35,3.971 -3.97,3.971 l 0,0 -1.035,0 z" id="path23231" />
    </clipPath>
    <linearGradient id="c">
      <stop stop-color="#636770" id="stop23234" />
      <stop offset="1" stop-color="#697682" id="stop23236" />
    </linearGradient>
    <path id="d" d="m 296,26 a 10,10 0 1 1 -20,0 10,10 0 1 1 20,0 z" color="#000000" fill="none" />
    <linearGradient xlink:href="#E-7" id="P-3" gradientUnits="userSpaceOnUse" gradientTransform="matrix(0.11507836,2.6872904,-3.5509212,0.08708977,-144.60558,121.85881)" x1="0" x2="1" />
    <linearGradient x1="0" x2="1" gradientUnits="userSpaceOnUse" gradientTransform="matrix(7.70073,-237.618,-237.618,-7.70073,857.291,1026.93)" id="E-7">
      <stop stop-color="#fae017" id="stop263" />
      <stop offset="1" stop-color="#f1511d" id="stop265" />
    </linearGradient>
    <linearGradient xlink:href="#F-6" id="Q-1" gradientUnits="userSpaceOnUse" gradientTransform="matrix(-0.03287282,-4.018518,5.3099736,-0.0248777,-143.62878,124.53699)" x1="0" x2="1" />
    <linearGradient x1="0" x2="1" gradientUnits="userSpaceOnUse" gradientTransform="matrix(-2.19976,355.329,355.329,2.19976,857.059,785.547)" id="F-6">
      <stop stop-color="#ee2c21" id="stop268" />
      <stop offset="1" stop-color="#fab318" id="stop270" />
    </linearGradient>
    <linearGradient inkscape:collect="always" xlink:href="#8-7" id="linearGradient4293" x1="-16.60261" y1="3.3297653" x2="-4.7496099" y2="3.3297653" gradientUnits="userSpaceOnUse" gradientTransform="matrix(3.543307,0,0,3.543307,14.438894,-40.272946)" />
    <linearGradient id="8-7">
      <stop stop-color="#2d2d2d" id="stop229" />
      <stop offset="1" stop-color="#4b4b4b" id="stop231" />
    </linearGradient>
    <linearGradient inkscape:collect="always" xlink:href="#c" id="linearGradient23961" gradientUnits="userSpaceOnUse" gradientTransform="matrix(3.543307,0,0,3.543307,13.828734,12.201616)" x1="-16.60261" y1="3.3297653" x2="-4.7496099" y2="3.3297653" />
    <linearGradient inkscape:collect="always" xlink:href="#c" id="linearGradient23967" gradientUnits="userSpaceOnUse" y1="45.24" x2="0" y2="-24.433" />
    <linearGradient inkscape:collect="always" xlink:href="#c" id="linearGradient24008" gradientUnits="userSpaceOnUse" y1="45.24" x2="0" y2="-24.433" gradientTransform="matrix(0.83730054,0,0,0.66025023,29.782123,17.1318)" />
  </defs>
  <g id="g23963" transform="translate(52.474575,0.61016989)">
    <rect width="41.998817" x="-49.472214" y="2.3921914" rx="1.7716535" height="41.998817" id="rect471" style="fill:#f9f9f9;fill-rule:evenodd" />
    <rect width="45.999214" x="-51.474182" y="0.39022303" rx="1.7716535" height="45.999214" id="rect473" style="opacity:0.5;fill:#ffffff;fill-rule:evenodd" />
  </g>
  <rect style="fill:url(#linearGradient23961);fill-opacity:1;fill-rule:evenodd" id="rect471-7" height="41.998817" rx="1.7716535" y="3.0005913" x="-44.999409" width="41.998817" transform="matrix(0,-1,1,0,0,0)" />
  <rect style="fill:#51565e" id="rect23249" width="4" height="4" x="7" y="14.997786" rx="1" />
  <rect style="fill:#efefeb" id="rect23251" rx="1" y="13.997786" x="7" height="4" width="4" />
  <rect style="fill:#51565e" id="rect23253" rx="1" y="14.997786" x="13" height="4" width="4" />
  <rect style="fill:#efefeb" id="rect23255" width="4" height="4" x="13" y="13.997786" rx="1" />
  <rect style="fill:#51565e" id="rect23257" rx="1" y="14.997786" x="19" height="4" width="4" />
  <rect style="fill:#efefeb" id="rect23259" width="4" height="4" x="19" y="13.997786" rx="1" />
  <rect style="fill:#51565e" id="rect23261" width="4" height="4" x="25" y="14.997786" rx="1" />
  <rect style="fill:#efefeb" id="rect23263" rx="1" y="13.997786" x="25" height="4" width="4" />
  <rect style="fill:#51565e" id="rect23265" width="4" height="4" x="31" y="14.997786" rx="1" />
  <rect style="fill:#efefeb" id="rect23267" rx="1" y="13.997786" x="31" height="4" width="4" />
  <rect style="fill:#51565e" id="rect23269" rx="1" y="14.997786" x="37" height="4" width="4" />
  <rect style="fill:#efefeb" id="rect23271" width="4" height="4" x="37" y="13.997786" rx="1" />
  <rect style="fill:#51565e" id="rect23273" rx="1" y="20.997786" x="7" height="4" width="4" />
  <rect style="fill:#efefeb" id="rect23275" width="4" height="4" x="7" y="19.997786" rx="1" />
  <rect style="fill:#51565e" id="rect23277" width="4" height="4" x="13" y="20.997786" rx="1" />
  <rect style="fill:#efefeb" id="rect23279" rx="1" y="19.997786" x="13" height="4" width="4" />
  <rect style="fill:#51565e" id="rect23281" width="4" height="4" x="19" y="20.997786" rx="1" />
  <rect style="fill:#efefeb" id="rect23283" rx="1" y="19.997786" x="19" height="4" width="4" />
  <rect style="fill:#51565e" id="rect23285" rx="1" y="20.997786" x="25" height="4" width="4" />
  <rect style="fill:#efefeb" id="rect23287" width="4" height="4" x="25" y="19.997786" rx="1" />
  <rect style="fill:#51565e" id="rect23289" rx="1" y="20.997786" x="31" height="4" width="4" />
  <rect style="fill:#efefeb" id="rect23291" width="4" height="4" x="31" y="19.997786" rx="1" />
  <rect style="fill:#51565e" id="rect23293" width="4" height="4" x="37" y="20.997786" rx="1" />
  <rect style="fill:#efefeb" id="rect23295" rx="1" y="19.997786" x="37" height="4" width="4" />
  <rect style="fill:#51565e" id="rect23297" width="4" height="4" x="7" y="26.997786" rx="1" />
  <rect style="fill:#efefeb" id="rect23299" rx="1" y="25.997786" x="7" height="4" width="4" />
  <rect style="fill:#51565e" id="rect23301" rx="1" y="26.997786" x="13" height="4" width="4" />
  <rect style="fill:#efefeb" id="rect23303" width="4" height="4" x="13" y="25.997786" rx="1" />
  <rect style="fill:#51565e" id="rect23305" rx="1" y="26.997786" x="19" height="4" width="4" />
  <rect style="fill:#efefeb" id="rect23307" width="4" height="4" x="19" y="25.997786" rx="1" />
  <rect style="fill:#51565e" id="rect23309" width="4" height="4" x="25" y="26.997786" rx="1" />
  <rect style="fill:#efefeb" id="rect23311" rx="1" y="25.997786" x="25" height="4" width="4" />
  <rect style="fill:#51565e" id="rect23313" width="4" height="4" x="31" y="26.997786" rx="1" />
  <rect style="fill:#efefeb" id="rect23315" rx="1" y="25.997786" x="31" height="4" width="4" />
  <rect style="fill:#51565e" id="rect23317" rx="1" y="26.997786" x="37" height="4" width="4" />
  <rect style="fill:#efefeb" id="rect23319" width="4" height="4" x="37" y="25.997786" rx="1" />
  <rect style="fill:#51565e" id="rect23321" width="22" height="4" x="13" y="32.997784" rx="1" />
  <rect style="fill:#efefeb" id="rect23323" rx="1" y="31.997786" x="13" height="4" width="22" />
</svg>
