<?xml version="1.0" encoding="UTF-8" standalone="no"?>
<svg
   xmlns:dc="http://purl.org/dc/elements/1.1/"
   xmlns:cc="http://creativecommons.org/ns#"
   xmlns:rdf="http://www.w3.org/1999/02/22-rdf-syntax-ns#"
   xmlns:svg="http://www.w3.org/2000/svg"
   xmlns="http://www.w3.org/2000/svg"
   xmlns:xlink="http://www.w3.org/1999/xlink"
   xmlns:sodipodi="http://sodipodi.sourceforge.net/DTD/sodipodi-0.dtd"
   xmlns:inkscape="http://www.inkscape.org/namespaces/inkscape"
   width="48"
   viewBox="0 0 13.546667 13.546667"
   height="48"
   id="svg2"
   version="1.1"
   inkscape:version="0.48.4 r9939"
   sodipodi:docname="app-launcher.svg">
  <metadata
     id="metadata28">
    <rdf:RDF>
      <cc:Work
         rdf:about="">
        <dc:format>image/svg+xml</dc:format>
        <dc:type
           rdf:resource="http://purl.org/dc/dcmitype/StillImage" />
        <dc:title></dc:title>
      </cc:Work>
    </rdf:RDF>
  </metadata>
  <sodipodi:namedview
     pagecolor="#333333"
     bordercolor="#666666"
     borderopacity="1"
     objecttolerance="10"
     gridtolerance="10"
     guidetolerance="10"
     inkscape:pageopacity="1"
     inkscape:pageshadow="2"
     inkscape:window-width="1920"
     inkscape:window-height="1143"
     id="namedview26"
     showgrid="false"
     inkscape:zoom="11.081706"
     inkscape:cx="24.767736"
     inkscape:cy="23.819522"
     inkscape:window-x="0"
     inkscape:window-y="29"
     inkscape:window-maximized="1"
     inkscape:current-layer="svg2" />
  <defs
     id="defs4">
    <linearGradient
       id="linearGradient4460">
      <stop
         offset="0"
         style="stop-color:#d7d7d7;stop-opacity:1;"
         id="stop7" />
      <stop
         offset="1"
         style="stop-color:#f1f1f1;stop-opacity:1;"
         id="stop9" />
    </linearGradient>
    <linearGradient
       gradientTransform="matrix(1.09524,0,0,1.09524,-133.00183,-293.02198)"
       xlink:href="#linearGradient4460"
       id="linearGradient3102"
       y1="279.096"
       y2="268.33"
       gradientUnits="userSpaceOnUse"
       x2="0" />
    <linearGradient
       inkscape:collect="always"
       xlink:href="#linearGradient4460"
       id="linearGradient3006"
       gradientUnits="userSpaceOnUse"
       gradientTransform="matrix(1.09524,0,0,1.09524,-133.00183,-293.02198)"
       y1="279.096"
       x2="0"
       y2="268.33" />
  </defs>
  <rect
     id="rect14"
     style="opacity:0.5;fill:#ffffff;fill-rule:evenodd"
     height="12.982"
     rx="0.2"
     y="0.28299999"
     x="0.28200001"
     width="12.982" />
  <rect
     id="rect16"
     style="fill:url(#linearGradient3006);fill-rule:evenodd"
     height="11.746"
     rx="0.2"
     y="0.90100002"
     x="0.89999998"
     width="11.746" />
  <g
     transform="matrix(0.28222223,0,0,0.28222223,1.8333333e-7,-283.45333)"
     id="g3518">
    <rect
       style="fill:#cc0000;fill-opacity:1;stroke:none"
       id="rect4341"
       width="10"
       height="8"
       x="7"
       y="1016.3622"
       rx="1.25"
       ry="1.3333334" />
    <rect
       ry="1"
       rx="1"
       y="1017.3622"
       x="8"
       height="6"
       width="8"
       id="rect4233"
       style="fill:#acacac;fill-opacity:1;stroke:none" />
    <rect
       style="fill:#acacac;fill-opacity:1;stroke:none"
       id="rect4235"
       width="8"
       height="6"
       x="20"
       y="1017.3622"
       rx="1"
       ry="1" />
    <rect
       ry="1"
       rx="1"
       y="1017.3622"
       x="32"
       height="6"
       width="8"
       id="rect4237"
       style="fill:#acacac;fill-opacity:1;stroke:none" />
    <rect
       ry="1.3333333"
       rx="1.1428571"
       y="1025.3622"
       x="9"
       height="8"
       width="16"
       id="rect4339"
       style="fill:#cc0000;fill-opacity:1;stroke:none" />
    <rect
       style="fill:#acacac;fill-opacity:1;stroke:none"
       id="rect4239"
       width="14"
       height="6"
       x="10"
       y="1026.3622"
       rx="1"
       ry="1" />
    <rect
       style="fill:#4b9ef7;fill-opacity:1;stroke:none"
       id="rect4343"
       width="10"
       height="8"
       x="27"
       y="1025.3622"
       rx="1.25"
       ry="1.3333334" />
    <rect
       ry="1"
       rx="1"
       y="1026.3622"
       x="28"
       height="6"
       width="8"
       id="rect4241"
       style="fill:#acacac;fill-opacity:1;stroke:none" />
    <rect
       style="fill:#acacac;fill-opacity:1;stroke:none"
       id="rect4243"
       width="8"
       height="6"
       x="8"
       y="1035.3622"
       rx="1"
       ry="1" />
    <rect
       ry="1"
       rx="1"
       y="1035.3622"
       x="20"
       height="6"
       width="8"
       id="rect4245"
       style="fill:#acacac;fill-opacity:1;stroke:none" />
    <rect
       ry="1.3333334"
       rx="1.25"
       y="1034.3622"
       x="31"
       height="8"
       width="10"
       id="rect4345"
       style="fill:#4b9ef7;fill-opacity:1;stroke:none" />
    <rect
       style="fill:#acacac;fill-opacity:1;stroke:none"
       id="rect4247"
       width="8"
       height="6"
       x="32"
       y="1035.3622"
       rx="1"
       ry="1" />
    <path
       inkscape:connector-curvature="0"
       id="rect4251"
       transform="translate(0,1004.3622)"
       d="m 9,13 c -0.554,0 -1,0.446 -1,1 l 0,1 c 0,-0.554 0.446,-1 1,-1 l 6,0 c 0.554,0 1,0.446 1,1 l 0,-1 c 0,-0.554 -0.446,-1 -1,-1 l -6,0 z"
       style="fill:#8a8a8a;fill-opacity:1;stroke:none" />
    <path
       inkscape:connector-curvature="0"
       style="fill:#8a8a8a;fill-opacity:1;stroke:none"
       d="m 21,1017.3622 c -0.554,0 -1,0.446 -1,1 l 0,1 c 0,-0.554 0.446,-1 1,-1 l 6,0 c 0.554,0 1,0.446 1,1 l 0,-1 c 0,-0.554 -0.446,-1 -1,-1 l -6,0 z"
       id="path4254" />
    <path
       id="path4256"
       d="m 33,1017.3622 c -0.554,0 -1,0.446 -1,1 l 0,1 c 0,-0.554 0.446,-1 1,-1 l 6,0 c 0.554,0 1,0.446 1,1 l 0,-1 c 0,-0.554 -0.446,-1 -1,-1 l -6,0 z"
       style="fill:#8a8a8a;fill-opacity:1;stroke:none"
       inkscape:connector-curvature="0" />
    <path
       inkscape:connector-curvature="0"
       style="fill:#8a8a8a;fill-opacity:1;stroke:none"
       d="m 29,1026.3622 c -0.554,0 -1,0.446 -1,1 l 0,1 c 0,-0.554 0.446,-1 1,-1 l 6,0 c 0.554,0 1,0.446 1,1 l 0,-1 c 0,-0.554 -0.446,-1 -1,-1 l -6,0 z"
       id="path4258" />
    <path
       id="path4260"
       d="m 33,1035.3622 c -0.554,0 -1,0.446 -1,1 l 0,1 c 0,-0.554 0.446,-1 1,-1 l 6,0 c 0.554,0 1,0.446 1,1 l 0,-1 c 0,-0.554 -0.446,-1 -1,-1 l -6,0 z"
       style="fill:#8a8a8a;fill-opacity:1;stroke:none"
       inkscape:connector-curvature="0" />
    <path
       inkscape:connector-curvature="0"
       style="fill:#8a8a8a;fill-opacity:1;stroke:none"
       d="m 21,1035.3622 c -0.554,0 -1,0.446 -1,1 l 0,1 c 0,-0.554 0.446,-1 1,-1 l 6,0 c 0.554,0 1,0.446 1,1 l 0,-1 c 0,-0.554 -0.446,-1 -1,-1 l -6,0 z"
       id="path4262" />
    <path
       id="path4264"
       d="m 9,1035.3622 c -0.554,0 -1,0.446 -1,1 l 0,1 c 0,-0.554 0.446,-1 1,-1 l 6,0 c 0.554,0 1,0.446 1,1 l 0,-1 c 0,-0.554 -0.446,-1 -1,-1 l -6,0 z"
       style="fill:#8a8a8a;fill-opacity:1;stroke:none"
       inkscape:connector-curvature="0" />
    <path
       inkscape:connector-curvature="0"
       id="rect4268"
       d="m 11,1026.3622 c -0.554,0 -1,0.446 -1,1 l 0,1 c 0,-0.554 0.446,-1 1,-1 l 12,0 c 0.554,0 1,0.446 1,1 l 0,-1 c 0,-0.554 -0.446,-1 -1,-1 l -12,0 z"
       style="fill:#8a8a8a;fill-opacity:1;stroke:none" />
    <path
       sodipodi:nodetypes="ccccccccc"
       inkscape:connector-curvature="0"
       id="path4279"
       d="m 8,1021.3622 -3,0 0,7 5,0 0,1 -6,0 0,-9 4,0 z"
       style="fill:#cc0000;fill-opacity:1;stroke:none" />
    <path
       style="fill:#4b9ef7;fill-opacity:1;stroke:none"
       d="m 40.5,1038.3622 1.5,0 0,-9 -6,0 0,-1 7,0 0,11 -2.5,0 z"
       id="path4281"
       inkscape:connector-curvature="0"
       sodipodi:nodetypes="ccccccccc" />
  </g>
</svg>
