<?xml version="1.0" encoding="UTF-8" standalone="no"?>
<svg xmlns:dc="http://purl.org/dc/elements/1.1/" xmlns:cc="http://creativecommons.org/ns#" xmlns:rdf="http://www.w3.org/1999/02/22-rdf-syntax-ns#" xmlns:svg="http://www.w3.org/2000/svg" xmlns="http://www.w3.org/2000/svg" xmlns:xlink="http://www.w3.org/1999/xlink" xmlns:sodipodi="http://sodipodi.sourceforge.net/DTD/sodipodi-0.dtd" xmlns:inkscape="http://www.inkscape.org/namespaces/inkscape" width="48" height="48" id="svg29477" version="1.1" inkscape:version="0.48.4 r9939" sodipodi:docname="background.svg">
  <metadata id="metadata29577">
    <rdf:RDF>
      <cc:Work rdf:about="">
        <dc:format>image/svg+xml</dc:format>
        <dc:type rdf:resource="http://purl.org/dc/dcmitype/StillImage" />
      </cc:Work>
    </rdf:RDF>
  </metadata>
  <sodipodi:namedview pagecolor="#ffffff" bordercolor="#666666" borderopacity="1" objecttolerance="10" gridtolerance="10" guidetolerance="10" inkscape:pageopacity="0" inkscape:pageshadow="2" inkscape:window-width="1280" inkscape:window-height="745" id="namedview29575" showgrid="false" inkscape:zoom="4.9166667" inkscape:cx="-1.8305085" inkscape:cy="24" inkscape:window-x="0" inkscape:window-y="22" inkscape:window-maximized="1" inkscape:current-layer="svg29477" />
  <defs id="defs29479">
    <clipPath id="clipPath29481">
      <rect width="42" x="307" y="223" rx="9" height="42" transform="rotate(90)" fill="url(#3)" color="#bebebe" id="rect29483" />
    </clipPath>
    <clipPath id="clipPath29485">
      <rect width="240" x="24" y="36" rx="50" height="240" fill="#986767" color="#bebebe" id="rect29487" />
    </clipPath>
    <clipPath id="clipPath29489">
      <rect width="16" x="432" y="116" rx="2" height="16" opacity="0.2" fill="#6d6d6d" color="#bebebe" id="rect29491" />
    </clipPath>
    <clipPath id="clipPath29493">
      <path d="m 98.03125,23.191212 c -41.492132,1.05238 -74.84375,35.06824 -74.84375,76.812498 0,42.40687 34.405632,76.8125 76.8125,76.8125 42.40687,0 76.8125,-34.40563 76.8125,-76.8125 0,-42.406866 -34.40563,-76.812498 -76.8125,-76.812498 -0.662607,0 -1.310145,-0.0167 -1.96875,0 z M 100,50.659962 c 27.24464,0 49.34375,22.099114 49.34375,49.343748 -1e-5,27.24464 -22.09911,49.34375 -49.34375,49.34375 -27.244636,-1e-5 -49.34375,-22.09911 -49.34375,-49.34375 0,-27.244634 22.099114,-49.343748 49.34375,-49.343748 z" id="path29495" />
    </clipPath>
    <clipPath id="clipPath29497">
      <path d="m 152,204 a 8,8 0 1 1 -16,0 8,8 0 1 1 16,0 z" id="path29499" />
    </clipPath>
    <clipPath id="clipPath29501">
      <path d="m 145,215 c 33.13708,0 60,-26.86292 60,-60 0,-33.13708 -26.86292,-60 -60,-60 -33.13708,0 -60,26.86292 -60,60 0,12.50698 3.8285,24.10633 10.375,33.71875 L 89,211 111.28125,204.625 C 120.89367,211.1715 132.49302,215 145,215 z" id="path29503" />
    </clipPath>
    <clipPath id="clipPath29505">
      <rect width="16" x="432" y="116" rx="3" height="16" color="#bebebe" id="rect29507" />
    </clipPath>
    <clipPath id="clipPath29509">
      <path d="m 144,70 c -49.705627,0 -90,40.29437 -90,90 0,49.70563 40.294373,90 90,90 49.70563,0 90,-40.29437 90,-90 0,-49.70563 -40.29437,-90 -90,-90 z m 0,32.1875 c 32.03251,0 58,25.96748 58,58 0,32.03252 -25.96749,58 -58,58 -32.03251,0 -58,-25.96748 -58,-58 0,-32.03252 25.96749,-58 58,-58 z" id="path29511" />
    </clipPath>
    <clipPath id="clipPath29513">
      <rect width="22" x="433" y="77" rx="3" height="22" opacity="0.2" fill="#6d6d6d" color="#bebebe" id="rect29515" />
    </clipPath>
    <clipPath id="clipPath29517">
      <rect width="30" x="433" y="29" rx="4" height="30" opacity="0.2" fill="#6d6d6d" color="#bebebe" id="rect29519" />
    </clipPath>
    <clipPath id="clipPath29521">
      <rect width="90" x="307" y="31" rx="18.75" height="90" fill="url(#1)" color="#bebebe" id="rect29523" />
    </clipPath>
    <clipPath id="clipPath29525">
      <rect width="60" x="306" y="142" rx="12.5" height="60" transform="matrix(0 -1 1 0 0 0)" fill="url(#0)" color="#bebebe" id="rect29527" />
    </clipPath>
    <clipPath id="clipPath29529">
      <rect width="30" x="433" y="29" rx="6" height="30" color="#bebebe" id="rect29531" />
    </clipPath>
    <clipPath id="clipPath29533">
      <rect width="22" x="433" y="77" rx="5" height="22" color="#bebebe" id="rect29535" />
    </clipPath>
    <clipPath id="clipPath29537">
      <rect width="22" x="433" y="77" rx="4" height="22" color="#bebebe" id="rect29539" />
    </clipPath>
    <clipPath id="clipPath29541">
      <rect width="20" x="434" y="78" rx="4" height="20" color="#bebebe" id="rect29543" />
    </clipPath>
    <linearGradient gradientTransform="matrix(-1 0 0 -1 289 315)" xlink:href="#2" y1="40" y2="276" x1="265" x2="264" gradientUnits="userSpaceOnUse" id="linearGradient29545" />
    <linearGradient gradientTransform="matrix(.25 0 0 .25 299.99999 131.99999)" id="0" xlink:href="#2" y1="230" y2="90" x2="0" gradientUnits="userSpaceOnUse" />
    <linearGradient gradientTransform="matrix(.375 0 0 .375 298 16)" id="1" xlink:href="#2" y1="230" y2="90" x2="0" gradientUnits="userSpaceOnUse" />
    <linearGradient id="2">
      <stop stop-color="#151515" id="stop29550" />
      <stop offset="1" stop-color="#222" id="stop29552" />
    </linearGradient>
    <linearGradient gradientTransform="matrix(.175 0 0 .175 302.79999 215.99997)" id="3" xlink:href="#2" y1="280" y2="40" x2="0" gradientUnits="userSpaceOnUse" />
    <linearGradient xlink:href="#5" id="4" y1="46.752" x2="0" y2="-24.433" gradientUnits="userSpaceOnUse" />
    <linearGradient id="5">
      <stop stop-color="#ededed" id="stop29557" />
      <stop offset="1" stop-color="#fafafa" id="stop29559" />
    </linearGradient>
    <linearGradient inkscape:collect="always" xlink:href="#5" id="linearGradient29746" gradientUnits="userSpaceOnUse" y1="46.752" x2="0" y2="-24.433" />
    <linearGradient inkscape:collect="always" xlink:href="#5" id="linearGradient29751" gradientUnits="userSpaceOnUse" y1="46.752" x2="0" y2="-24.433" gradientTransform="matrix(0.83730054,0,0,0.66025023,29.782123,17.1318)" />
    <linearGradient gradientTransform="matrix(1.10525,0,0,1.10525,-134.27874,-295.76183)" xlink:href="#linearGradient4460" id="linearGradient3002" y1="279.09601" y2="268.32999" gradientUnits="userSpaceOnUse" x2="0" />
    <linearGradient id="linearGradient4460">
      <stop offset="0" style="stop-color:#dedede" id="stop29706" />
      <stop offset="1" style="stop-color:#f9f9f9" id="stop29708" />
    </linearGradient>
    <linearGradient y2="268.32999" x2="0" y1="279.09601" gradientTransform="matrix(1.10525,0,0,1.10525,-134.27874,-295.76183)" gradientUnits="userSpaceOnUse" id="linearGradient29744" xlink:href="#linearGradient4460" inkscape:collect="always" />
  </defs>
  <g transform="matrix(3.543307,0,0,3.543307,0.00118105,-0.00236221)" style="fill-rule:evenodd" id="g29711">
    <rect width="12.982" x="0.28200001" y="0.28299999" rx="0.5" height="12.982" style="opacity:0.5;fill:#ffffff" id="rect29713" />
    <rect width="11.853" x="0.847" y="0.847" rx="0.5" height="11.853" style="fill:url(#linearGradient29744)" id="rect29715" />
  </g>
  <path style="color:#000000;fill:#ee5470" inkscape:connector-curvature="0" id="path29571" d="m 12.806261,12 c -0.439152,0.047 -0.808611,0.4588 -0.80625,0.9007 L 12,28 c 4.6e-5,0.4715 0.528773,0.9999 1,1 l 9,0 0,6 4,0 0,-6 9,0 c 0.471226,-10e-5 0.999954,-0.5281 1,-1 L 36,12.9007 C 35.999954,12.4292 35.571227,12.0001 35.100001,12 l -22.19999,0 z M 15,14 33,14 c 0.466564,0 1,0.587 1,1 l 0,11 c 0,0.4668 -0.560333,1 -1,1 l -18,0 c -0.529325,0 -1,-0.4794 -1,-1 l 0,-11 c 0,-0.4057 0.509785,-1 1,-1 z m 0,19 0,3 18,0 0,-3 z" />
  <path style="fill:#ee5470" inkscape:connector-curvature="0" id="path29573" d="m 13.5,12.5 0,16 21,0 0,-16 -21,0 z M 26,14 l 8,8 -8,0 0,-8 z" />
</svg>
