<?xml version="1.0" encoding="UTF-8" standalone="no"?>
<svg
   xmlns:dc="http://purl.org/dc/elements/1.1/"
   xmlns:cc="http://creativecommons.org/ns#"
   xmlns:rdf="http://www.w3.org/1999/02/22-rdf-syntax-ns#"
   xmlns:svg="http://www.w3.org/2000/svg"
   xmlns="http://www.w3.org/2000/svg"
   xmlns:xlink="http://www.w3.org/1999/xlink"
   xmlns:sodipodi="http://sodipodi.sourceforge.net/DTD/sodipodi-0.dtd"
   xmlns:inkscape="http://www.inkscape.org/namespaces/inkscape"
   width="48"
   height="48"
   id="svg3266"
   version="1.1"
   inkscape:version="0.48.4 r9939"
   sodipodi:docname="printer.svg">
  <metadata
     id="metadata3387">
    <rdf:RDF>
      <cc:Work
         rdf:about="">
        <dc:format>image/svg+xml</dc:format>
        <dc:type
           rdf:resource="http://purl.org/dc/dcmitype/StillImage" />
      </cc:Work>
    </rdf:RDF>
  </metadata>
  <sodipodi:namedview
     pagecolor="#ffffff"
     bordercolor="#666666"
     borderopacity="1"
     objecttolerance="10"
     gridtolerance="10"
     guidetolerance="10"
     inkscape:pageopacity="0"
     inkscape:pageshadow="2"
     inkscape:window-width="1280"
     inkscape:window-height="745"
     id="namedview3385"
     showgrid="false"
     inkscape:zoom="10.875"
     inkscape:cx="34.390805"
     inkscape:cy="27.678161"
     inkscape:window-x="0"
     inkscape:window-y="22"
     inkscape:window-maximized="1"
     inkscape:current-layer="svg3266" />
  <defs
     id="defs3268">
    <clipPath
       id="clipPath3270">
      <rect
         width="42"
         x="307"
         y="223"
         rx="9"
         height="42"
         transform="rotate(90)"
         fill="url(#3)"
         color="#bebebe"
         id="rect3272" />
    </clipPath>
    <clipPath
       id="clipPath3274">
      <rect
         width="240"
         x="24"
         y="36"
         rx="50"
         height="240"
         fill="#986767"
         color="#bebebe"
         id="rect3276" />
    </clipPath>
    <clipPath
       id="clipPath3278">
      <rect
         width="16"
         x="432"
         y="116"
         rx="2"
         height="16"
         opacity="0.2"
         fill="#6d6d6d"
         color="#bebebe"
         id="rect3280" />
    </clipPath>
    <clipPath
       id="clipPath3282">
      <path
         d="m 98.03125,23.191212 c -41.492132,1.05238 -74.84375,35.06824 -74.84375,76.812498 0,42.40687 34.405632,76.8125 76.8125,76.8125 42.40687,0 76.8125,-34.40563 76.8125,-76.8125 0,-42.406866 -34.40563,-76.812498 -76.8125,-76.812498 -0.662607,0 -1.310145,-0.0167 -1.96875,0 z M 100,50.659962 c 27.24464,0 49.34375,22.099114 49.34375,49.343748 -1e-5,27.24464 -22.09911,49.34375 -49.34375,49.34375 -27.244636,-1e-5 -49.34375,-22.09911 -49.34375,-49.34375 0,-27.244634 22.099114,-49.343748 49.34375,-49.343748 z"
         id="path3284" />
    </clipPath>
    <clipPath
       id="clipPath3286">
      <path
         d="m 152,204 a 8,8 0 1 1 -16,0 8,8 0 1 1 16,0 z"
         id="path3288" />
    </clipPath>
    <clipPath
       id="clipPath3290">
      <path
         d="m 145,215 c 33.13708,0 60,-26.86292 60,-60 0,-33.13708 -26.86292,-60 -60,-60 -33.13708,0 -60,26.86292 -60,60 0,12.50698 3.8285,24.10633 10.375,33.71875 L 89,211 111.28125,204.625 C 120.89367,211.1715 132.49302,215 145,215 z"
         id="path3292" />
    </clipPath>
    <clipPath
       id="clipPath3294">
      <rect
         width="16"
         x="432"
         y="116"
         rx="3"
         height="16"
         color="#bebebe"
         id="rect3296" />
    </clipPath>
    <clipPath
       id="clipPath3298">
      <path
         d="m 144,70 c -49.705627,0 -90,40.29437 -90,90 0,49.70563 40.294373,90 90,90 49.70563,0 90,-40.29437 90,-90 0,-49.70563 -40.29437,-90 -90,-90 z m 0,32.1875 c 32.03251,0 58,25.96748 58,58 0,32.03252 -25.96749,58 -58,58 -32.03251,0 -58,-25.96748 -58,-58 0,-32.03252 25.96749,-58 58,-58 z"
         id="path3300" />
    </clipPath>
    <clipPath
       id="clipPath3302">
      <rect
         width="22"
         x="433"
         y="77"
         rx="3"
         height="22"
         opacity="0.2"
         fill="#6d6d6d"
         color="#bebebe"
         id="rect3304" />
    </clipPath>
    <clipPath
       id="clipPath3306">
      <rect
         width="30"
         x="433"
         y="29"
         rx="4"
         height="30"
         opacity="0.2"
         fill="#6d6d6d"
         color="#bebebe"
         id="rect3308" />
    </clipPath>
    <clipPath
       id="clipPath3310">
      <rect
         width="90"
         x="307"
         y="31"
         rx="18.75"
         height="90"
         fill="url(#1)"
         color="#bebebe"
         id="rect3312" />
    </clipPath>
    <clipPath
       id="clipPath3314">
      <rect
         width="60"
         x="306"
         y="142"
         rx="12.5"
         height="60"
         transform="matrix(0 -1 1 0 0 0)"
         fill="url(#0)"
         color="#bebebe"
         id="rect3316" />
    </clipPath>
    <clipPath
       id="clipPath3318">
      <rect
         width="30"
         x="433"
         y="29"
         rx="6"
         height="30"
         color="#bebebe"
         id="rect3320" />
    </clipPath>
    <clipPath
       id="clipPath3322">
      <rect
         width="22"
         x="433"
         y="77"
         rx="5"
         height="22"
         color="#bebebe"
         id="rect3324" />
    </clipPath>
    <clipPath
       id="clipPath3326">
      <rect
         width="22"
         x="433"
         y="77"
         rx="4"
         height="22"
         color="#bebebe"
         id="rect3328" />
    </clipPath>
    <clipPath
       id="clipPath3330">
      <rect
         width="20"
         x="434"
         y="78"
         rx="4"
         height="20"
         color="#bebebe"
         id="rect3332" />
    </clipPath>
    <linearGradient
       gradientTransform="matrix(-1 0 0 -1 289 315)"
       xlink:href="#2"
       y1="40"
       y2="276"
       x1="265"
       x2="264"
       gradientUnits="userSpaceOnUse"
       id="linearGradient3334" />
    <linearGradient
       gradientTransform="matrix(.25 0 0 .25 299.99999 131.99999)"
       id="0"
       xlink:href="#2"
       y1="230"
       y2="90"
       x2="0"
       gradientUnits="userSpaceOnUse" />
    <linearGradient
       gradientTransform="matrix(.375 0 0 .375 298 16)"
       id="1"
       xlink:href="#2"
       y1="230"
       y2="90"
       x2="0"
       gradientUnits="userSpaceOnUse" />
    <linearGradient
       id="2">
      <stop
         stop-color="#151515"
         id="stop3339" />
      <stop
         offset="1"
         stop-color="#222"
         id="stop3341" />
    </linearGradient>
    <linearGradient
       gradientTransform="matrix(.175 0 0 .175 302.79999 215.99997)"
       id="3"
       xlink:href="#2"
       y1="280"
       y2="40"
       x2="0"
       gradientUnits="userSpaceOnUse" />
    <linearGradient
       xlink:href="#5"
       id="4"
       y1="46.752"
       x2="0"
       y2="-24.433"
       gradientUnits="userSpaceOnUse" />
    <linearGradient
       id="5">
      <stop
         stop-color="#333333"
         id="stop3346" />
      <stop
         offset="1"
         stop-color="#4e4e4e"
         id="stop3348" />
    </linearGradient>
    <path
       id="6"
       d="m -105.21865,18.389288 a 3.8810158,4.5997224 0 1 1 -7.76203,0 3.8810158,4.5997224 0 1 1 7.76203,0 z"
       opacity="0.9" />
    <linearGradient
       inkscape:collect="always"
       xlink:href="#5"
       id="linearGradient3548"
       gradientUnits="userSpaceOnUse"
       y1="46.752"
       x2="0"
       y2="-24.433" />
    <linearGradient
       inkscape:collect="always"
       xlink:href="#5"
       id="linearGradient3563"
       gradientUnits="userSpaceOnUse"
       y1="46.752"
       x2="0"
       y2="-24.433"
       gradientTransform="matrix(0.83730054,0,0,0.66025023,29.782123,17.1318)" />
    <linearGradient
       gradientTransform="matrix(1.00003,0,0,1.00003,-3.6e-4,-3.6e-4)"
       xlink:href="#0-8"
       id="1-1"
       y1="6.7729998"
       y2="12.7"
       gradientUnits="userSpaceOnUse"
       x2="0" />
    <linearGradient
       id="0-8">
      <stop
         stop-color="#4b4b4b"
         id="stop3512" />
      <stop
         offset="1"
         stop-color="#2d2d2d"
         id="stop3514" />
    </linearGradient>
    <linearGradient
       y2="12.7"
       x2="0"
       y1="6.7729998"
       gradientTransform="matrix(1.00003,0,0,1.00003,-3.6e-4,-3.6e-4)"
       gradientUnits="userSpaceOnUse"
       id="linearGradient3546"
       xlink:href="#0-8"
       inkscape:collect="always" />
  </defs>
  <g
     style="fill-rule:evenodd"
     transform="matrix(3.543307,0,0,3.543307,0.00118105,0.00118105)"
     id="g3517">
    <rect
       style="opacity:0.5;fill:#ffffff"
       width="12.982"
       x="0.28200001"
       y="0.28200001"
       rx="0.5"
       height="12.982"
       id="rect3519" />
    <rect
       style="fill:url(#linearGradient3546)"
       width="11.853"
       x="0.847"
       y="0.847"
       rx="0.5"
       height="11.853"
       id="rect3521" />
  </g>
  <g
     id="g3568">
    <path
       d="m 12,27 23.999998,0 C 39,27 39,27 39,29.4 l 0,7.2 C 39,39 39,39 35.999998,39 L 12,39 C 9,39 9,39 9,36.6 L 9,29.4 C 9,27 9,27 12,27 z"
       id="path3361"
       inkscape:connector-curvature="0"
       style="fill:#c3c0b7;fill-rule:evenodd" />
    <path
       d="M 14.5625,8 C 13.13793,8 12,9.1251 12,10.5313 l 0,16.9375 C 12,28.875 13.13793,30 14.5625,30 l 18.875,0 C 34.86207,30 36,28.875 36,27.4688 L 36,13 31,8 14.5625,8 z"
       id="path3363"
       inkscape:connector-curvature="0"
       style="fill:#fccb4a" />
    <use
       transform="matrix(0.2576645,0,0,0.21740442,40.11111,32.0021)"
       xlink:href="#6"
       id="use3365"
       style="fill:#177a00"
       x="0"
       y="0"
       width="48"
       height="48" />
    <use
       transform="matrix(0.2576645,0,0,0.21740442,44.111107,32.0021)"
       xlink:href="#6"
       id="use3367"
       style="fill:#ff2c2f"
       x="0"
       y="0"
       width="48"
       height="48" />
    <use
       transform="matrix(0.2576645,0,0,0.21740442,48.111104,32.0021)"
       xlink:href="#6"
       id="use3369"
       style="fill:#005d98"
       x="0"
       y="0"
       width="48"
       height="48" />
    <rect
       width="24"
       height="8"
       x="12"
       y="24.997786"
       id="rect3371"
       style="fill:#fccb4a" />
    <rect
       width="26"
       height="1"
       x="11"
       y="32.997784"
       id="rect3373"
       style="fill:#6a6b65" />
    <rect
       width="16"
       height="2"
       x="16"
       y="14.997786"
       id="rect3375"
       style="opacity:0.9;fill:#f9f9f9" />
    <rect
       y="20.997786"
       x="16"
       height="2"
       width="16"
       id="rect3377"
       style="opacity:0.9;fill:#f9f9f9" />
    <rect
       width="16"
       height="2"
       x="16"
       y="26.997786"
       id="rect3379"
       style="opacity:0.9;fill:#f9f9f9" />
    <path
       d="m 31,8 0,5 5,0 z"
       id="path3381"
       inkscape:connector-curvature="0"
       style="fill:#ffebb8" />
    <path
       d="m 36,18 0,-5 -5,0 z"
       id="path3383"
       inkscape:connector-curvature="0"
       style="fill:#bc9840" />
  </g>
</svg>
