<?xml version="1.0" encoding="UTF-8" standalone="no"?>
<svg
   xmlns:dc="http://purl.org/dc/elements/1.1/"
   xmlns:cc="http://creativecommons.org/ns#"
   xmlns:rdf="http://www.w3.org/1999/02/22-rdf-syntax-ns#"
   xmlns:svg="http://www.w3.org/2000/svg"
   xmlns="http://www.w3.org/2000/svg"
   xmlns:sodipodi="http://sodipodi.sourceforge.net/DTD/sodipodi-0.dtd"
   xmlns:inkscape="http://www.inkscape.org/namespaces/inkscape"
   width="48"
   viewBox="0 0 13.546667 13.546667"
   height="48"
   id="svg107442"
   version="1.1"
   inkscape:version="0.48.4 r9939"
   sodipodi:docname="soundconverter.svg">
  <metadata
     id="metadata107462">
    <rdf:RDF>
      <cc:Work
         rdf:about="">
        <dc:format>image/svg+xml</dc:format>
        <dc:type
           rdf:resource="http://purl.org/dc/dcmitype/StillImage" />
      </cc:Work>
    </rdf:RDF>
  </metadata>
  <sodipodi:namedview
     pagecolor="#ffffff"
     bordercolor="#666666"
     borderopacity="1"
     objecttolerance="10"
     gridtolerance="10"
     guidetolerance="10"
     inkscape:pageopacity="0"
     inkscape:pageshadow="2"
     inkscape:window-width="1280"
     inkscape:window-height="745"
     id="namedview107460"
     showgrid="false"
     inkscape:snap-bbox="true"
     inkscape:bbox-nodes="true"
     inkscape:zoom="9.8333333"
     inkscape:cx="13.584538"
     inkscape:cy="24.158575"
     inkscape:window-x="0"
     inkscape:window-y="22"
     inkscape:window-maximized="1"
     inkscape:current-layer="svg107442" />
  <defs
     id="defs107444" />
  <rect
     id="rect107448"
     style="opacity:0.5;fill:#ffffff;fill-rule:evenodd"
     height="12.982"
     rx="0.5"
     y="0.28200001"
     x="0.28200001"
     width="12.982" />
  <rect
     id="rect107450"
     style="fill:#4cbae9;fill-rule:evenodd"
     height="11.853"
     rx="0.5"
     y="0.847"
     x="0.847"
     width="11.853" />
  <rect
     width="7.056"
     x="17.357"
     y="1.724"
     height="7.056"
     style="fill:none"
     id="rect107452" />
  <path
     inkscape:connector-curvature="0"
     style="fill:#dc50b7;fill-opacity:1;fill-rule:evenodd"
     d="M 10.159999,0.847 C 8.7549605,3.4171234 5.1576401,10.080808 3.8011798,12.700335 l 8.3961122,0 c 0.277,0 0.502708,-0.225709 0.502708,-0.502709 l 0,-5.4239591 0,-5.4239584 C 12.7,1.0727084 12.474292,0.847 12.197292,0.847 l -2.037293,0 z"
     id="rect107450-7" />
  <path
     style="color:#000000;fill:#f9f9f9"
     d="M 8.5306748,2.25776 C 8.4715558,2.26725 8.4113183,2.300426 8.3755733,2.328315 8.3279483,2.364 8.3193513,2.394757 8.2980223,2.4341475 8.2553963,2.5116845 8.2351593,2.6061745 8.2107783,2.7163675 8.1620024,2.93698 8.1116558,3.2337597 8.0847581,3.598305 8.0308815,4.327404 7.9868197,5.2885485 7.9587382,6.2617563 7.9307579,7.2349016 7.9022971,8.2092148 7.8327183,8.9340269 7.797894,9.2965009 7.7607441,9.6179224 7.7066984,9.8159644 7.7004323,9.8391685 7.6747323,9.8312071 7.6679231,9.8512419 7.6202334,9.7002429 7.5717896,9.4670665 7.5419031,9.1809694 7.4820638,8.6089052 7.4784173,7.8482453 7.4546586,7.0731388 7.4309622,6.2981683 7.3903207,5.5205255 7.3286387,4.9300306 7.2976928,4.6347848 7.2619935,4.3771879 7.2026188,4.1892031 7.1729944,4.094772 7.139543,4.0127513 7.0862927,3.9422606 7.0330355,3.871402 6.9668305,3.8011506 6.8342529,3.8011506 c -0.1006488,0 -0.2269944,0.053 -0.2908152,0.1058325 -0.063817,0.05255 -0.091619,0.1086982 -0.1260199,0.1763875 C 6.3485668,4.2193998 6.3237498,4.3809654 6.2913979,4.5772556 6.2266219,4.9697029 6.1870704,5.4756734 6.165378,5.9795363 6.143661,6.4834669 6.134048,6.9915264 6.078133,7.3553588 6.05015,7.5373723 5.992756,7.6938111 5.9521131,7.7786888 c -0.020408,0.042815 -0.032115,0.063848 -0.038775,0.070555 -0.00888,0 -0.024689,-0.021155 -0.038775,-0.035277 -0.0237,-0.024621 -0.063774,-0.093984 -0.087245,-0.176388 C 5.7404112,7.4734774 5.7156753,7.2217349 5.7000737,6.9673063 5.6842781,6.7128776 5.6952686,6.4443125 5.6225229,6.2264788 5.5860301,6.1174752 5.5412752,6.0276819 5.4480338,5.9442588 5.3548076,5.8610617 5.1804305,5.8067329 5.0311987,5.8119681 4.8507652,5.8230029 4.7377316,5.9302485 4.6628328,6.0500913 4.5879539,6.169934 4.5208297,6.3099086 4.4883437,6.4734213 4.4234381,6.8003356 4.4284014,7.2304614 4.410793,7.6375788 4.3933472,8.0448231 4.3771649,8.4387943 4.3235485,8.7223619 4.2995202,8.8499581 4.2297844,8.9439672 4.1975286,9.0045819 4.1856788,8.979961 4.1708666,8.9699095 4.1587532,8.9340269 4.1099087,8.7899047 4.0652193,8.5708498 4.0327333,8.2990319 3.9677284,7.7553223 3.9347889,7.0313228 3.9067134,6.2970338 3.8784074,5.5626795 3.8780227,4.8185221 3.8194688,4.2597581 3.7901764,3.9804837 3.7476907,3.7412153 3.6934489,3.5630275 3.6664582,3.4741993 3.6163058,3.4190233 3.567429,3.3513625 3.5185519,3.283928 3.4580217,3.174975 3.325083,3.174975 c -0.1255664,0 -0.2510065,0.078146 -0.300509,0.14111 C 2.9750399,3.3790486 2.9743404,3.4461382 2.9470233,3.52775 2.8924518,3.690889 2.8515807,3.901571 2.8210034,4.1539256 2.7598819,4.6587647 2.7273708,5.319742 2.6949835,5.9795363 2.6627279,6.6393957 2.633442,7.2957835 2.5689635,7.7786888 2.536708,8.0202135 2.4882658,8.211733 2.4429436,8.3343094 2.4159529,8.2713461 2.3379884,8.1976731 2.3169237,8.0873669 2.2642615,7.8116012 2.2563395,7.4602038 2.2296792,7.0731388 2.2033491,6.6861389 2.1849737,6.2873691 2.1133531,5.9795363 2.0775758,5.8256225 2.0148293,5.6774799 1.938864,5.5650256 1.8629316,5.4525689 1.7358564,5.3533606 1.5608042,5.3533606 c -0.123328,0 -0.2363428,0.073676 -0.2908151,0.14111 -0.054407,0.06749 -0.097978,0.1254406 -0.1260199,0.211665 C 1.0878512,5.8786697 1.0424375,6.1019314 1.0179492,6.3675888 0.9690065,6.8991639 0.9926351,7.6035425 0.9791739,8.2990319 0.9658795,8.9840975 0.9182433,9.6687452 0.85315398,10.177559 c 0.0153465,0.01981 -0.0349996,0.113753 -0.0415993,0.182872 -0.0183611,0.192296 -0.0400863,0.466022 0.004922,0.519471 0.0551762,0.06552 0.29140352,-0.112224 0.34760342,-0.262465 C 1.2066853,10.503539 1.252868,10.361558 1.269989,10.230475 1.340096,9.6935179 1.343739,8.9959448 1.357233,8.2990319 1.370728,7.6020566 1.397411,6.9143894 1.444478,6.4028663 1.468178,6.147079 1.479274,5.9436283 1.522029,5.8119681 1.53684,5.7658981 1.557366,5.7286051 1.570498,5.7061356 c 0.00563,0.00319 0.022045,0.010566 0.038775,0.035278 0.037884,0.056455 0.046053,0.1734411 0.077551,0.3086782 0.062997,0.2705301 0.099526,0.6375386 0.1260199,1.0230475 0.026661,0.3856358 0.067335,0.7775951 0.1260199,1.0847831 0.029292,0.1535175 0.063023,0.2754738 0.1260199,0.3880525 0.031598,0.056454 0.067565,0.1316198 0.1260199,0.1763875 0.058422,0.044796 0.1249569,0.06716 0.2132645,0.070555 0.1217155,0 0.2359477,-0.078146 0.2908152,-0.14111 0.054866,-0.062964 0.095903,-0.1302513 0.1260199,-0.211665 C 2.8811362,8.2773429 2.9134172,8.0656082 2.9470231,7.8139668 3.0142321,7.3106217 3.0406881,6.6750016 3.073043,6.0148143 3.105299,5.3545021 3.140147,4.6755471 3.1990629,4.1892036 c 0.023696,-0.1964175 0.044967,-0.3344775 0.077551,-0.4586075 0.03502,0.1411795 0.102058,0.3354428 0.1260199,0.56444 0.056646,0.5414343 0.097911,1.2670609 0.1260199,2.0019982 0.028306,0.734872 0.058677,1.4742328 0.12602,2.0372756 0.033671,0.2816231 0.064405,0.5239891 0.1260199,0.70555 0.03094,0.091036 0.072337,0.1431552 0.1260199,0.211665 0.053648,0.068594 0.1242356,0.1713786 0.2520398,0.1763875 0.1790202,0.011038 0.3439604,-0.1304957 0.4168351,-0.2469425 0.072872,-0.1164471 0.095706,-0.2633237 0.1260199,-0.42333 0.060594,-0.31984 0.108509,-0.713269 0.1260199,-1.1200606 0.017446,-0.4066588 0.019952,-0.803416 0.077551,-1.0936025 0.028635,-0.1450846 0.047715,-0.2541663 0.087245,-0.3174975 0.039532,-0.062934 0.079353,-0.070555 0.087244,-0.070555 0.047331,0 0.051878,0.013233 0.077551,0.035278 0.025672,0.022922 0.060855,0.062187 0.087245,0.14111 0.052695,0.1573376 0.071773,0.4174651 0.087245,0.6702725 0.015473,0.252759 0.015048,0.5228639 0.077551,0.7408274 0.031266,0.1090894 0.082015,0.1955427 0.1647952,0.2822201 0.082813,0.086564 0.2316068,0.1322906 0.3780598,0.1322906 0.1012387,0 0.1906218,-0.01642 0.2520398,-0.070555 0.06145,-0.05255 0.09367,-0.1351848 0.1260199,-0.2028456 0.064774,-0.1353502 0.095877,-0.2980447 0.1260199,-0.493885 0.060356,-0.391672 0.1043616,-0.9074948 0.1260199,-1.4111 0.021717,-0.5035432 0.017647,-1.0039463 0.077551,-1.3670032 0.02995,-0.1815608 0.083329,-0.3035654 0.1260199,-0.3880525 0.0099,0.022922 0.038619,0.039201 0.048469,0.070555 0.047693,0.150999 0.096139,0.3842406 0.1260199,0.6702725 0.05981,0.5721294 0.053762,1.3328545 0.077551,2.1078307 0.0237,0.7751008 0.064241,1.5526161 0.1260199,2.1431081 0.03093,0.2952518 0.066645,0.5527806 0.1260199,0.7408275 0.029621,0.094489 0.072739,0.1676596 0.1260199,0.2381236 0.053261,0.07083 0.1582053,0.14111 0.2908152,0.14111 0.076482,0 0.1273566,-0.03598 0.1744891,-0.07056 0.047168,-0.03503 0.090489,-0.05652 0.1163261,-0.09701 0.051702,-0.08099 0.094659,-0.167329 0.1260199,-0.2822196 0.06267,-0.2296396 0.090468,-0.5470242 0.1260199,-0.917215 0.071084,-0.7405826 0.097974,-1.7334915 0.1260199,-2.7075481 0.0283,-0.9740539 0.073124,-1.9468117 0.1260199,-2.6634513 0.019748,-0.2681251 0.010168,-0.4538244 0.038775,-0.634995 0.039595,0.2158867 0.098304,0.4674734 0.1260199,0.8025631 0.065002,0.784575 0.140391,1.841358 0.1744891,2.8839357 0.034142,1.0426428 0.064309,2.1012368 0.1260199,2.8839356 0.03094,0.3912162 0.0749,0.7061116 0.1260199,0.9436736 0.025669,0.118823 0.036475,0.201032 0.077551,0.28222 0.020737,0.04021 0.044962,0.102879 0.087245,0.14111 0.042295,0.03829 0.1153297,0.07391 0.2035706,0.07056 0.1246793,-0.01104 0.2038536,-0.07812 0.2520399,-0.14111 0.048147,-0.06294 0.098334,-0.130081 0.1260199,-0.211665 0.055441,-0.163394 0.093505,-0.374928 0.1260199,-0.6261761 0.065057,-0.5025698 0.089945,-1.1791126 0.1260207,-1.83443 0.03604,-0.6553798 0.06338,-1.3063213 0.12602,-1.7903331 0.03126,-0.241921 0.08284,-0.4283073 0.12602,-0.5556207 0.02502,0.060982 0.05767,0.098708 0.07755,0.2028457 0.05204,0.2730489 0.0614,0.6684047 0.08724,1.058325 0.02601,0.3899854 0.0543,0.7733163 0.12602,1.0847831 0.03591,0.155668 0.08836,0.3096422 0.164795,0.42333 0.07642,0.113674 0.240439,0.211665 0.416835,0.211665 0.100253,0 0.186048,-0.052916 0.25204,-0.1058325 0.06599,-0.051927 0.09001,-0.1085853 0.12602,-0.1763875 0.07202,-0.1367367 0.131585,-0.2884557 0.164795,-0.4850656 0.06645,-0.3932906 0.06765,-0.9069741 0.08724,-1.4111 0.01942,-0.504126 0.07245,-1.002973 0.12602,-1.3670032 0.02666,-0.1818721 0.04734,-0.3384554 0.08724,-0.42333 0.0089,0.016978 0.02959,0.012102 0.03878,0.035277 0.04547,0.1175224 0.09814,0.3305132 0.12602,0.56444 0.05579,0.4679157 0.05995,1.0801663 0.07755,1.7197782 0.0148,0.5327994 -0.0659,1.2749383 0.209163,1.6358358 0.145956,0.1537898 0.210151,0.1483591 0.282284,0.082038 0.100198,-0.092125 0.07651,-0.3501021 -0.0807,-0.4002839 -0.08506,-1.16106 0.01023,-2.4215049 -0.210543,-3.5537532 -0.01979,-0.1014873 -0.116779,-0.2873289 -0.22761,-0.3885634 -0.04791,-0.043764 -0.147277,-0.082822 -0.176177,-0.082822 -0.101243,0 -0.229495,0.01642 -0.290816,0.070555 -0.06129,0.053852 -0.09411,0.1438625 -0.126019,0.211665 -0.06383,0.135548 -0.09719,0.2979882 -0.12602,0.493885 -0.05766,0.3916748 -0.06767,0.8989356 -0.08725,1.4022807 -0.01974,0.503345 -0.0648,1.0133459 -0.12602,1.3758225 -0.03061,0.1811084 -0.03351,0.2955896 -0.07755,0.3792331 -0.01645,0.031779 -0.07621,0.024014 -0.08724,0.035277 C 11.13857,8.3477903 11.08262,8.2244188 11.05106,8.0873708 10.98789,7.8131616 10.950805,7.4264245 10.92504,7.0378652 10.89937,6.6493089 10.85714,6.2850413 10.79902,5.9795402 10.77005,5.826928 10.73754,5.6761195 10.673,5.5650295 c -0.03226,-0.055153 -0.06349,-0.097219 -0.12602,-0.14111 -0.0626,-0.044118 -0.154039,-0.073949 -0.242346,-0.070555 -0.124744,0 -0.203723,0.078146 -0.252039,0.14111 C 10.004278,5.557409 9.99304,5.6245269 9.965353,5.706139 9.9099235,5.8692777 9.8718455,6.081129 9.8393326,6.3323147 9.7742749,6.8346208 9.7106207,7.5025421 9.6745478,8.1579219 9.6385047,8.8132421 9.6112289,9.4728757 9.5485279,9.9570744 9.5251482,10.137843 9.4918144,10.250118 9.4612833,10.371585 9.4178903,10.159661 9.364527,9.8692467 9.3352634,9.4984669 9.2744367,8.7275175 9.2433097,7.6926441 9.2092435,6.6498088 9.1751069,5.6070386 9.1588427,4.5627125 9.0929174,3.7658731 9.059972,3.3672568 9.021183,3.034605 8.9668975,2.7869225 8.939908,2.6630332 8.920923,2.5542939 8.879653,2.469425 8.8589153,2.4266103 8.8292373,2.4017944 8.7924084,2.3635925 8.7555796,2.3253048 8.6725373,2.268994 8.5888378,2.25776 c -0.020473,-0.00276 -0.038457,-0.00317 -0.058163,0 z"
     id="path107458"
     inkscape:connector-curvature="0"
     sodipodi:nodetypes="ccccccccccccccsccccccccccccccccccccccccsccccccscccscccccssscscccccccccccccccccccccccscccscccccsccccccccccccsccccccccccccccscccccccccsccccccccccacsasccccccccccccccccccccccccccc" />
</svg>
