<?xml version="1.0" encoding="UTF-8" standalone="no"?>
<svg
   xmlns:dc="http://purl.org/dc/elements/1.1/"
   xmlns:cc="http://creativecommons.org/ns#"
   xmlns:rdf="http://www.w3.org/1999/02/22-rdf-syntax-ns#"
   xmlns:svg="http://www.w3.org/2000/svg"
   xmlns="http://www.w3.org/2000/svg"
   xmlns:xlink="http://www.w3.org/1999/xlink"
   xmlns:sodipodi="http://sodipodi.sourceforge.net/DTD/sodipodi-0.dtd"
   xmlns:inkscape="http://www.inkscape.org/namespaces/inkscape"
   viewBox="0 0 48 48"
   width="48"
   height="48"
   id="svg2"
   version="1.1"
   inkscape:version="0.48.4 r9939"
   sodipodi:docname="notes.svg">
  <metadata
     id="metadata38">
    <rdf:RDF>
      <cc:Work
         rdf:about="">
        <dc:format>image/svg+xml</dc:format>
        <dc:type
           rdf:resource="http://purl.org/dc/dcmitype/StillImage" />
      </cc:Work>
    </rdf:RDF>
  </metadata>
  <sodipodi:namedview
     pagecolor="#ffffff"
     bordercolor="#666666"
     borderopacity="1"
     objecttolerance="10"
     gridtolerance="10"
     guidetolerance="10"
     inkscape:pageopacity="0"
     inkscape:pageshadow="2"
     inkscape:window-width="640"
     inkscape:window-height="480"
     id="namedview36"
     showgrid="false"
     inkscape:zoom="3.4766083"
     inkscape:cx="-7.1731007"
     inkscape:cy="37.697793"
     inkscape:window-x="0"
     inkscape:window-y="22"
     inkscape:window-maximized="0"
     inkscape:current-layer="svg2" />
  <defs
     id="defs4">
    <linearGradient
       id="0">
      <stop
         stop-color="#49bcd8"
         id="stop7" />
      <stop
         offset="1"
         stop-color="#2c8dc1"
         id="stop9" />
    </linearGradient>
    <linearGradient
       xlink:href="#0"
       id="1"
       gradientUnits="userSpaceOnUse"
       gradientTransform="matrix(0.875,0,0,0.875,3,-923.81708)"
       y1="1053.16"
       x2="0"
       y2="1004.85" />
  </defs>
  <rect
     height="46"
     rx="2"
     y="1"
     x="1"
     width="46"
     opacity="0.5"
     fill="#ffffff"
     fill-rule="evenodd"
     id="rect12" />
  <rect
     transform="scale(1,-1)"
     height="42"
     rx="1.75"
     y="-45"
     x="3"
     width="42"
     id="rect14"
     style="fill:url(#1)" />
  <rect
     width="24"
     height="24"
     x="12"
     y="12"
     rx="2"
     fill="#ffffff"
     id="rect16" />
  <path
     d="M 14 12 C 12.892 12 12 12.892 12 14 L 12 34 C 12 35.108 12.892 36 14 36 L 24 36 L 24 12 L 14 12 z "
     fill="#fbebd0"
     id="path18" />
  <path
     d="M 14 12 C 12.892 12 12 12.892 12 14 L 12 34 C 12 35.108 12.892 36 14 36 L 15 36 C 13.892 36 13 35.108 13 34 L 13 14 C 13 12.892 13.892 12 15 12 L 14 12 z "
     fill="#ffffff"
     id="path20" />
  <path
     d="M 33 12 C 34.108 12 35 12.892 35 14 L 35 34 C 35 35.108 34.108 36 33 36 L 34 36 C 35.108 36 36 35.108 36 34 L 36 14 C 36 12.892 35.108 12 34 12 L 33 12 z "
     fill="#fbebd0"
     id="path22" />
  <rect
     width="7"
     height="2"
     x="15"
     y="14"
     opacity="0.4"
     fill="#2d2d2d"
     id="rect24" />
  <rect
     y="32"
     x="26"
     height="2"
     width="7"
     opacity="0.4"
     fill="#2d2d2d"
     id="rect26" />
  <rect
     y="19"
     x="15"
     height="1"
     width="18"
     opacity="0.4"
     fill="#2d2d2d"
     id="rect28" />
  <rect
     width="18"
     height="1"
     x="15"
     y="22"
     opacity="0.4"
     fill="#2d2d2d"
     id="rect30" />
  <rect
     y="25"
     x="15"
     height="1"
     width="18"
     opacity="0.4"
     fill="#2d2d2d"
     id="rect32" />
  <rect
     width="18"
     height="1"
     x="15"
     y="28"
     opacity="0.4"
     fill="#2d2d2d"
     id="rect34" />
</svg>
