<?xml version="1.0" encoding="UTF-8" standalone="no"?>
<svg
   xmlns:dc="http://purl.org/dc/elements/1.1/"
   xmlns:cc="http://creativecommons.org/ns#"
   xmlns:rdf="http://www.w3.org/1999/02/22-rdf-syntax-ns#"
   xmlns:svg="http://www.w3.org/2000/svg"
   xmlns="http://www.w3.org/2000/svg"
   xmlns:xlink="http://www.w3.org/1999/xlink"
   xmlns:sodipodi="http://sodipodi.sourceforge.net/DTD/sodipodi-0.dtd"
   xmlns:inkscape="http://www.inkscape.org/namespaces/inkscape"
   width="48"
   viewBox="0 0 13.546667 13.546667"
   height="48"
   id="svg6052"
   version="1.1"
   inkscape:version="0.48.4 r9939"
   sodipodi:docname="sudoku.svg">
  <metadata
     id="metadata6092">
    <rdf:RDF>
      <cc:Work
         rdf:about="">
        <dc:format>image/svg+xml</dc:format>
        <dc:type
           rdf:resource="http://purl.org/dc/dcmitype/StillImage" />
      </cc:Work>
    </rdf:RDF>
  </metadata>
  <sodipodi:namedview
     pagecolor="#ffffff"
     bordercolor="#666666"
     borderopacity="1"
     objecttolerance="10"
     gridtolerance="10"
     guidetolerance="10"
     inkscape:pageopacity="0"
     inkscape:pageshadow="2"
     inkscape:window-width="1280"
     inkscape:window-height="745"
     id="namedview6090"
     showgrid="false"
     inkscape:snap-bbox="true"
     inkscape:bbox-nodes="true"
     inkscape:bbox-paths="true"
     inkscape:zoom="6.9532167"
     inkscape:cx="10.623436"
     inkscape:cy="25.026258"
     inkscape:window-x="0"
     inkscape:window-y="22"
     inkscape:window-maximized="1"
     inkscape:current-layer="svg6052" />
  <defs
     id="defs6054">
    <linearGradient
       id="0">
      <stop
         stop-color="#dedede"
         id="stop6057" />
      <stop
         offset="1"
         stop-color="#f9f9f9"
         id="stop6059" />
    </linearGradient>
    <linearGradient
       xlink:href="#0"
       id="1"
       gradientUnits="userSpaceOnUse"
       gradientTransform="matrix(1.0789649,0,0,1.0789649,-130.9244,-288.56709)"
       y1="279.1"
       x2="0"
       y2="268.33" />
  </defs>
  <rect
     height="12.982"
     rx="0.5"
     y="0.283"
     x="0.282"
     width="12.982"
     opacity="0.5"
     fill="#ffffff"
     fill-rule="evenodd"
     id="rect6062" />
  <rect
     height="11.571"
     rx="0.5"
     y="0.988"
     x="0.988"
     width="11.571"
     fill="url(#1)"
     fill-rule="evenodd"
     id="rect6064" />
  <rect
     width="11.571"
     x="0.988"
     y="0.988"
     rx="0.5"
     height="11.571"
     fill="none"
     stroke="#2d2d2d"
     stroke-width="0.282"
     id="rect6076" />
  <rect
     width="4.1391473"
     height="4.1391478"
     x="4.7039256"
     y="4.7039261"
     id="rect6066"
     style="fill:#7facdd" />
  <path
     d="m 4.9861477,1.1164115 c -0.095784,0.075974 -0.1912955,-0.056288 -0.2822223,0.04051 l 0,11.3204295 c 0.091859,0.03772 0.1880873,0.0296 0.2822223,0.06278 z"
     id="path6068"
     inkscape:connector-curvature="0"
     style="fill:#2d2d2d"
     sodipodi:nodetypes="ccccc" />
  <path
     d="m 8.5608509,1.1074425 0,11.3699085 c 0.1015125,-0.110902 0.2000752,0.08902 0.2822222,-0.01196 l 0,-11.3349312 c -0.092956,-0.043976 -0.1866559,0.016192 -0.2822222,-0.02302 z"
     id="path6070"
     inkscape:connector-curvature="0"
     style="fill:#2d2d2d"
     sodipodi:nodetypes="ccccc" />
  <path
     d="m 1.0096022,8.5608514 c 0.033878,0.096593 0.00425,0.1880201 0.042901,0.2822223 l 11.4308978,0 c 0.120053,-0.092293 -0.126268,-0.1849301 -0.03244,-0.2822223 z"
     id="path6072"
     inkscape:connector-curvature="0"
     style="fill:#2d2d2d"
     sodipodi:nodetypes="ccccc" />
  <path
     d="m 1.1042244,4.7039259 c -0.043756,0.092492 -0.012681,0.1871458 -0.051721,0.2822223 l 11.4560106,0 c -0.03084,-0.1297401 0.06873,-0.1967408 -0.0075,-0.2822223 z"
     id="path6074"
     inkscape:connector-curvature="0"
     style="fill:#2d2d2d"
     sodipodi:nodetypes="ccccc" />
  <g
     style="fill:#2d2d2d"
     id="g6078"
     transform="matrix(1.0142926,0,0,0.98590881,-0.28205619,0.23546359)">
    <path
       inkscape:connector-curvature="0"
       id="path6080"
       d="m 7.7908704,4.0075827 -1.6694723,0 0,-0.2484231 0.6688313,-0.6723057 C 6.9940626,2.8807045 7.1284078,2.7336196 7.1932654,2.645599 7.2581204,2.5575811 7.3067626,2.4718781 7.3391922,2.3884898 7.3716189,2.3051048 7.387833,2.2153483 7.3878344,2.1192201 7.387833,1.9837187 7.3467187,1.87659 7.2644915,1.7978337 7.1822617,1.7179237 7.0681841,1.6779675 6.9222584,1.6779652 6.8168659,1.6779675 6.7166861,1.6953398 6.6217186,1.7300819 6.527908,1.7648287 6.4230955,1.8279477 6.3072811,1.9194394 L 6.1544054,1.723133 C 6.3883511,1.5285664 6.6431437,1.431282 6.918784,1.4312794 c 0.2385775,2.6e-6 0.4256184,0.061384 0.5611233,0.1841457 0.1355018,0.121608 0.2032535,0.285486 0.2032552,0.4916344 -1.7e-6,0.1609846 -0.04517,0.3202299 -0.1355034,0.4777367 -0.090337,0.1575095 -0.2594268,0.356711 -0.5072695,0.597605 l -0.5559117,0.5437512 0,0.013898 1.3063925,0 0,0.2675325" />
  </g>
  <g
     style="fill:#2d2d2d"
     id="g6082"
     transform="matrix(1.0362977,0,0,0.9649736,-0.28205604,0.14127779)">
    <path
       inkscape:connector-curvature="0"
       id="path6084"
       d="m 6.7444851,6.5674659 c 0.2735199,1.6e-6 0.4884291,0.068086 0.6447283,0.2042528 0.1574801,0.1349856 0.2362209,0.320293 0.2362228,0.5559227 -1.9e-6,0.2687853 -0.085847,0.4795503 -0.2575361,0.6322955 -0.1705081,0.1527456 -0.4061386,0.2291183 -0.7068922,0.2291183 -0.2924669,0 -0.5156646,-0.046771 -0.6695938,-0.1403128 l 0,-0.2841777 c 0.082885,0.053284 0.1858992,0.095318 0.3090433,0.1261039 0.123143,0.029602 0.2445105,0.044403 0.3641027,0.044403 0.2083959,3e-7 0.3700219,-0.049139 0.4848783,-0.1474172 0.1160378,-0.098278 0.1740573,-0.2403664 0.1740589,-0.4262666 -1.6e-6,-0.3623255 -0.2220152,-0.5434886 -0.6660416,-0.54349 -0.1124878,1.4e-6 -0.2628651,0.01717 -0.4511322,0.051507 L 6.053578,6.7717188 6.151264,5.5568589 l 1.2912326,0 0,0.2717449 -1.0390249,0 -0.065716,0.7797127 c 0.1361678,-0.027232 0.2717441,-0.040849 0.4067294,-0.04085" />
  </g>
  <path
     style="fill:#2d2d2d"
     inkscape:connector-curvature="0"
     id="path6088"
     d="m 7.7612771,11.319854 -0.3943842,0 0,0.580571 -0.2889727,0 0,-0.580571 -1.2921987,0 0,-0.250545 1.2613022,-1.7088836 0.3198692,0 0,1.6985166 0.3943842,0 0,0.260912 m -0.6833569,-0.260912 0,-0.839755 c -1.3e-6,-0.164724 0.00606,-0.3507599 0.018174,-0.5581085 l -0.01454,0 C 7.0233958,9.7716656 6.9688726,9.8632438 6.9179857,9.9358131 l -0.8305694,1.1231289 0.9905039,0" />
  <g
     style="font-size:3.55808496px;font-style:normal;font-variant:normal;font-weight:normal;font-stretch:normal;line-height:125%;letter-spacing:0px;word-spacing:0px;fill:#000000;fill-opacity:1;stroke:none;font-family:Open Sans;-inkscape-font-specification:Open Sans"
     id="text6186">
    <path
       d="m 10.117039,4.1865749 1.052832,-2.2741861 -1.3846647,0 0,-0.265814 1.6904377,0 0,0.2310671 -1.038933,2.308933 -0.319672,0"
       style=""
       id="path6198" />
  </g>
  <g
     style="font-size:3.46757698px;font-style:normal;font-variant:normal;font-weight:normal;font-stretch:normal;line-height:125%;letter-spacing:0px;word-spacing:0px;fill:#000000;fill-opacity:1;stroke:none;font-family:Lato;-inkscape-font-specification:Lato"
     id="text6190">
    <path
       d="m 2.9703214,9.360424 c -0.4265116,0 -0.7472629,0.2479322 -0.811413,0.700451 l 0.1612423,0.02774 c 0.015604,0.0017 0.027741,0.0035 0.039877,0.0035 0.057215,0 0.093625,-0.02774 0.1126963,-0.095359 0.055481,-0.2149896 0.2271265,-0.3710308 0.4802594,-0.3710308 0.2496653,0 0.4403823,0.1369696 0.4403823,0.4230444 0,0.2566 -0.1647104,0.433447 -0.5877543,0.438649 l 0,0.223658 c 0.5184022,0 0.6363003,0.192451 0.6363003,0.45772 0,0.216724 -0.1751129,0.468123 -0.5218703,0.468123 -0.3467573,0 -0.4525189,-0.230594 -0.516669,-0.364095 -0.0052,-0.01214 -0.00867,-0.02254 -0.01387,-0.03121 -0.019072,-0.04161 -0.055481,-0.06068 -0.1022935,-0.06068 -0.024273,0 -0.048546,0.0052 -0.072819,0.0156 l -0.1317679,0.05548 c 0.1161637,0.369297 0.3120824,0.648437 0.8408874,0.648437 0.4559859,0 0.8270171,-0.282608 0.8270171,-0.740328 0,-0.303412 -0.1629764,-0.508 -0.4871946,-0.592955 C 3.5268672,10.48912 3.695045,10.31054 3.695045,9.9967244 3.695045,9.6118237 3.3933653,9.360424 2.9703214,9.360424"
       style=""
       id="path6195" />
  </g>
</svg>
