<?xml version="1.0" encoding="UTF-8" standalone="no"?>
<svg
   xmlns:dc="http://purl.org/dc/elements/1.1/"
   xmlns:cc="http://creativecommons.org/ns#"
   xmlns:rdf="http://www.w3.org/1999/02/22-rdf-syntax-ns#"
   xmlns:svg="http://www.w3.org/2000/svg"
   xmlns="http://www.w3.org/2000/svg"
   xmlns:xlink="http://www.w3.org/1999/xlink"
   xmlns:sodipodi="http://sodipodi.sourceforge.net/DTD/sodipodi-0.dtd"
   xmlns:inkscape="http://www.inkscape.org/namespaces/inkscape"
   width="48"
   viewBox="0 0 13.546667 13.546667"
   height="48"
   id="svg2"
   version="1.1"
   inkscape:version="0.48.4 r9939"
   sodipodi:docname="gnome-monitor.svg">
  <metadata
     id="metadata24">
    <rdf:RDF>
      <cc:Work
         rdf:about="">
        <dc:format>image/svg+xml</dc:format>
        <dc:type
           rdf:resource="http://purl.org/dc/dcmitype/StillImage" />
      </cc:Work>
    </rdf:RDF>
  </metadata>
  <sodipodi:namedview
     pagecolor="#ffffff"
     bordercolor="#666666"
     borderopacity="1"
     objecttolerance="10"
     gridtolerance="10"
     guidetolerance="10"
     inkscape:pageopacity="0"
     inkscape:pageshadow="2"
     inkscape:window-width="1485"
     inkscape:window-height="900"
     id="namedview22"
     showgrid="false"
     inkscape:zoom="4.9166667"
     inkscape:cx="-11.59322"
     inkscape:cy="23.59322"
     inkscape:window-x="0"
     inkscape:window-y="29"
     inkscape:window-maximized="0"
     inkscape:current-layer="svg2" />
  <defs
     id="defs4">
    <linearGradient
       id="linearGradient4460">
      <stop
         offset="0"
         style="stop-color:#2d2d2d"
         id="stop7" />
      <stop
         offset="1"
         style="stop-color:#4b4b4b"
         id="stop9" />
    </linearGradient>
    <linearGradient
       gradientTransform="matrix(1.09524,0,0,1.09524,-133.0015,-293.02234)"
       xlink:href="#linearGradient4460"
       id="linearGradient4956"
       y1="279.096"
       y2="268.33"
       gradientUnits="userSpaceOnUse"
       x2="0" />
    <linearGradient
       inkscape:collect="always"
       xlink:href="#linearGradient4460"
       id="linearGradient3003"
       gradientUnits="userSpaceOnUse"
       gradientTransform="matrix(1.09524,0,0,1.09524,-149.93482,-293.02234)"
       y1="279.096"
       x2="0"
       y2="268.33" />
    <linearGradient
       inkscape:collect="always"
       xlink:href="#linearGradient4460"
       id="linearGradient3787"
       x1="0.90000671"
       y1="6.7739425"
       x2="12.646007"
       y2="6.7739425"
       gradientUnits="userSpaceOnUse"
       gradientTransform="translate(-13.546949,-9.355545e-4)" />
  </defs>
  <rect
     id="rect14"
     style="opacity:0.5;fill:#ffffff;fill-rule:evenodd"
     height="12.982"
     rx="0.2"
     y="0.28200001"
     x="0.28200001"
     width="12.982" />
  <rect
     id="rect42"
     style="fill:url(#linearGradient3787);fill-opacity:1;fill-rule:evenodd"
     height="11.746"
     rx="0.2"
     y="0.90000671"
     x="-12.646942"
     width="11.746"
     transform="matrix(0,-1,1,0,0,0)" />
  <rect
     transform="matrix(0,-1,1,0,0,0)"
     width="9.8777781"
     x="-11.711889"
     y="1.8341111"
     rx="0.16818964"
     height="9.8777781"
     style="fill:#37dd3c;fill-opacity:0.39215686;fill-rule:evenodd"
     id="rect3823" />
  <path
     style="line-height:normal;color:#000000;fill:#37dd3c"
     d="m 6.3825455,4.5169838 a 0.14979478,0.15032401 0 0 0 -0.031236,0.031347 0.14979478,0.15032401 0 0 0 -0.031236,0.031347 0.14979478,0.15032401 0 0 0 -0.031236,0.062693 l 0,0.031347 -0.5934895,2.3196518 -2.9986836,0 a 0.14979478,0.15032401 0 0 0 -0.031236,0 0.14979478,0.15032401 0 0 0 -0.031236,0 0.14979478,0.15032401 0 0 0 -0.031236,0.031347 0.14979478,0.15032401 0 0 0 -0.031236,0.031347 0.14979478,0.15032401 0 0 0 -0.031236,0.062693 0.14979478,0.15032401 0 0 0 0,0.031347 0.14979478,0.15032401 0 0 0 0.031236,0.062693 0.14979478,0.15032401 0 0 0 0.031236,0.031347 0.14979478,0.15032401 0 0 0 0.031236,0.031347 0.14979478,0.15032401 0 0 0 0.031236,0 0.14979478,0.15032401 0 0 0 0.031236,0 l 3.0923924,0 a 0.14979478,0.15032401 0 0 0 0.031236,0 0.14979478,0.15032401 0 0 0 0.031236,0 0.14979478,0.15032401 0 0 0 0.031236,-0.031348 0.14979478,0.15032401 0 0 0 0.031236,-0.031347 0.14979478,0.15032401 0 0 0 0.031236,-0.031347 l 0.3435992,-1.2852125 0,2.9465847 0,0.062693 a 0.14979478,0.15032401 0 0 0 0,0.031347 0.14979478,0.15032401 0 0 0 0.031236,0.031347 0.14979478,0.15032401 0 0 0 0.031236,0.031347 0.14979478,0.15032401 0 0 0 0.031236,0.031347 0.14979478,0.15032401 0 0 0 0.031236,0 0.14979478,0.15032401 0 0 0 0.031236,0 0.14979478,0.15032401 0 0 0 0.031236,0 0.14979478,0.15032401 0 0 0 0.031236,0 0.14979478,0.15032401 0 0 0 0.031236,-0.031348 0.14979478,0.15032401 0 0 0 0.031236,-0.031347 0.14979478,0.15032401 0 0 0 0.031236,-0.031347 l 0,-0.031347 0.7184381,-2.7271571 0.2498903,1.0030927 a 0.14979478,0.15032401 0 0 0 0,0.031347 0.14979478,0.15032401 0 0 0 0.031236,0.031347 0.14979478,0.15032401 0 0 0 0.031236,0.031347 0.14979478,0.15032401 0 0 0 0.031236,0 0.14979478,0.15032401 0 0 0 0.031236,0.031347 0.14979478,0.15032401 0 0 0 0.031236,0 l 3.1548646,0 a 0.14979478,0.15032401 0 0 0 0.03124,-0.031348 0.14979478,0.15032401 0 0 0 0.03124,0 0.14979478,0.15032401 0 0 0 0.03124,-0.031347 0.14979478,0.15032401 0 0 0 0.03124,-0.031347 0.14979478,0.15032401 0 0 0 0,-0.031347 0.14979478,0.15032401 0 0 0 0,-0.031347 0.14979478,0.15032401 0 0 0 0,-0.031347 0.14979478,0.15032401 0 0 0 0,-0.031347 0.14979478,0.15032401 0 0 0 -0.03124,-0.062693 0.14979478,0.15032401 0 0 0 -0.03124,0 0.14979478,0.15032401 0 0 0 -0.03124,-0.031347 0.14979478,0.15032401 0 0 0 -0.03124,0 l -3.0611557,0 -0.3748355,-1.4419457 a 0.14979478,0.15032401 0 0 0 0,-0.031347 0.14979478,0.15032401 0 0 0 -0.031236,-0.031344 0.14979478,0.15032401 0 0 0 -0.031236,-0.031347 0.14979478,0.15032401 0 0 0 -0.031236,0 0.14979478,0.15032401 0 0 0 -0.031236,0 0.14979478,0.15032401 0 0 0 -0.031236,0 0.14979478,0.15032401 0 0 0 -0.031236,0 0.14979478,0.15032401 0 0 0 -0.031236,0 0.14979478,0.15032401 0 0 0 -0.031236,0.031347 0.14979478,0.15032401 0 0 0 -0.031236,0.062693 l -0.5622531,2.1002252 0,-2.9465847 0,-0.031347 a 0.14979478,0.15032401 0 0 0 0,-0.031347 0.14979478,0.15032401 0 0 0 -0.031236,-0.062693 0.14979478,0.15032401 0 0 0 -0.031236,-0.031347 0.14979478,0.15032401 0 0 0 -0.031236,-0.031347 0.14979478,0.15032401 0 0 0 -0.031236,0 0.14979478,0.15032401 0 0 0 -0.031236,0 0.14979478,0.15032401 0 0 0 -0.031236,0 0.14979478,0.15032401 0 0 0 -0.031236,0 z"
     id="path20"
     inkscape:connector-curvature="0" />
</svg>
