<?xml version="1.0" encoding="UTF-8" standalone="no"?>
<svg
   xmlns:dc="http://purl.org/dc/elements/1.1/"
   xmlns:cc="http://creativecommons.org/ns#"
   xmlns:rdf="http://www.w3.org/1999/02/22-rdf-syntax-ns#"
   xmlns:svg="http://www.w3.org/2000/svg"
   xmlns="http://www.w3.org/2000/svg"
   xmlns:sodipodi="http://sodipodi.sourceforge.net/DTD/sodipodi-0.dtd"
   xmlns:inkscape="http://www.inkscape.org/namespaces/inkscape"
   width="48"
   viewBox="0 0 13.546667 13.546667"
   height="48"
   id="svg2"
   version="1.1"
   inkscape:version="0.48.4 r9939"
   sodipodi:docname="wine-winecfg.svg">
  <metadata
     id="metadata30">
    <rdf:RDF>
      <cc:Work
         rdf:about="">
        <dc:format>image/svg+xml</dc:format>
        <dc:type
           rdf:resource="http://purl.org/dc/dcmitype/StillImage" />
        <dc:title />
      </cc:Work>
    </rdf:RDF>
  </metadata>
  <sodipodi:namedview
     pagecolor="#ffffff"
     bordercolor="#666666"
     borderopacity="1"
     objecttolerance="10"
     gridtolerance="10"
     guidetolerance="10"
     inkscape:pageopacity="0"
     inkscape:pageshadow="2"
     inkscape:window-width="1920"
     inkscape:window-height="1137"
     id="namedview28"
     showgrid="false"
     inkscape:zoom="4.9166667"
     inkscape:cx="24.81356"
     inkscape:cy="23.593221"
     inkscape:window-x="0"
     inkscape:window-y="27"
     inkscape:window-maximized="1"
     inkscape:current-layer="svg2" />
  <defs
     id="defs4" />
  <rect
     id="rect8"
     style="opacity:0.5;fill:#ffffff;fill-rule:evenodd"
     height="12.982"
     rx="0.2"
     y="0.28200001"
     x="0.28200001"
     width="12.982" />
  <g
     transform="translate(16.986675,-0.05305747)"
     id="g2990">
    <path
       inkscape:connector-curvature="0"
       id="rect3796"
       d="m -16.086667,6.7733335 0,5.7238195 c 0,0.1108 0.09205,0.202847 0.202847,0.202847 l 5.670903,0 0.05292,0 0,-5.9266665 -5.873751,0 -0.05292,0 z"
       style="fill:#00adef;fill-opacity:1;fill-rule:evenodd" />
    <path
       inkscape:connector-curvature="0"
       id="rect3790"
       d="m -10.16,6.7733335 0,5.9266665 5.7238193,0 c 0.1107999,0 0.2028473,-0.09205 0.2028473,-0.202847 l 0,-5.7238195 -0.052917,0 -5.8737506,0 z"
       style="fill:#fbbc09;fill-opacity:1;fill-rule:evenodd" />
    <path
       inkscape:connector-curvature="0"
       id="rect10-6"
       d="m -15.88382,0.84666669 c -0.1108,0 -0.202847,0.0920472 -0.202847,0.20284721 l 0,5.7238196 0.05292,0 5.87375,0 0,-5.92666681 -0.05292,0 -5.670903,0 z"
       style="fill:#f1511b;fill-opacity:1;fill-rule:evenodd" />
    <path
       inkscape:connector-curvature="0"
       id="rect3016"
       d="m -10.16,0.84666669 0,5.92666681 5.8737499,0 0.052917,0 0,-5.7238196 c 0,-0.11079998 -0.092047,-0.20284721 -0.2028473,-0.20284721 l -5.7238196,0 z"
       style="fill:#80cc28;fill-opacity:1;fill-rule:evenodd" />
  </g>
  <g
     style="fill:#900417"
     transform="matrix(0.27367,0,0,0.26824,0.14539,-269.35941)"
     id="g20">
    <path
       d="m 32.874998,1016.7997 c -0.992432,0.017 -1.96875,0.6875 -2.125,1.9375 -0.25,2 1.625,1.25 3.125,1.25 1.5,0 2,3.25 1.625,5 -0.375,1.75 -4.361969,5.8836 -13.375,1.75 -7.420574,-3.4033 -11.125529,1.1281 -11.3125,1.2187 0.702271,6.7613 6.428015,14.0938 13.375,14.0938 7.421326,0 13.4375,-8.0787 13.4375,-15.5 0,-0.8524 -0.09825,-1.6917 -0.25,-2.5 -0.137989,-0.4085 -0.273691,-0.816 -0.375,-1.1875 -0.181602,-0.6659 -0.386682,-1.2276 -0.5625,-1.75 -0.0076,-0.017 0.0077,-0.045 0,-0.063 -0.710396,-1.5777 -1.706401,-3.004 -2.9375,-4.1875 -0.0055,-0.01 -0.02572,0.01 -0.03125,0 -0.192383,-0.049 -0.395264,-0.066 -0.59375,-0.063 z"
       id="path22"
       inkscape:connector-curvature="0" />
    <path
       d="m 30.812498,17.187502 c 0,0.414213 -0.335786,0.75 -0.75,0.75 -0.414213,0 -0.75,-0.335787 -0.75,-0.75 0,-0.414214 0.335787,-0.75 0.75,-0.75 0.414214,0 0.75,0.335786 0.75,0.75 z"
       transform="translate(0,1004.3622)"
       id="path24"
       inkscape:connector-curvature="0" />
    <path
       d="m 29.312498,14.468752 c 0,0.293401 -0.237849,0.53125 -0.53125,0.53125 -0.293401,0 -0.53125,-0.237849 -0.53125,-0.53125 0,-0.293401 0.237849,-0.53125 0.53125,-0.53125 0.293401,0 0.53125,0.237849 0.53125,0.53125 z"
       transform="translate(0,1004.3622)"
       id="path26"
       inkscape:connector-curvature="0" />
  </g>
  <g
     id="g3009"
     style="fill:#f9f9f9;fill-opacity:1"
     transform="matrix(0.28222223,0,0,0.28222223,4.5155557,5.6444446)">
    <path
       id="path3011"
       d="m 7.25,0 0,16 1.5,0 0,-16 z"
       xml:space="default"
       inkscape:connector-curvature="0"
       style="fill:#f9f9f9;fill-opacity:1" />
    <path
       id="path3013"
       d="M 10.5,12.5 C 10.5,13.328428 9.380712,14 8,14 6.6192883,14 5.5,13.328428 5.5,12.5 5.5,11.671574 6.6192883,11 8,11 c 1.380712,0 2.5,0.671574 2.5,1.5 z"
       xml:space="default"
       inkscape:connector-curvature="0"
       style="fill:#f9f9f9;fill-opacity:1" />
    <path
       id="path3015"
       d="m 3.2500001,15 0,-14 -1.5,0 0,14 z"
       xml:space="default"
       inkscape:connector-curvature="0"
       style="fill:#f9f9f9;fill-opacity:1" />
    <path
       id="path3017"
       d="M 5.0000001,5.5 C 5.0000001,6.328428 3.8807122,7 2.5000002,7 1.1192883,7 0,6.328428 0,5.5 0,4.671574 1.1192883,4 2.5000002,4 3.8807122,4 5.0000001,4.671574 5.0000001,5.5 z"
       xml:space="default"
       inkscape:connector-curvature="0"
       style="fill:#f9f9f9;fill-opacity:1" />
    <path
       id="path3019"
       d="m 14.25,15 0,-14 -1.5,0 0,14 z"
       xml:space="default"
       inkscape:connector-curvature="0"
       style="fill:#f9f9f9;fill-opacity:1" />
    <path
       id="path3021"
       d="M 16,5.5 C 16,6.3284278 14.880712,7 13.5,7 12.119288,7 11,6.3284278 11,5.5 11,4.671574 12.119288,4 13.5,4 14.880712,4 16,4.671574 16,5.5 z"
       xml:space="default"
       inkscape:connector-curvature="0"
       style="fill:#f9f9f9;fill-opacity:1" />
  </g>
</svg>
