<?xml version="1.0" encoding="UTF-8" standalone="no"?>
<svg
   xmlns:dc="http://purl.org/dc/elements/1.1/"
   xmlns:cc="http://creativecommons.org/ns#"
   xmlns:rdf="http://www.w3.org/1999/02/22-rdf-syntax-ns#"
   xmlns:svg="http://www.w3.org/2000/svg"
   xmlns="http://www.w3.org/2000/svg"
   xmlns:sodipodi="http://sodipodi.sourceforge.net/DTD/sodipodi-0.dtd"
   xmlns:inkscape="http://www.inkscape.org/namespaces/inkscape"
   width="48"
   viewBox="0 0 13.546667 13.546667"
   height="48"
   id="svg2"
   version="1.1"
   inkscape:version="0.48.4 r9939"
   sodipodi:docname="wine-uninstaller.svg">
  <metadata
     id="metadata32">
    <rdf:RDF>
      <cc:Work
         rdf:about="">
        <dc:format>image/svg+xml</dc:format>
        <dc:type
           rdf:resource="http://purl.org/dc/dcmitype/StillImage" />
      </cc:Work>
    </rdf:RDF>
  </metadata>
  <sodipodi:namedview
     pagecolor="#ffffff"
     bordercolor="#666666"
     borderopacity="1"
     objecttolerance="10"
     gridtolerance="10"
     guidetolerance="10"
     inkscape:pageopacity="0"
     inkscape:pageshadow="2"
     inkscape:window-width="1920"
     inkscape:window-height="1137"
     id="namedview30"
     showgrid="false"
     inkscape:zoom="4.9166667"
     inkscape:cx="24.40678"
     inkscape:cy="23.59322"
     inkscape:window-x="0"
     inkscape:window-y="27"
     inkscape:window-maximized="1"
     inkscape:current-layer="svg2" />
  <defs
     id="defs4" />
  <rect
     id="rect8"
     style="opacity:0.5;fill:#ffffff;fill-rule:evenodd"
     height="12.982"
     rx="0.2"
     y="0.28200001"
     x="0.28200001"
     width="12.982" />
  <g
     transform="translate(16.986675,-0.05305747)"
     id="g2990">
    <path
       inkscape:connector-curvature="0"
       id="rect3796"
       d="m -16.086667,6.7733335 0,5.7238195 c 0,0.1108 0.09205,0.202847 0.202847,0.202847 l 5.670903,0 0.05292,0 0,-5.9266665 -5.873751,0 -0.05292,0 z"
       style="fill:#00adef;fill-opacity:1;fill-rule:evenodd" />
    <path
       inkscape:connector-curvature="0"
       id="rect3790"
       d="m -10.16,6.7733335 0,5.9266665 5.7238193,0 c 0.1107999,0 0.2028473,-0.09205 0.2028473,-0.202847 l 0,-5.7238195 -0.052917,0 -5.8737506,0 z"
       style="fill:#fbbc09;fill-opacity:1;fill-rule:evenodd" />
    <path
       inkscape:connector-curvature="0"
       id="rect10"
       d="m -15.88382,0.84666669 c -0.1108,0 -0.202847,0.0920472 -0.202847,0.20284721 l 0,5.7238196 0.05292,0 5.87375,0 0,-5.92666681 -0.05292,0 -5.670903,0 z"
       style="fill:#f1511b;fill-opacity:1;fill-rule:evenodd" />
    <path
       inkscape:connector-curvature="0"
       id="rect3016"
       d="m -10.16,0.84666669 0,5.92666681 5.8737499,0 0.052917,0 0,-5.7238196 c 0,-0.11079998 -0.092047,-0.20284721 -0.2028473,-0.20284721 l -5.7238196,0 z"
       style="fill:#80cc28;fill-opacity:1;fill-rule:evenodd" />
  </g>
  <g
     style="fill:#900417"
     id="g20">
    <path
       d="m 9.1422907,3.3904015 c -0.2715989,0.00456 -0.5387878,0.184415 -0.5815487,0.519715 -0.068417,0.53648 0.4447137,0.3353 0.8552187,0.3353 0.410505,0 0.54734,0.87178 0.4447138,1.3412 -0.1026263,0.46942 -1.1937401,1.5782169 -3.6603363,0.46942 -2.0307885,-0.9129012 -3.0447235,0.3026016 -3.0958919,0.3269041 0.1921905,1.8136511 1.7591549,3.7805214 3.6603363,3.7805214 2.0309943,0 3.6774404,-2.167031 3.6774404,-4.1577205 0,-0.2286477 -0.02689,-0.4537816 -0.06842,-0.6706 -0.03776,-0.109576 -0.0749,-0.2188838 -0.102627,-0.318535 -0.0497,-0.178621 -0.105823,-0.3292914 -0.153939,-0.46942 -0.0021,-0.00456 0.0021,-0.012071 0,-0.016899 -0.194414,-0.4232022 -0.4669907,-0.805793 -0.8039055,-1.123255 -0.00151,-0.00268 -0.00704,0.00268 -0.00855,0 -0.052649,-0.013144 -0.1081719,-0.017704 -0.1624916,-0.016899 z"
       id="path22" />
    <path
       d="m 8.5778463,4.6645421 c 0,0.1111085 -0.091894,0.20118 -0.2052525,0.20118 -0.1133576,0 -0.2052525,-0.090072 -0.2052525,-0.20118 0,-0.1111088 0.091895,-0.20118 0.2052525,-0.20118 0.113358,0 0.2052525,0.090071 0.2052525,0.20118 z"
       id="path24" />
    <path
       d="m 8.1673413,3.9352646 c 0,0.078702 -0.065092,0.1425025 -0.1453872,0.1425025 -0.080295,0 -0.1453871,-0.063801 -0.1453871,-0.1425025 0,-0.078702 0.065092,-0.1425025 0.1453871,-0.1425025 0.080295,0 0.1453872,0.063801 0.1453872,0.1425025 z"
       id="path26" />
  </g>
  <path
     style="opacity:1;fill:#f9f9f9"
     d="M 8.0944486,5.6444447 6.7733341,6.9655609 5.4522194,5.6444447 4.5155557,6.5811093 5.8366704,7.9022198 4.5155557,9.2233359 5.4522194,10.16 6.7733341,8.8388844 8.0944486,10.16 9.0311114,9.2233359 7.7099971,7.9022198 9.0311114,6.5811093 8.0944481,5.6444447 z"
     id="path28" />
</svg>
