<?xml version="1.0" encoding="UTF-8" standalone="no"?>
<svg
   xmlns:dc="http://purl.org/dc/elements/1.1/"
   xmlns:cc="http://creativecommons.org/ns#"
   xmlns:rdf="http://www.w3.org/1999/02/22-rdf-syntax-ns#"
   xmlns:svg="http://www.w3.org/2000/svg"
   xmlns="http://www.w3.org/2000/svg"
   xmlns:sodipodi="http://sodipodi.sourceforge.net/DTD/sodipodi-0.dtd"
   xmlns:inkscape="http://www.inkscape.org/namespaces/inkscape"
   width="48"
   viewBox="0 0 13.546667 13.546667"
   height="48"
   id="svg2"
   version="1.1"
   inkscape:version="0.48.4 r9939"
   sodipodi:docname="wine.svg">
  <metadata
     id="metadata30">
    <rdf:RDF>
      <cc:Work
         rdf:about="">
        <dc:format>image/svg+xml</dc:format>
        <dc:type
           rdf:resource="http://purl.org/dc/dcmitype/StillImage" />
      </cc:Work>
    </rdf:RDF>
  </metadata>
  <sodipodi:namedview
     pagecolor="#ffffff"
     bordercolor="#666666"
     borderopacity="1"
     objecttolerance="10"
     gridtolerance="10"
     guidetolerance="10"
     inkscape:pageopacity="0"
     inkscape:pageshadow="2"
     inkscape:window-width="1920"
     inkscape:window-height="1137"
     id="namedview28"
     showgrid="false"
     inkscape:zoom="6.9532167"
     inkscape:cx="4.6638125"
     inkscape:cy="11.253753"
     inkscape:window-x="0"
     inkscape:window-y="27"
     inkscape:window-maximized="1"
     inkscape:current-layer="svg2" />
  <defs
     id="defs4" />
  <rect
     id="rect8"
     style="opacity:0.5;fill:#ffffff;fill-rule:evenodd"
     height="12.982"
     rx="0.2"
     y="0.28200001"
     x="0.28199947"
     width="12.982" />
  <path
     style="fill:#00adef;fill-opacity:1;fill-rule:evenodd"
     d="m 0.84666668,6.7733335 0,5.7238195 c 0,0.1108 0.092047,0.202847 0.20284722,0.202847 l 5.6709029,0 0.052917,0 0,-5.9266665 -5.87375022,0 -0.052917,0 z"
     id="rect3796"
     inkscape:connector-curvature="0" />
  <path
     style="fill:#fbbc09;fill-rule:evenodd;fill-opacity:1"
     d="M 24 24 L 24 45 L 44.28125 45 C 44.673848 45 45 44.673848 45 44.28125 L 45 24 L 44.8125 24 L 24 24 z "
     transform="scale(0.28222223,0.28222223)"
     id="rect3790" />
  <path
     style="fill:#f1511b;fill-rule:evenodd;fill-opacity:1"
     d="M 3.71875 3 C 3.3261516 3 3 3.3261516 3 3.71875 L 3 24 L 3.1875 24 L 24 24 L 24 3 L 23.8125 3 L 3.71875 3 z "
     transform="scale(0.28222223,0.28222223)"
     id="rect10" />
  <path
     style="fill:#80cc28;fill-rule:evenodd;fill-opacity:1"
     d="M 24 3 L 24 24 L 44.8125 24 L 45 24 L 45 3.71875 C 45 3.3261516 44.673848 3 44.28125 3 L 24 3 z "
     transform="scale(0.28222223,0.28222223)"
     id="rect3016" />
  <g
     style="fill:#900417"
     transform="matrix(.27367 0 0 .26824 .14539 -269.35595)"
     id="g20">
    <path
       d="m 32.874998,1016.7997 c -0.992432,0.017 -1.96875,0.6875 -2.125,1.9375 -0.25,2 1.625,1.25 3.125,1.25 1.5,0 2,3.25 1.625,5 -0.375,1.75 -4.361969,5.8836 -13.375,1.75 -7.420574,-3.4033 -11.125529,1.1281 -11.3125,1.2187 0.702271,6.7613 6.428015,14.0938 13.375,14.0938 7.421326,0 13.4375,-8.0787 13.4375,-15.5 0,-0.8524 -0.09825,-1.6917 -0.25,-2.5 -0.137989,-0.4085 -0.273691,-0.816 -0.375,-1.1875 -0.181602,-0.6659 -0.386682,-1.2276 -0.5625,-1.75 -0.0076,-0.017 0.0077,-0.045 0,-0.063 -0.710396,-1.5777 -1.706401,-3.004 -2.9375,-4.1875 -0.0055,-0.01 -0.02572,0.01 -0.03125,0 -0.192383,-0.049 -0.395264,-0.066 -0.59375,-0.063 z"
       id="path22" />
    <path
       d="m 30.812498,17.187502 c 0,0.414213 -0.335786,0.75 -0.75,0.75 -0.414213,0 -0.75,-0.335787 -0.75,-0.75 0,-0.414214 0.335787,-0.75 0.75,-0.75 0.414214,0 0.75,0.335786 0.75,0.75 z"
       transform="translate(0 1004.3622)"
       id="path24" />
    <path
       d="m 29.312498,14.468752 c 0,0.293401 -0.237849,0.53125 -0.53125,0.53125 -0.293401,0 -0.53125,-0.237849 -0.53125,-0.53125 0,-0.293401 0.237849,-0.53125 0.53125,-0.53125 0.293401,0 0.53125,0.237849 0.53125,0.53125 z"
       transform="translate(0 1004.3622)"
       id="path26" />
  </g>
</svg>
