<?xml version="1.0" encoding="UTF-8" standalone="no"?>
<svg
   xmlns:dc="http://purl.org/dc/elements/1.1/"
   xmlns:cc="http://creativecommons.org/ns#"
   xmlns:rdf="http://www.w3.org/1999/02/22-rdf-syntax-ns#"
   xmlns:svg="http://www.w3.org/2000/svg"
   xmlns="http://www.w3.org/2000/svg"
   xmlns:sodipodi="http://sodipodi.sourceforge.net/DTD/sodipodi-0.dtd"
   xmlns:inkscape="http://www.inkscape.org/namespaces/inkscape"
   width="48"
   viewBox="0 0 13.546667 13.546667"
   height="48"
   id="svg2"
   version="1.1"
   inkscape:version="0.48.4 r9939"
   sodipodi:docname="workspace-switcher-right-bottom.svg">
  <metadata
     id="metadata30">
    <rdf:RDF>
      <cc:Work
         rdf:about="">
        <dc:format>image/svg+xml</dc:format>
        <dc:type
           rdf:resource="http://purl.org/dc/dcmitype/StillImage" />
        <dc:title />
      </cc:Work>
    </rdf:RDF>
  </metadata>
  <sodipodi:namedview
     pagecolor="#ffffff"
     bordercolor="#666666"
     borderopacity="1"
     objecttolerance="10"
     gridtolerance="10"
     guidetolerance="10"
     inkscape:pageopacity="0"
     inkscape:pageshadow="2"
     inkscape:window-width="1920"
     inkscape:window-height="1137"
     id="namedview28"
     showgrid="true"
     inkscape:zoom="7.0286414"
     inkscape:cx="1.9837164"
     inkscape:cy="23.114048"
     inkscape:window-x="0"
     inkscape:window-y="27"
     inkscape:window-maximized="1"
     inkscape:current-layer="svg2"
     showguides="true"
     inkscape:guide-bbox="true">
    <inkscape:grid
       type="xygrid"
       id="grid3848" />
  </sodipodi:namedview>
  <defs
     id="defs4" />
  <rect
     width="11.853"
     x="0.847"
     y="0.847"
     rx="0.2"
     height="11.853"
     style="fill:#e1e1e1;fill-rule:evenodd;fill-opacity:1"
     id="rect3761" />
  <rect
     id="rect8"
     style="opacity:0.5;fill:#ffffff;fill-rule:evenodd"
     height="12.982"
     rx="0.2"
     y="0.28200001"
     x="0.28200001"
     width="12.982" />
  <path
     style="fill:#ef6856;fill-rule:evenodd;fill-opacity:1"
     d="M 24 24 L 24 45 L 44.28125 45 C 44.673848 45 45 44.673848 45 44.28125 L 45 24 L 44.8125 24 L 24 24 z "
     transform="scale(0.28222223,0.28222223)"
     id="rect10" />
  <path
     style="fill:#aaaaaa;fill-opacity:1;stroke:none"
     d="m 0.84666669,6.7733335 c -3.782e-5,0.093626 0,0.188496 0,0.2822222 l 11.85333331,0 c 0,-0.093726 3.8e-5,-0.188596 0,-0.2822222 l -11.85333331,0 z"
     id="rect2987"
     inkscape:connector-curvature="0" />
  <path
     style="fill:#aaaaaa;fill-opacity:1;stroke:none"
     d="m 6.4911113,0.84666669 0,11.85333331 c 0.04685,1.7e-5 0.09425,0 0.1411111,0 0.046849,0 0.094285,1.7e-5 0.1411111,0 l 0,-11.85333331 c -0.04685,-1.682e-5 -0.09425,0 -0.1411111,0 -0.04685,0 -0.094285,-1.682e-5 -0.1411111,0 z"
     id="rect2989"
     inkscape:connector-curvature="0" />
</svg>
